{"glyphs":{"0":{"ha":770,"x_min":31,"x_max":696,"o":"m 429 1023 q 620 925 543 1023 q 696 646 696 827 q 633 276 696 440 q 482 44 570 113 q 294 -25 394 -25 q 160 15 218 -25 q 66 137 102 56 q 31 349 31 219 q 91 724 31 564 q 241 954 151 884 q 429 1023 331 1023 m 420 928 q 291 868 359 928 q 177 670 222 809 q 132 340 132 532 q 180 136 132 202 q 299 69 228 69 q 439 136 372 69 q 546 328 507 203 q 595 661 595 484 q 545 861 595 794 q 420 928 495 928 z "},"1":{"ha":770,"x_min":270,"x_max":514,"o":"m 306 998 l 514 998 l 382 0 l 284 0 l 404 901 l 270 901 l 306 998 z "},"2":{"ha":770,"x_min":-27,"x_max":666,"o":"m 186 696 l 85 696 q 178 937 94 852 q 398 1023 263 1023 q 589 948 513 1023 q 666 762 666 873 q 627 609 666 685 q 424 355 587 533 l 191 98 l 619 98 l 608 0 l -27 0 l 302 366 q 527 640 490 575 q 564 765 564 705 q 514 882 564 834 q 387 930 464 930 q 247 869 302 930 q 186 696 191 808 z "},"3":{"ha":770,"x_min":6,"x_max":670,"o":"m 233 783 l 132 783 q 226 957 148 890 q 410 1023 304 1023 q 597 950 524 1023 q 670 763 670 877 q 634 635 670 688 q 508 538 597 582 q 649 306 649 456 q 604 141 649 217 q 478 20 559 64 q 305 -25 398 -25 q 104 52 186 -25 q 6 264 22 128 l 106 264 q 141 156 117 193 q 211 95 165 119 q 309 71 258 71 q 474 142 400 71 q 547 300 547 213 q 518 403 547 356 q 436 475 490 450 q 294 499 382 499 l 305 587 l 331 587 q 504 640 438 587 q 570 768 570 694 q 522 880 570 834 q 404 925 474 925 q 291 886 338 925 q 233 783 244 848 z "},"4":{"ha":770,"x_min":-35,"x_max":650,"o":"m 606 1023 l 511 311 l 650 311 l 637 212 l 498 212 l 471 0 l 374 0 l 402 212 l -35 212 l 585 1023 l 606 1023 m 469 707 l 165 311 l 415 311 l 469 707 z "},"5":{"ha":770,"x_min":-7,"x_max":712,"o":"m 309 998 l 712 998 l 699 899 l 379 899 l 309 659 q 362 662 342 662 q 500 621 435 662 q 605 504 566 579 q 644 340 644 429 q 597 154 644 241 q 472 21 549 66 q 300 -25 395 -25 q 121 27 199 -25 q -7 193 44 80 l 85 233 q 177 112 119 153 q 302 71 235 71 q 468 143 393 71 q 543 338 543 216 q 482 507 543 442 q 328 572 422 572 q 170 538 255 572 l 309 998 z "},"6":{"ha":770,"x_min":14,"x_max":677,"o":"m 484 1023 l 555 964 l 287 646 q 372 661 334 661 q 574 579 487 661 q 677 330 677 483 q 579 77 677 179 q 336 -25 481 -25 q 106 68 199 -25 q 14 301 14 162 q 52 475 14 391 q 218 709 91 559 l 484 1023 m 351 571 q 182 496 252 571 q 112 310 112 420 q 177 140 112 208 q 333 73 241 73 q 502 143 426 73 q 578 330 578 213 q 512 502 578 433 q 351 571 446 571 z "},"7":{"ha":770,"x_min":26,"x_max":752,"o":"m 120 998 l 752 998 l 105 -25 l 26 24 l 582 903 l 105 903 l 120 998 z "},"8":{"ha":770,"x_min":4,"x_max":682,"o":"m 506 538 q 613 454 578 501 q 661 302 661 387 q 615 138 661 215 q 488 18 570 62 q 307 -25 407 -25 q 90 56 176 -25 q 4 251 4 138 q 59 422 4 345 q 227 551 113 499 q 139 639 165 593 q 113 740 113 685 q 204 937 113 852 q 423 1023 296 1023 q 608 952 534 1023 q 682 781 682 881 q 638 644 682 704 q 506 538 594 583 m 420 925 q 273 870 333 925 q 212 742 212 814 q 259 634 212 677 q 382 592 306 592 q 523 647 465 592 q 581 777 581 703 q 535 882 581 838 q 420 925 489 925 m 368 493 q 184 427 264 493 q 105 253 105 360 q 162 120 105 172 q 311 67 219 67 q 439 98 380 67 q 532 184 499 129 q 566 297 566 239 q 509 436 566 380 q 368 493 452 493 z "},"9":{"ha":770,"x_min":45,"x_max":709,"o":"m 238 -25 l 167 33 l 435 351 q 350 336 388 336 q 147 418 235 336 q 45 668 45 514 q 143 921 45 819 q 385 1023 241 1023 q 616 929 523 1023 q 709 696 709 835 q 670 522 709 606 q 505 289 631 438 l 238 -25 m 372 427 q 541 502 471 427 q 610 688 610 576 q 545 857 610 789 q 389 925 480 925 q 220 854 296 925 q 144 667 144 784 q 210 496 144 565 q 372 427 277 427 z "}," ":{"ha":385,"x_min":0,"x_max":0,"o":""},"!":{"ha":410,"x_min":56,"x_max":309,"o":"m 215 1023 l 309 1023 l 206 249 l 111 249 l 215 1023 m 139 146 q 198 122 174 146 q 222 64 222 98 q 198 5 222 30 q 139 -19 174 -19 q 80 5 104 -19 q 56 64 56 30 q 80 122 56 98 q 139 146 104 146 z "},"\"":{"ha":429,"x_min":69,"x_max":433,"o":"m 418 709 l 348 709 l 333 1023 l 433 1023 l 418 709 m 155 709 l 84 709 l 69 1023 l 170 1023 l 155 709 z "},"#":{"ha":1000,"x_min":125,"x_max":875,"o":"m 836 408 l 836 335 l 668 335 l 619 0 l 543 0 l 592 335 l 366 335 l 315 0 l 240 0 l 292 335 l 125 335 l 125 408 l 303 408 l 338 635 l 166 635 l 166 709 l 349 709 l 396 1026 l 469 1026 l 422 709 l 648 709 l 694 1026 l 770 1026 l 723 709 l 875 709 l 875 635 l 712 635 l 680 408 l 836 408 m 637 635 l 411 635 l 378 408 l 603 408 l 637 635 z "},"$":{"ha":770,"x_min":13,"x_max":700,"o":"m 700 851 l 623 795 q 556 864 582 844 q 494 897 530 884 l 443 555 q 625 414 578 479 q 673 265 673 349 q 587 67 673 151 q 359 -26 501 -17 l 329 -237 l 239 -237 l 272 -20 q 112 50 176 -2 q 13 182 48 101 l 100 226 q 175 125 132 161 q 285 71 218 89 l 346 494 q 201 599 242 550 q 140 750 140 670 q 175 866 140 810 q 276 959 210 923 q 418 998 342 995 l 430 1072 l 519 1072 l 506 990 q 611 942 568 972 q 700 851 654 911 m 404 906 q 282 849 327 895 q 237 747 237 804 q 267 667 237 707 q 360 597 297 628 l 404 906 m 374 66 q 521 134 475 84 q 575 265 575 194 q 546 353 575 311 q 429 450 517 395 l 374 66 z "},"%":{"ha":1076,"x_min":46,"x_max":1014,"o":"m 1011 1042 l 125 -69 l 46 -69 l 861 955 q 735 932 801 940 q 599 925 669 925 q 513 928 565 925 q 545 817 545 876 q 470 627 545 703 q 280 550 394 550 q 129 608 187 550 q 71 755 71 666 q 153 945 71 867 q 332 1023 234 1023 q 415 1011 358 1023 q 599 989 523 989 q 768 1002 682 989 q 941 1042 853 1015 l 1011 1042 m 334 949 q 207 893 260 949 q 153 763 153 838 q 191 662 153 702 q 288 622 229 622 q 415 680 366 622 q 465 814 465 738 q 428 911 465 873 q 334 949 391 949 m 804 447 q 953 388 892 447 q 1014 241 1014 328 q 942 56 1014 136 q 748 -25 870 -25 q 598 33 656 -25 q 540 180 540 91 q 619 367 540 288 q 804 447 699 447 m 802 374 q 674 318 728 374 q 621 187 621 262 q 659 86 621 126 q 755 46 697 46 q 884 104 834 46 q 933 238 933 162 q 896 335 933 297 q 802 374 859 374 z "},"&":{"ha":1051,"x_min":78,"x_max":965,"o":"m 861 374 l 924 298 q 789 194 847 235 q 965 0 854 111 l 829 0 l 744 90 q 706 134 726 109 q 326 -25 494 -25 q 196 3 248 -25 q 111 88 144 32 q 78 206 78 144 q 98 303 78 260 q 173 407 124 359 q 370 552 222 454 q 283 764 283 678 q 349 904 283 847 q 516 962 414 962 q 661 912 604 962 q 717 795 717 863 q 676 673 717 734 q 513 524 635 612 q 664 338 581 435 l 723 269 l 799 325 l 861 374 m 456 604 q 585 715 556 675 q 614 789 614 755 q 586 842 614 819 q 507 865 557 865 q 418 836 452 865 q 385 768 385 807 q 456 604 385 713 m 428 471 q 220 312 274 378 q 179 208 179 263 q 224 106 179 143 q 323 69 269 69 q 457 104 375 69 q 642 209 518 131 q 597 259 619 232 q 428 471 480 403 z "},"'":{"ha":275,"x_min":124,"x_max":224,"o":"m 209 709 l 139 709 l 124 1023 l 224 1023 l 209 709 z "},"(":{"ha":513,"x_min":118,"x_max":485,"o":"m 375 1042 l 485 1042 q 292 595 363 847 q 222 69 222 343 q 264 -289 222 -134 l 160 -289 q 118 54 118 -138 q 186 573 118 313 q 375 1042 254 833 z "},")":{"ha":513,"x_min":-47,"x_max":319,"o":"m 63 -289 l -47 -289 q 146 159 75 -95 q 217 679 217 413 q 174 1042 217 886 l 278 1042 q 319 694 319 895 q 251 177 319 435 q 63 -289 184 -81 z "},"*":{"ha":590,"x_min":80,"x_max":551,"o":"m 271 1023 l 359 1023 l 339 821 l 506 941 l 551 865 l 363 780 l 551 696 l 506 620 l 339 738 l 359 536 l 271 536 l 292 738 l 125 620 l 80 696 l 271 780 l 80 865 l 125 941 l 292 821 l 271 1023 z "},"+":{"ha":842,"x_min":78,"x_max":764,"o":"m 374 545 l 374 840 l 467 840 l 467 545 l 764 545 l 764 452 l 467 452 l 467 158 l 374 158 l 374 452 l 78 452 l 78 545 l 374 545 z "},",":{"ha":385,"x_min":-24,"x_max":213,"o":"m 127 183 l 213 140 l 39 -115 l -24 -87 l 127 183 z "},"-":{"ha":461,"x_min":3,"x_max":388,"o":"m 14 416 l 388 416 l 376 334 l 3 334 l 14 416 z "},"­":{"ha":461,"x_min":3,"x_max":388,"o":"m 14 416 l 388 416 l 376 334 l 3 334 l 14 416 z "},".":{"ha":385,"x_min":41,"x_max":206,"o":"m 123 146 q 182 122 158 146 q 206 64 206 98 q 182 5 206 30 q 123 -19 158 -19 q 65 5 89 -19 q 41 64 41 30 q 65 122 41 98 q 123 146 89 146 z "},"/":{"ha":607,"x_min":49,"x_max":567,"o":"m 567 1023 l 153 -136 l 49 -136 l 463 1023 l 567 1023 z "},":":{"ha":385,"x_min":41,"x_max":290,"o":"m 207 757 q 266 732 241 757 q 290 674 290 708 q 266 615 290 640 q 207 591 241 591 q 148 615 172 591 q 124 674 124 640 q 149 732 124 708 q 207 757 173 757 m 123 146 q 182 122 158 146 q 206 64 206 98 q 182 5 206 30 q 123 -19 158 -19 q 65 5 89 -19 q 41 64 41 30 q 65 122 41 98 q 123 146 89 146 z "},";":{"ha":385,"x_min":-24,"x_max":290,"o":"m 208 757 q 266 732 242 757 q 290 674 290 708 q 266 615 290 640 q 208 591 242 591 q 149 615 173 591 q 125 674 125 640 q 149 732 125 708 q 208 757 173 757 m 127 183 l 213 140 l 39 -115 l -24 -87 l 127 183 z "},";":{"ha":385,"x_min":-24,"x_max":290,"o":"m 208 757 q 266 732 242 757 q 290 674 290 708 q 266 615 290 640 q 208 591 242 591 q 149 615 173 591 q 125 674 125 640 q 149 732 125 708 q 208 757 173 757 m 127 183 l 213 140 l 39 -115 l -24 -87 l 127 183 z "},"<":{"ha":842,"x_min":71,"x_max":771,"o":"m 771 235 l 771 136 l 71 454 l 71 543 l 771 862 l 771 762 l 202 498 l 771 235 z "},"=":{"ha":842,"x_min":78,"x_max":764,"o":"m 764 694 l 764 602 l 78 602 l 78 694 l 764 694 m 764 396 l 764 303 l 78 303 l 78 396 l 764 396 z "},">":{"ha":842,"x_min":71,"x_max":771,"o":"m 71 235 l 640 498 l 71 762 l 71 862 l 771 543 l 771 454 l 71 136 l 71 235 z "},"?":{"ha":821,"x_min":147,"x_max":724,"o":"m 239 746 l 147 746 q 249 967 163 892 q 467 1042 335 1042 q 653 980 583 1042 q 724 827 724 918 q 692 710 724 760 q 597 624 661 659 q 440 563 568 607 q 295 488 333 526 q 256 411 256 450 q 291 351 256 377 q 381 324 326 324 q 492 361 449 324 q 549 473 536 398 l 642 473 q 563 296 631 359 q 380 234 495 234 q 224 287 283 234 q 166 417 166 340 q 218 544 166 490 q 464 667 270 597 q 589 726 559 701 q 631 824 631 763 q 587 916 631 881 q 457 950 543 950 q 239 746 265 950 m 342 146 q 401 122 376 146 q 425 64 425 98 q 401 5 425 29 q 342 -19 377 -19 q 284 5 308 -19 q 260 64 260 30 q 284 122 260 98 q 342 146 308 146 z "},"@":{"ha":1204,"x_min":93,"x_max":1111,"o":"m 979 204 l 1051 204 q 883 45 960 91 q 633 -18 773 -18 q 359 52 484 -18 q 163 243 233 122 q 93 509 93 365 q 164 780 93 654 q 357 975 235 905 q 624 1044 479 1044 q 970 913 829 1044 q 1111 608 1111 782 q 1052 389 1111 481 q 893 246 994 297 q 762 207 817 207 q 700 228 723 207 q 682 282 682 243 q 618 233 659 253 q 534 214 578 214 q 373 281 437 214 q 309 460 309 349 q 387 679 309 580 q 600 778 464 778 q 700 755 659 778 q 776 677 740 733 l 793 771 l 867 771 l 788 328 q 785 300 785 306 q 794 275 785 284 q 819 267 804 267 q 923 313 859 267 q 1022 432 987 359 q 1058 594 1058 505 q 924 880 1058 766 q 621 985 800 985 q 379 924 488 985 q 209 753 271 863 q 146 515 146 643 q 209 276 146 385 q 384 104 272 166 q 629 41 495 41 q 808 77 728 41 q 979 204 888 112 m 568 290 q 652 318 613 290 q 715 403 692 347 q 745 551 745 477 q 706 663 745 620 q 607 705 668 705 q 466 638 526 705 q 407 472 407 572 q 452 339 407 389 q 568 290 497 290 z "},"A":{"ha":1027,"x_min":-20,"x_max":912,"o":"m 578 998 l 912 0 l 810 0 l 701 326 l 278 326 l 92 0 l -20 0 l 555 998 l 578 998 m 546 789 l 333 421 l 669 421 l 546 789 z "},"B":{"ha":798,"x_min":34,"x_max":727,"o":"m 167 998 l 295 998 q 550 975 484 998 q 657 896 616 952 q 699 763 699 840 q 655 620 699 683 q 538 529 612 557 q 677 436 627 502 q 727 281 727 371 q 684 124 727 190 q 568 29 641 58 q 318 0 496 0 l 34 0 l 167 998 m 253 903 l 208 572 q 276 569 237 569 q 472 591 412 569 q 565 659 532 612 q 598 762 598 705 q 546 870 598 835 q 326 905 494 905 q 253 903 296 905 m 196 474 l 146 94 l 281 94 q 475 106 422 94 q 588 167 549 123 q 626 281 626 212 q 595 386 626 344 q 492 451 564 427 q 279 474 421 474 l 196 474 z "},"C":{"ha":1129,"x_min":54,"x_max":1069,"o":"m 1069 860 l 1008 777 q 647 926 850 926 q 400 861 515 926 q 220 688 285 797 q 155 453 155 578 q 205 254 155 341 q 349 118 255 168 q 565 69 444 69 q 910 186 750 69 l 966 107 q 762 2 847 29 q 564 -25 676 -25 q 227 79 357 -25 q 54 450 54 218 q 227 856 54 689 q 657 1023 400 1023 q 871 986 774 1023 q 1069 860 967 949 z "},"D":{"ha":1034,"x_min":31,"x_max":931,"o":"m 163 998 l 378 998 q 690 944 581 998 q 865 780 798 891 q 931 525 931 668 q 856 243 931 372 q 672 57 781 113 q 345 0 562 0 l 31 0 l 163 998 m 250 901 l 143 97 l 231 97 q 498 108 433 97 q 667 172 599 124 q 785 315 736 220 q 833 523 833 410 q 778 730 833 642 q 627 863 723 819 q 349 901 545 901 l 250 901 z "},"E":{"ha":745,"x_min":33,"x_max":716,"o":"m 716 998 l 702 901 l 253 901 l 209 574 l 658 574 l 645 478 l 196 478 l 145 96 l 594 96 l 583 0 l 33 0 l 166 998 l 716 998 z "},"F":{"ha":673,"x_min":32,"x_max":648,"o":"m 648 998 l 635 900 l 252 900 l 208 574 l 591 574 l 579 478 l 196 478 l 130 0 l 32 0 l 166 998 l 648 998 z "},"G":{"ha":1211,"x_min":54,"x_max":1107,"o":"m 1083 783 l 1003 724 q 826 875 928 823 q 618 928 725 928 q 389 864 499 928 q 217 693 279 800 q 154 466 154 587 q 272 185 154 301 q 558 70 389 70 q 752 111 659 70 q 903 221 845 153 q 987 391 960 290 l 621 391 l 621 489 l 1107 489 q 942 117 1092 260 q 570 -25 793 -25 q 197 114 340 -25 q 54 463 54 253 q 130 743 54 613 q 337 948 205 873 q 621 1023 469 1023 q 1083 783 897 1023 z "},"H":{"ha":949,"x_min":33,"x_max":873,"o":"m 166 998 l 264 998 l 211 592 l 722 592 l 776 998 l 873 998 l 742 0 l 644 0 l 710 498 l 197 498 l 132 0 l 33 0 l 166 998 z "},"I":{"ha":314,"x_min":26,"x_max":262,"o":"m 161 998 l 262 998 l 127 0 l 26 0 l 161 998 z "},"J":{"ha":669,"x_min":-17,"x_max":559,"o":"m 461 998 l 559 998 l 469 310 q 422 97 449 155 q 343 7 395 39 q 223 -25 292 -25 q 102 2 160 -25 q -17 95 43 30 l 60 149 q 225 67 144 67 q 323 123 286 67 q 370 302 352 165 l 461 998 z "},"K":{"ha":821,"x_min":32,"x_max":820,"o":"m 165 998 l 263 998 l 210 593 l 677 998 l 820 998 l 279 531 l 747 0 l 620 0 l 196 481 l 130 0 l 32 0 l 165 998 z "},"L":{"ha":642,"x_min":35,"x_max":578,"o":"m 167 998 l 267 998 l 147 94 l 578 94 l 567 0 l 35 0 l 167 998 z "},"M":{"ha":1276,"x_min":-2,"x_max":1114,"o":"m 1114 998 l 1114 0 l 1020 0 l 1020 688 l 587 0 l 562 0 l 304 712 l 99 0 l -2 0 l 286 998 l 302 998 l 594 187 l 1098 998 l 1114 998 z "},"N":{"ha":1027,"x_min":34,"x_max":956,"o":"m 858 998 l 956 998 l 821 0 l 799 0 l 237 773 l 133 0 l 34 0 l 168 998 l 190 998 l 753 223 l 858 998 z "},"O":{"ha":1207,"x_min":50,"x_max":1118,"o":"m 648 1023 q 984 890 850 1023 q 1118 556 1118 758 q 948 142 1118 310 q 524 -25 778 -25 q 179 104 309 -25 q 50 441 50 233 q 127 736 50 602 q 342 946 205 870 q 648 1023 479 1023 m 646 928 q 391 866 503 928 q 213 689 279 804 q 148 445 148 574 q 195 248 148 335 q 327 115 243 161 q 524 68 410 68 q 772 133 658 68 q 952 313 887 198 q 1018 562 1018 428 q 894 842 1018 739 q 646 928 791 928 z "},"P":{"ha":822,"x_min":44,"x_max":772,"o":"m 178 998 l 450 998 q 643 972 585 998 q 737 892 702 947 q 772 762 772 837 q 717 590 772 663 q 576 491 661 517 q 359 471 515 471 l 208 471 l 144 0 l 44 0 l 178 998 m 266 901 l 220 570 l 359 570 q 553 589 499 570 q 640 655 607 608 q 673 760 673 703 q 650 841 673 808 q 589 888 628 874 q 444 901 549 901 l 266 901 z "},"Q":{"ha":1210,"x_min":51,"x_max":1120,"o":"m 949 142 l 1120 -40 l 993 -40 l 878 82 q 526 -25 726 -25 q 180 104 310 -25 q 51 441 51 233 q 128 735 51 601 q 342 946 205 869 q 642 1023 479 1023 q 984 891 850 1023 q 1119 556 1119 759 q 949 142 1119 312 m 880 214 q 983 373 946 281 q 1019 562 1019 464 q 913 826 1019 723 q 637 928 808 928 q 391 865 504 928 q 214 687 278 801 q 149 445 149 574 q 197 248 149 335 q 328 115 244 161 q 524 68 412 68 q 809 155 680 68 l 642 332 l 770 332 l 880 214 z "},"R":{"ha":843,"x_min":53,"x_max":760,"o":"m 189 998 l 439 998 q 630 972 572 998 q 724 891 688 947 q 760 761 760 835 q 717 611 760 680 q 602 507 675 542 q 409 472 528 472 l 710 0 l 597 0 l 296 472 l 218 472 l 153 0 l 53 0 l 189 998 m 276 902 l 231 570 l 346 570 q 513 580 473 570 q 619 644 578 596 q 659 761 659 692 q 603 874 659 839 q 447 902 559 902 l 276 902 z "},"S":{"ha":692,"x_min":10,"x_max":629,"o":"m 629 813 l 534 789 q 472 889 515 852 q 378 926 429 926 q 288 888 323 926 q 253 787 253 850 q 290 671 253 732 q 401 553 313 633 q 529 399 493 471 q 566 259 566 328 q 526 119 566 186 q 419 14 486 52 q 277 -25 352 -25 q 111 36 181 -25 q 10 215 41 97 l 102 246 q 173 113 124 157 q 286 70 222 70 q 410 123 358 70 q 463 256 463 177 q 433 368 463 313 q 317 500 404 423 q 197 629 225 585 q 152 787 152 704 q 219 956 152 889 q 385 1023 286 1023 q 533 970 468 1023 q 629 813 598 917 z "},"T":{"ha":591,"x_min":37,"x_max":646,"o":"m 50 998 l 646 998 l 633 903 l 378 903 l 258 0 l 159 0 l 279 903 l 37 903 l 50 998 z "},"U":{"ha":909,"x_min":66,"x_max":842,"o":"m 158 998 l 256 998 l 181 427 q 166 264 166 313 q 220 120 166 171 q 371 70 273 70 q 492 93 439 70 q 582 160 545 116 q 635 262 619 204 q 682 515 662 362 l 744 998 l 842 998 l 776 494 l 760 370 q 726 223 745 284 q 674 116 706 163 q 602 39 642 69 q 503 -8 561 9 q 373 -25 445 -25 q 146 50 226 -25 q 66 248 66 124 q 70 325 66 282 l 85 441 l 158 998 z "},"V":{"ha":975,"x_min":83,"x_max":1004,"o":"m 83 998 l 183 998 l 431 208 l 894 998 l 1004 998 l 420 0 l 397 0 l 83 998 z "},"W":{"ha":1333,"x_min":85,"x_max":1358,"o":"m 85 998 l 182 998 l 321 256 l 707 998 l 726 998 l 900 256 l 1253 998 l 1358 998 l 882 0 l 863 0 l 688 751 l 290 0 l 272 0 l 85 998 z "},"X":{"ha":846,"x_min":-31,"x_max":840,"o":"m 147 998 l 253 998 l 429 610 l 723 998 l 840 998 l 473 514 l 709 0 l 604 0 l 409 425 l 86 0 l -31 0 l 365 523 l 147 998 z "},"Y":{"ha":822,"x_min":56,"x_max":855,"o":"m 56 998 l 161 998 l 374 545 l 734 998 l 855 998 l 413 442 l 353 0 l 255 0 l 315 448 l 56 998 z "},"Z":{"ha":667,"x_min":9,"x_max":660,"o":"m 147 998 l 660 998 l 170 95 l 544 95 l 531 0 l 9 0 l 500 901 l 134 901 l 147 998 z "},"[":{"ha":488,"x_min":69,"x_max":479,"o":"m 251 1023 l 479 1023 l 465 926 l 332 926 l 178 -177 l 310 -177 l 297 -270 l 69 -270 l 251 1023 z "},"\\":{"ha":840,"x_min":45,"x_max":795,"o":"m 149 1023 l 795 -136 l 691 -136 l 45 1023 l 149 1023 z "},"]":{"ha":488,"x_min":-65,"x_max":345,"o":"m 163 -270 l -65 -270 l -52 -174 l 81 -174 l 236 930 l 104 930 l 117 1023 l 345 1023 l 163 -270 z "},"^":{"ha":933,"x_min":81,"x_max":852,"o":"m 427 998 l 507 998 l 852 248 l 762 248 l 465 893 l 169 248 l 81 248 l 427 998 z "},"_":{"ha":694,"x_min":-8,"x_max":703,"o":"m -8 -104 l 703 -104 l 703 -174 l -8 -174 l -8 -104 z "},"`":{"ha":525,"x_min":146,"x_max":410,"o":"m 292 1084 l 410 875 l 317 875 l 146 1084 l 292 1084 z "},"a":{"ha":949,"x_min":41,"x_max":859,"o":"m 760 0 l 665 0 l 679 111 q 385 -19 551 -19 q 138 78 235 -19 q 41 328 41 175 q 166 630 41 504 q 463 757 292 757 q 624 718 555 757 q 743 597 694 680 l 760 738 l 859 738 l 760 0 m 395 68 q 562 111 487 68 q 682 235 637 154 q 726 410 726 315 q 653 597 726 525 q 465 669 581 669 q 231 570 328 669 q 134 329 134 472 q 207 140 134 212 q 395 68 279 68 z "},"b":{"ha":947,"x_min":40,"x_max":858,"o":"m 176 1023 l 273 1023 l 220 627 q 513 757 349 757 q 761 660 665 757 q 858 410 858 563 q 732 107 858 234 q 437 -19 607 -19 q 275 20 345 -19 q 155 141 205 59 l 138 0 l 40 0 l 176 1023 m 503 670 q 337 627 412 670 q 217 503 261 584 q 173 328 173 422 q 246 141 173 213 q 434 69 319 69 q 667 168 570 69 q 764 409 764 266 q 692 598 764 526 q 503 670 620 670 z "},"c":{"ha":899,"x_min":41,"x_max":812,"o":"m 812 578 l 734 533 q 484 666 652 666 q 305 623 386 666 q 179 502 224 579 q 134 336 134 425 q 168 197 134 258 q 263 102 201 135 q 408 68 324 68 q 571 102 493 68 q 692 190 648 136 l 770 135 q 611 18 696 55 q 412 -19 525 -19 q 139 76 237 -19 q 41 330 41 172 q 169 632 41 507 q 484 757 298 757 q 682 710 596 757 q 812 578 767 663 z "},"d":{"ha":951,"x_min":42,"x_max":898,"o":"m 762 0 l 666 0 l 680 111 q 387 -19 552 -19 q 139 78 236 -19 q 42 328 42 175 q 168 630 42 504 q 464 757 294 757 q 626 718 556 757 q 745 597 695 680 l 800 1023 l 898 1023 l 762 0 m 397 68 q 564 111 488 68 q 683 235 639 154 q 727 410 727 315 q 654 597 727 525 q 466 669 582 669 q 233 570 330 669 q 136 329 136 472 q 208 140 136 212 q 397 68 281 68 z "},"e":{"ha":903,"x_min":39,"x_max":795,"o":"m 791 350 l 133 350 q 201 143 131 218 q 389 68 272 68 q 534 100 467 68 q 644 189 600 132 l 714 132 q 574 22 661 63 q 387 -19 488 -19 q 126 89 214 -19 q 39 330 39 196 q 98 542 39 440 q 255 700 157 644 q 468 757 353 757 q 703 661 610 757 q 795 416 795 565 q 791 350 795 389 m 704 432 q 633 601 700 536 q 464 666 566 666 q 269 604 353 666 q 149 432 184 541 l 704 432 z "},"f":{"ha":436,"x_min":56,"x_max":452,"o":"m 452 998 l 439 908 q 343 957 388 957 q 294 929 315 957 q 262 817 274 901 l 251 738 l 403 738 l 393 654 l 241 654 l 149 0 l 56 0 l 149 654 l 56 654 l 66 738 l 159 738 l 168 803 q 203 956 184 918 q 257 1018 221 995 q 336 1042 293 1042 q 452 998 393 1042 z "},"g":{"ha":935,"x_min":15,"x_max":848,"o":"m 755 738 l 848 738 l 763 113 q 713 -98 743 -38 q 581 -235 673 -182 q 361 -289 488 -289 q 148 -238 236 -289 q 15 -91 60 -187 l 100 -60 q 361 -201 177 -201 q 529 -161 458 -201 q 630 -60 600 -122 q 667 102 648 -23 l 671 131 q 379 0 551 0 q 134 93 227 0 q 41 336 41 186 q 97 542 41 446 q 253 698 154 639 q 455 757 353 757 q 611 719 541 757 q 736 597 682 680 l 755 738 m 473 667 q 301 622 380 667 q 177 502 221 578 q 134 332 134 426 q 203 157 134 223 q 389 90 272 90 q 623 182 530 90 q 716 415 716 275 q 640 603 716 538 q 473 667 564 667 z "},"h":{"ha":847,"x_min":28,"x_max":720,"o":"m 168 1023 l 260 1023 l 206 626 q 467 757 320 757 q 649 687 578 757 q 720 505 720 617 q 705 339 720 444 l 659 0 l 566 0 l 612 339 q 626 502 626 441 q 578 625 626 578 q 454 671 531 671 q 318 633 382 671 q 219 528 254 594 q 164 319 184 463 l 120 0 l 28 0 l 168 1023 z "},"i":{"ha":278,"x_min":9,"x_max":262,"o":"m 186 1042 q 239 1019 217 1042 q 262 966 262 997 q 239 912 262 934 q 186 890 217 890 q 132 912 154 890 q 110 966 110 934 q 132 1019 110 997 q 186 1042 154 1042 m 111 738 l 201 738 l 103 0 l 9 0 l 111 738 z "},"j":{"ha":282,"x_min":-134,"x_max":267,"o":"m 191 1042 q 244 1019 222 1042 q 267 966 267 997 q 244 912 267 934 q 191 890 222 890 q 136 912 159 890 q 114 966 114 934 q 136 1019 114 997 q 191 1042 159 1042 m 115 738 l 208 738 l 100 -47 q 43 -241 80 -193 q -52 -289 6 -289 q -134 -270 -87 -289 l -122 -189 q -74 -204 -97 -204 q -31 -182 -46 -204 q 2 -77 -8 -150 l 115 738 z "},"k":{"ha":697,"x_min":26,"x_max":688,"o":"m 171 1023 l 263 1023 l 185 465 l 541 738 l 688 738 l 260 408 l 637 0 l 511 0 l 171 366 l 121 0 l 26 0 l 171 1023 z "},"l":{"ha":278,"x_min":9,"x_max":245,"o":"m 153 1023 l 245 1023 l 103 0 l 9 0 l 153 1023 z "},"m":{"ha":1303,"x_min":24,"x_max":1179,"o":"m 130 738 l 222 738 l 208 633 q 317 724 250 691 q 450 757 383 757 q 598 707 534 757 q 672 592 648 669 q 796 714 722 671 q 945 757 869 757 q 1114 691 1048 757 q 1179 521 1179 625 q 1171 405 1179 473 l 1116 0 l 1023 0 l 1073 354 q 1088 517 1088 465 q 1046 623 1088 581 q 935 665 1004 665 q 798 620 861 665 q 709 511 735 574 q 669 354 682 449 l 618 0 l 524 0 l 580 405 q 589 511 589 469 q 547 625 589 582 q 437 667 505 667 q 328 641 380 667 q 243 570 276 614 q 192 463 210 527 q 168 347 175 399 l 119 0 l 24 0 l 130 738 z "},"n":{"ha":847,"x_min":28,"x_max":721,"o":"m 130 738 l 221 738 l 207 625 q 467 757 319 757 q 651 687 581 757 q 721 498 721 616 q 706 338 721 450 l 660 0 l 566 0 l 612 338 q 627 498 627 447 q 580 623 627 576 q 457 671 533 671 q 318 632 382 671 q 219 528 254 594 q 165 319 184 462 l 121 0 l 28 0 l 130 738 z "},"o":{"ha":909,"x_min":38,"x_max":801,"o":"m 461 757 q 634 712 555 757 q 757 586 713 667 q 801 404 801 506 q 745 189 801 288 q 593 35 688 90 q 378 -19 498 -19 q 134 78 230 -19 q 38 326 38 176 q 94 544 38 444 q 249 700 151 644 q 461 757 347 757 m 459 667 q 293 623 371 667 q 174 502 216 578 q 132 332 132 425 q 204 142 132 215 q 390 69 276 69 q 551 112 479 69 q 666 234 623 154 q 709 406 709 314 q 677 542 709 482 q 587 634 645 601 q 459 667 528 667 z "},"p":{"ha":947,"x_min":4,"x_max":858,"o":"m 138 738 l 235 738 l 220 627 q 513 757 349 757 q 761 660 665 757 q 858 410 858 563 q 732 107 858 234 q 437 -19 607 -19 q 275 20 345 -19 q 156 141 205 59 l 102 -270 l 4 -270 l 138 738 m 503 670 q 337 627 412 670 q 217 503 261 584 q 173 328 173 422 q 246 141 173 213 q 434 69 319 69 q 667 168 570 69 q 764 409 764 266 q 692 598 764 526 q 503 670 620 670 z "},"q":{"ha":947,"x_min":40,"x_max":858,"o":"m 724 -270 l 627 -270 l 678 111 q 385 -19 550 -19 q 137 78 234 -19 q 40 328 40 175 q 166 630 40 504 q 462 757 292 757 q 624 718 554 757 q 743 597 693 680 l 760 738 l 858 738 l 724 -270 m 395 68 q 562 111 486 68 q 681 235 637 154 q 725 410 725 315 q 652 597 725 525 q 464 669 580 669 q 231 570 328 669 q 134 329 134 472 q 206 140 134 212 q 395 68 279 68 z "},"r":{"ha":418,"x_min":-10,"x_max":457,"o":"m 90 738 l 184 738 l 172 645 q 264 727 210 698 q 374 757 317 757 q 457 738 414 757 l 412 651 q 353 665 377 665 q 255 631 304 665 q 177 530 207 596 q 125 313 146 464 l 82 0 l -10 0 l 90 738 z "},"s":{"ha":539,"x_min":-24,"x_max":471,"o":"m 471 655 l 419 578 q 271 667 357 667 q 188 635 222 667 q 153 565 153 604 q 174 508 153 535 q 267 434 195 481 q 407 315 373 366 q 440 196 440 263 q 375 42 440 103 q 207 -19 311 -19 q -24 102 70 -19 l 34 170 q 212 70 116 70 q 308 109 267 70 q 349 198 349 147 q 318 277 349 239 q 212 360 298 302 q 90 466 119 424 q 61 559 61 507 q 123 699 61 642 q 279 757 184 757 q 379 734 334 757 q 471 655 425 712 z "},"t":{"ha":471,"x_min":69,"x_max":449,"o":"m 246 1014 l 339 1014 l 302 738 l 449 738 l 438 655 l 292 655 l 202 0 l 107 0 l 196 655 l 69 655 l 81 738 l 207 738 l 246 1014 z "},"u":{"ha":844,"x_min":72,"x_max":759,"o":"m 127 738 l 222 738 l 180 429 q 162 261 162 298 q 219 123 162 176 q 368 69 275 69 q 503 110 446 69 q 584 216 559 151 q 613 369 596 250 l 666 738 l 759 738 l 721 458 q 663 174 694 258 q 554 35 633 90 q 363 -19 476 -19 q 154 59 235 -19 q 72 255 72 138 q 79 364 72 302 l 86 429 l 90 457 l 127 738 z "},"v":{"ha":770,"x_min":38,"x_max":735,"o":"m 38 738 l 135 738 l 321 198 l 632 738 l 735 738 l 310 0 l 292 0 l 38 738 z "},"w":{"ha":1154,"x_min":47,"x_max":1128,"o":"m 47 738 l 142 738 l 294 217 l 571 738 l 587 738 l 755 212 l 1027 738 l 1128 738 l 747 0 l 728 0 l 557 521 l 280 0 l 262 0 l 47 738 z "},"x":{"ha":667,"x_min":-19,"x_max":636,"o":"m 24 738 l 132 738 l 311 450 l 522 738 l 636 738 l 363 366 l 586 0 l 478 0 l 303 283 l 95 0 l -19 0 l 252 366 l 24 738 z "},"y":{"ha":745,"x_min":32,"x_max":742,"o":"m 32 738 l 130 738 l 321 193 l 637 738 l 742 738 l 157 -270 l 51 -270 l 260 90 l 32 738 z "},"z":{"ha":590,"x_min":-39,"x_max":570,"o":"m 62 738 l 570 738 l 129 84 l 530 84 l 519 0 l -39 0 l 404 654 l 52 654 l 62 738 z "},"{":{"ha":488,"x_min":26,"x_max":518,"o":"m 42 401 q 111 417 83 402 q 170 472 149 437 q 204 570 192 507 q 226 711 210 600 q 263 871 243 823 q 315 948 283 919 q 393 989 347 977 q 481 998 422 998 l 518 998 l 503 891 l 482 891 q 402 878 425 891 q 367 837 379 865 q 339 701 354 808 q 298 501 319 559 q 244 409 277 444 q 147 346 212 374 q 230 276 203 321 q 256 157 256 232 q 239 -10 256 109 q 227 -126 227 -98 q 248 -183 227 -167 q 329 -199 268 -199 l 350 -199 l 335 -306 l 298 -306 q 208 -298 235 -306 q 137 -244 163 -283 q 112 -146 112 -206 q 130 28 112 -104 q 142 160 142 121 q 113 256 142 224 q 26 290 83 289 l 42 401 z "},"|":{"ha":933,"x_min":418,"x_max":515,"o":"m 418 1023 l 515 1023 l 515 -270 l 418 -270 l 418 1023 z "},"}":{"ha":488,"x_min":-113,"x_max":378,"o":"m 363 290 q 294 275 321 290 q 235 219 257 254 q 201 121 214 184 q 179 -20 196 92 q 142 -179 162 -131 q 90 -256 123 -227 q 12 -298 58 -286 q -75 -306 -16 -306 l -113 -306 l -98 -199 l -77 -199 q 3 -186 -20 -199 q 39 -145 26 -174 q 66 -10 51 -117 q 107 190 86 132 q 161 282 128 248 q 258 346 194 317 q 176 415 203 370 q 149 535 149 459 q 166 701 149 582 q 178 818 178 789 q 158 874 178 858 q 76 891 137 891 l 55 891 l 70 998 l 108 998 q 197 989 171 998 q 268 936 242 974 q 293 838 293 897 q 275 664 293 795 q 262 532 262 570 q 292 435 262 467 q 378 401 322 402 l 363 290 z "},"~":{"ha":842,"x_min":76,"x_max":765,"o":"m 765 568 l 765 458 q 656 404 689 415 q 594 393 623 393 q 414 445 530 393 q 300 493 325 486 q 254 501 275 501 q 188 488 224 501 q 76 430 152 475 l 76 538 q 184 592 151 581 q 248 604 217 604 q 430 549 314 604 q 539 502 510 511 q 593 492 569 492 q 650 504 621 492 q 765 568 680 515 z "},"Ä":{"ha":1027,"x_min":-20,"x_max":912,"o":"m 578 998 l 912 0 l 810 0 l 701 326 l 278 326 l 92 0 l -20 0 l 555 998 l 578 998 m 546 789 l 333 421 l 669 421 l 546 789 m 446 1232 q 495 1212 475 1232 q 515 1164 515 1192 q 487 1101 515 1128 q 423 1074 460 1074 q 375 1094 395 1074 q 356 1142 356 1113 q 383 1204 356 1177 q 446 1232 410 1232 m 723 1232 q 772 1212 753 1232 q 791 1164 791 1192 q 764 1101 791 1128 q 701 1074 736 1074 q 652 1094 671 1074 q 633 1142 633 1113 q 660 1204 633 1177 q 723 1232 687 1232 z "},"Å":{"ha":1027,"x_min":-20,"x_max":912,"o":"m 578 998 l 912 0 l 810 0 l 701 326 l 278 326 l 92 0 l -20 0 l 555 998 l 578 998 m 546 789 l 333 421 l 669 421 l 546 789 m 601 1349 q 691 1313 655 1349 q 727 1224 727 1278 q 676 1109 727 1159 q 559 1059 626 1059 q 470 1095 506 1059 q 435 1184 435 1131 q 485 1299 435 1249 q 601 1349 535 1349 m 590 1280 q 530 1255 556 1280 q 505 1196 505 1229 q 523 1149 505 1168 q 569 1131 541 1131 q 629 1157 604 1131 q 655 1216 655 1183 q 636 1262 655 1244 q 590 1280 618 1280 z "},"Ç":{"ha":1129,"x_min":54,"x_max":1069,"o":"m 1069 860 l 1008 777 q 647 926 850 926 q 400 861 515 926 q 220 688 285 797 q 155 453 155 578 q 205 254 155 341 q 349 118 255 168 q 565 69 444 69 q 910 186 750 69 l 966 107 q 762 2 847 29 q 564 -25 676 -25 q 227 79 357 -25 q 54 450 54 218 q 227 856 54 689 q 657 1023 400 1023 q 871 986 774 1023 q 1069 860 967 949 m 485 0 l 545 0 l 522 -80 q 548 -78 538 -78 q 597 -96 578 -78 q 616 -140 616 -113 q 570 -222 616 -187 q 445 -258 524 -258 q 335 -237 385 -258 l 356 -191 q 436 -204 398 -204 q 511 -190 489 -204 q 534 -157 534 -176 q 524 -139 534 -146 q 496 -131 513 -131 q 447 -137 479 -131 l 485 0 z "},"É":{"ha":745,"x_min":33,"x_max":716,"o":"m 716 998 l 702 901 l 253 901 l 209 574 l 658 574 l 645 478 l 196 478 l 145 96 l 594 96 l 583 0 l 33 0 l 166 998 l 716 998 m 530 1285 l 675 1285 l 446 1076 l 352 1076 l 530 1285 z "},"Ñ":{"ha":1027,"x_min":34,"x_max":956,"o":"m 858 998 l 956 998 l 821 0 l 799 0 l 237 773 l 133 0 l 34 0 l 168 998 l 190 998 l 753 223 l 858 998 m 775 1213 l 814 1147 q 724 1100 760 1112 q 652 1088 688 1088 q 555 1113 603 1088 q 503 1138 514 1135 q 469 1143 486 1143 q 421 1134 444 1143 q 354 1096 399 1126 l 319 1165 q 480 1231 390 1231 q 581 1204 524 1231 q 666 1177 635 1177 q 775 1213 705 1177 z "},"Ö":{"ha":1207,"x_min":50,"x_max":1118,"o":"m 648 1023 q 984 890 850 1023 q 1118 556 1118 758 q 948 142 1118 310 q 524 -25 778 -25 q 179 104 309 -25 q 50 441 50 233 q 127 736 50 602 q 342 946 205 870 q 648 1023 479 1023 m 646 928 q 391 866 503 928 q 213 689 279 804 q 148 445 148 574 q 195 248 148 335 q 327 115 243 161 q 524 68 410 68 q 772 133 658 68 q 952 313 887 198 q 1018 562 1018 428 q 894 842 1018 739 q 646 928 791 928 m 536 1232 q 585 1212 566 1232 q 605 1164 605 1192 q 577 1101 605 1128 q 513 1074 550 1074 q 466 1094 485 1074 q 446 1142 446 1113 q 473 1204 446 1177 q 536 1232 500 1232 m 813 1232 q 862 1212 843 1232 q 882 1164 882 1192 q 854 1101 882 1128 q 791 1074 827 1074 q 742 1094 762 1074 q 723 1142 723 1113 q 750 1204 723 1177 q 813 1232 777 1232 z "},"Ü":{"ha":909,"x_min":66,"x_max":842,"o":"m 158 998 l 256 998 l 181 427 q 166 264 166 313 q 220 120 166 171 q 371 70 273 70 q 492 93 439 70 q 582 160 545 116 q 635 262 619 204 q 682 515 662 362 l 744 998 l 842 998 l 776 494 l 760 370 q 726 223 745 284 q 674 116 706 163 q 602 39 642 69 q 503 -8 561 9 q 373 -25 445 -25 q 146 50 226 -25 q 66 248 66 124 q 70 325 66 282 l 85 441 l 158 998 m 387 1232 q 436 1212 416 1232 q 456 1164 456 1192 q 428 1101 456 1128 q 364 1074 401 1074 q 316 1094 336 1074 q 297 1142 297 1113 q 324 1204 297 1177 q 387 1232 351 1232 m 664 1232 q 713 1212 694 1232 q 732 1164 732 1192 q 705 1101 732 1128 q 642 1074 677 1074 q 593 1094 612 1074 q 574 1142 574 1113 q 601 1204 574 1177 q 664 1232 628 1232 z "},"á":{"ha":949,"x_min":41,"x_max":859,"o":"m 760 0 l 665 0 l 679 111 q 385 -19 551 -19 q 138 78 235 -19 q 41 328 41 175 q 166 630 41 504 q 463 757 292 757 q 624 718 555 757 q 743 597 694 680 l 760 738 l 859 738 l 760 0 m 395 68 q 562 111 487 68 q 682 235 637 154 q 726 410 726 315 q 653 597 726 525 q 465 669 581 669 q 231 570 328 669 q 134 329 134 472 q 207 140 134 212 q 395 68 279 68 m 608 1084 l 753 1084 l 524 875 l 430 875 l 608 1084 z "},"à":{"ha":949,"x_min":41,"x_max":859,"o":"m 760 0 l 665 0 l 679 111 q 385 -19 551 -19 q 138 78 235 -19 q 41 328 41 175 q 166 630 41 504 q 463 757 292 757 q 624 718 555 757 q 743 597 694 680 l 760 738 l 859 738 l 760 0 m 395 68 q 562 111 487 68 q 682 235 637 154 q 726 410 726 315 q 653 597 726 525 q 465 669 581 669 q 231 570 328 669 q 134 329 134 472 q 207 140 134 212 q 395 68 279 68 m 504 1084 l 623 875 l 529 875 l 358 1084 l 504 1084 z "},"â":{"ha":949,"x_min":41,"x_max":859,"o":"m 760 0 l 665 0 l 679 111 q 385 -19 551 -19 q 138 78 235 -19 q 41 328 41 175 q 166 630 41 504 q 463 757 292 757 q 624 718 555 757 q 743 597 694 680 l 760 738 l 859 738 l 760 0 m 395 68 q 562 111 487 68 q 682 235 637 154 q 726 410 726 315 q 653 597 726 525 q 465 669 581 669 q 231 570 328 669 q 134 329 134 472 q 207 140 134 212 q 395 68 279 68 m 503 1046 l 597 1046 l 770 871 l 648 871 l 543 975 l 404 871 l 277 871 l 503 1046 z "},"ä":{"ha":949,"x_min":41,"x_max":859,"o":"m 760 0 l 665 0 l 679 111 q 385 -19 551 -19 q 138 78 235 -19 q 41 328 41 175 q 166 630 41 504 q 463 757 292 757 q 624 718 555 757 q 743 597 694 680 l 760 738 l 859 738 l 760 0 m 395 68 q 562 111 487 68 q 682 235 637 154 q 726 410 726 315 q 653 597 726 525 q 465 669 581 669 q 231 570 328 669 q 134 329 134 472 q 207 140 134 212 q 395 68 279 68 m 407 1029 q 456 1010 436 1029 q 475 962 475 990 q 448 899 475 926 q 384 872 420 872 q 336 891 355 872 q 317 940 317 911 q 344 1002 317 975 q 407 1029 371 1029 m 684 1029 q 733 1010 713 1029 q 752 962 752 990 q 725 899 752 926 q 661 872 697 872 q 613 891 632 872 q 593 940 593 911 q 621 1002 593 975 q 684 1029 648 1029 z "},"ã":{"ha":949,"x_min":41,"x_max":859,"o":"m 760 0 l 665 0 l 679 111 q 385 -19 551 -19 q 138 78 235 -19 q 41 328 41 175 q 166 630 41 504 q 463 757 292 757 q 624 718 555 757 q 743 597 694 680 l 760 738 l 859 738 l 760 0 m 395 68 q 562 111 487 68 q 682 235 637 154 q 726 410 726 315 q 653 597 726 525 q 465 669 581 669 q 231 570 328 669 q 134 329 134 472 q 207 140 134 212 q 395 68 279 68 m 736 1012 l 774 946 q 685 899 720 911 q 612 886 649 886 q 515 911 564 886 q 463 937 475 933 q 429 941 447 941 q 382 933 404 941 q 315 895 359 924 l 279 964 q 441 1029 351 1029 q 541 1002 484 1029 q 627 976 595 976 q 736 1012 666 976 z "},"å":{"ha":949,"x_min":41,"x_max":859,"o":"m 760 0 l 665 0 l 679 111 q 385 -19 551 -19 q 138 78 235 -19 q 41 328 41 175 q 166 630 41 504 q 463 757 292 757 q 624 718 555 757 q 743 597 694 680 l 760 738 l 859 738 l 760 0 m 395 68 q 562 111 487 68 q 682 235 637 154 q 726 410 726 315 q 653 597 726 525 q 465 669 581 669 q 231 570 328 669 q 134 329 134 472 q 207 140 134 212 q 395 68 279 68 m 562 1147 q 652 1111 616 1147 q 688 1022 688 1076 q 637 907 688 957 q 519 857 587 857 q 431 893 467 857 q 395 982 395 929 q 446 1097 395 1047 q 562 1147 496 1147 m 551 1078 q 491 1053 517 1078 q 465 994 465 1027 q 484 947 465 966 q 530 929 502 929 q 590 955 564 929 q 616 1014 616 981 q 597 1060 616 1042 q 551 1078 578 1078 z "},"ç":{"ha":899,"x_min":41,"x_max":812,"o":"m 812 578 l 734 533 q 484 666 652 666 q 305 623 386 666 q 179 502 224 579 q 134 336 134 425 q 168 197 134 258 q 263 102 201 135 q 408 68 324 68 q 571 102 493 68 q 692 190 648 136 l 770 135 q 611 18 696 55 q 412 -19 525 -19 q 139 76 237 -19 q 41 330 41 172 q 169 632 41 507 q 484 757 298 757 q 682 710 596 757 q 812 578 767 663 m 361 0 l 421 0 l 398 -80 q 425 -78 414 -78 q 474 -96 454 -78 q 493 -140 493 -113 q 447 -222 493 -187 q 321 -258 401 -258 q 212 -237 262 -258 l 233 -191 q 313 -204 275 -204 q 388 -190 366 -204 q 410 -157 410 -176 q 400 -139 410 -146 q 372 -131 390 -131 q 323 -137 356 -131 l 361 0 z "},"é":{"ha":903,"x_min":39,"x_max":795,"o":"m 791 350 l 133 350 q 201 143 131 218 q 389 68 272 68 q 534 100 467 68 q 644 189 600 132 l 714 132 q 574 22 661 63 q 387 -19 488 -19 q 126 89 214 -19 q 39 330 39 196 q 98 542 39 440 q 255 700 157 644 q 468 757 353 757 q 703 661 610 757 q 795 416 795 565 q 791 350 795 389 m 704 432 q 633 601 700 536 q 464 666 566 666 q 269 604 353 666 q 149 432 184 541 l 704 432 m 585 1084 l 730 1084 l 500 875 l 407 875 l 585 1084 z "},"è":{"ha":903,"x_min":39,"x_max":795,"o":"m 791 350 l 133 350 q 201 143 131 218 q 389 68 272 68 q 534 100 467 68 q 644 189 600 132 l 714 132 q 574 22 661 63 q 387 -19 488 -19 q 126 89 214 -19 q 39 330 39 196 q 98 542 39 440 q 255 700 157 644 q 468 757 353 757 q 703 661 610 757 q 795 416 795 565 q 791 350 795 389 m 704 432 q 633 601 700 536 q 464 666 566 666 q 269 604 353 666 q 149 432 184 541 l 704 432 m 481 1084 l 600 875 l 506 875 l 335 1084 l 481 1084 z "},"ê":{"ha":903,"x_min":39,"x_max":795,"o":"m 791 350 l 133 350 q 201 143 131 218 q 389 68 272 68 q 534 100 467 68 q 644 189 600 132 l 714 132 q 574 22 661 63 q 387 -19 488 -19 q 126 89 214 -19 q 39 330 39 196 q 98 542 39 440 q 255 700 157 644 q 468 757 353 757 q 703 661 610 757 q 795 416 795 565 q 791 350 795 389 m 704 432 q 633 601 700 536 q 464 666 566 666 q 269 604 353 666 q 149 432 184 541 l 704 432 m 479 1046 l 574 1046 l 746 871 l 624 871 l 519 975 l 380 871 l 254 871 l 479 1046 z "},"ë":{"ha":903,"x_min":39,"x_max":795,"o":"m 791 350 l 133 350 q 201 143 131 218 q 389 68 272 68 q 534 100 467 68 q 644 189 600 132 l 714 132 q 574 22 661 63 q 387 -19 488 -19 q 126 89 214 -19 q 39 330 39 196 q 98 542 39 440 q 255 700 157 644 q 468 757 353 757 q 703 661 610 757 q 795 416 795 565 q 791 350 795 389 m 704 432 q 633 601 700 536 q 464 666 566 666 q 269 604 353 666 q 149 432 184 541 l 704 432 m 384 1029 q 433 1010 413 1029 q 452 962 452 990 q 425 899 452 926 q 361 872 397 872 q 313 891 332 872 q 294 940 294 911 q 321 1002 294 975 q 384 1029 348 1029 m 661 1029 q 710 1010 690 1029 q 729 962 729 990 q 702 899 729 926 q 638 872 674 872 q 590 891 609 872 q 570 940 570 911 q 597 1002 570 975 q 661 1029 625 1029 z "},"í":{"ha":278,"x_min":9,"x_max":418,"o":"m 111 738 l 201 738 l 103 0 l 9 0 l 111 738 m 273 1084 l 418 1084 l 189 875 l 95 875 l 273 1084 z "},"ì":{"ha":278,"x_min":9,"x_max":287,"o":"m 111 738 l 201 738 l 103 0 l 9 0 l 111 738 m 168 1084 l 287 875 l 193 875 l 22 1084 l 168 1084 z "},"î":{"ha":278,"x_min":-58,"x_max":434,"o":"m 111 738 l 201 738 l 103 0 l 9 0 l 111 738 m 168 1046 l 262 1046 l 434 871 l 312 871 l 207 975 l 68 871 l -58 871 l 168 1046 z "},"ï":{"ha":278,"x_min":-18,"x_max":417,"o":"m 111 738 l 201 738 l 103 0 l 9 0 l 111 738 m 72 1029 q 121 1010 101 1029 q 140 962 140 990 q 113 899 140 926 q 49 872 85 872 q 1 891 20 872 q -18 940 -18 911 q 9 1002 -18 975 q 72 1029 36 1029 m 349 1029 q 398 1010 378 1029 q 417 962 417 990 q 390 899 417 926 q 326 872 362 872 q 278 891 297 872 q 258 940 258 911 q 286 1002 258 975 q 349 1029 313 1029 z "},"ñ":{"ha":847,"x_min":28,"x_max":724,"o":"m 130 738 l 221 738 l 207 625 q 467 757 319 757 q 651 687 581 757 q 721 498 721 616 q 706 338 721 450 l 660 0 l 566 0 l 612 338 q 627 498 627 447 q 580 623 627 576 q 457 671 533 671 q 318 632 382 671 q 219 528 254 594 q 165 319 184 462 l 121 0 l 28 0 l 130 738 m 686 1012 l 724 946 q 634 899 670 911 q 562 886 599 886 q 465 911 513 886 q 413 937 425 933 q 379 941 397 941 q 332 933 354 941 q 264 895 309 924 l 229 964 q 391 1029 300 1029 q 491 1002 434 1029 q 576 976 545 976 q 686 1012 616 976 z "},"ó":{"ha":909,"x_min":38,"x_max":801,"o":"m 461 757 q 634 712 555 757 q 757 586 713 667 q 801 404 801 506 q 745 189 801 288 q 593 35 688 90 q 378 -19 498 -19 q 134 78 230 -19 q 38 326 38 176 q 94 544 38 444 q 249 700 151 644 q 461 757 347 757 m 459 667 q 293 623 371 667 q 174 502 216 578 q 132 332 132 425 q 204 142 132 215 q 390 69 276 69 q 551 112 479 69 q 666 234 623 154 q 709 406 709 314 q 677 542 709 482 q 587 634 645 601 q 459 667 528 667 m 589 1084 l 734 1084 l 505 875 l 411 875 l 589 1084 z "},"ò":{"ha":909,"x_min":38,"x_max":801,"o":"m 461 757 q 634 712 555 757 q 757 586 713 667 q 801 404 801 506 q 745 189 801 288 q 593 35 688 90 q 378 -19 498 -19 q 134 78 230 -19 q 38 326 38 176 q 94 544 38 444 q 249 700 151 644 q 461 757 347 757 m 459 667 q 293 623 371 667 q 174 502 216 578 q 132 332 132 425 q 204 142 132 215 q 390 69 276 69 q 551 112 479 69 q 666 234 623 154 q 709 406 709 314 q 677 542 709 482 q 587 634 645 601 q 459 667 528 667 m 484 1084 l 603 875 l 509 875 l 338 1084 l 484 1084 z "},"ô":{"ha":909,"x_min":38,"x_max":801,"o":"m 461 757 q 634 712 555 757 q 757 586 713 667 q 801 404 801 506 q 745 189 801 288 q 593 35 688 90 q 378 -19 498 -19 q 134 78 230 -19 q 38 326 38 176 q 94 544 38 444 q 249 700 151 644 q 461 757 347 757 m 459 667 q 293 623 371 667 q 174 502 216 578 q 132 332 132 425 q 204 142 132 215 q 390 69 276 69 q 551 112 479 69 q 666 234 623 154 q 709 406 709 314 q 677 542 709 482 q 587 634 645 601 q 459 667 528 667 m 484 1046 l 578 1046 l 750 871 l 628 871 l 523 975 l 384 871 l 258 871 l 484 1046 z "},"ö":{"ha":909,"x_min":38,"x_max":801,"o":"m 461 757 q 634 712 555 757 q 757 586 713 667 q 801 404 801 506 q 745 189 801 288 q 593 35 688 90 q 378 -19 498 -19 q 134 78 230 -19 q 38 326 38 176 q 94 544 38 444 q 249 700 151 644 q 461 757 347 757 m 459 667 q 293 623 371 667 q 174 502 216 578 q 132 332 132 425 q 204 142 132 215 q 390 69 276 69 q 551 112 479 69 q 666 234 623 154 q 709 406 709 314 q 677 542 709 482 q 587 634 645 601 q 459 667 528 667 m 387 1029 q 436 1010 416 1029 q 456 962 456 990 q 428 899 456 926 q 364 872 401 872 q 316 891 336 872 q 297 940 297 911 q 324 1002 297 975 q 387 1029 351 1029 m 664 1029 q 713 1010 694 1029 q 732 962 732 990 q 705 899 732 926 q 642 872 677 872 q 593 891 612 872 q 574 940 574 911 q 601 1002 574 975 q 664 1029 628 1029 z "},"õ":{"ha":909,"x_min":38,"x_max":801,"o":"m 461 757 q 634 712 555 757 q 757 586 713 667 q 801 404 801 506 q 745 189 801 288 q 593 35 688 90 q 378 -19 498 -19 q 134 78 230 -19 q 38 326 38 176 q 94 544 38 444 q 249 700 151 644 q 461 757 347 757 m 459 667 q 293 623 371 667 q 174 502 216 578 q 132 332 132 425 q 204 142 132 215 q 390 69 276 69 q 551 112 479 69 q 666 234 623 154 q 709 406 709 314 q 677 542 709 482 q 587 634 645 601 q 459 667 528 667 m 716 1012 l 755 946 q 665 899 701 911 q 593 886 629 886 q 496 911 544 886 q 444 937 455 933 q 410 941 427 941 q 362 933 385 941 q 295 895 340 924 l 260 964 q 421 1029 331 1029 q 522 1002 465 1029 q 607 976 576 976 q 716 1012 646 976 z "},"ú":{"ha":844,"x_min":72,"x_max":759,"o":"m 127 738 l 222 738 l 180 429 q 162 261 162 298 q 219 123 162 176 q 368 69 275 69 q 503 110 446 69 q 584 216 559 151 q 613 369 596 250 l 666 738 l 759 738 l 721 458 q 663 174 694 258 q 554 35 633 90 q 363 -19 476 -19 q 154 59 235 -19 q 72 255 72 138 q 79 364 72 302 l 86 429 l 90 457 l 127 738 m 556 1084 l 702 1084 l 472 875 l 378 875 l 556 1084 z "},"ù":{"ha":844,"x_min":72,"x_max":759,"o":"m 127 738 l 222 738 l 180 429 q 162 261 162 298 q 219 123 162 176 q 368 69 275 69 q 503 110 446 69 q 584 216 559 151 q 613 369 596 250 l 666 738 l 759 738 l 721 458 q 663 174 694 258 q 554 35 633 90 q 363 -19 476 -19 q 154 59 235 -19 q 72 255 72 138 q 79 364 72 302 l 86 429 l 90 457 l 127 738 m 452 1084 l 570 875 l 477 875 l 306 1084 l 452 1084 z "},"û":{"ha":844,"x_min":72,"x_max":759,"o":"m 127 738 l 222 738 l 180 429 q 162 261 162 298 q 219 123 162 176 q 368 69 275 69 q 503 110 446 69 q 584 216 559 151 q 613 369 596 250 l 666 738 l 759 738 l 721 458 q 663 174 694 258 q 554 35 633 90 q 363 -19 476 -19 q 154 59 235 -19 q 72 255 72 138 q 79 364 72 302 l 86 429 l 90 457 l 127 738 m 451 1046 l 545 1046 l 718 871 l 595 871 l 490 975 l 351 871 l 225 871 l 451 1046 z "},"ü":{"ha":844,"x_min":72,"x_max":759,"o":"m 127 738 l 222 738 l 180 429 q 162 261 162 298 q 219 123 162 176 q 368 69 275 69 q 503 110 446 69 q 584 216 559 151 q 613 369 596 250 l 666 738 l 759 738 l 721 458 q 663 174 694 258 q 554 35 633 90 q 363 -19 476 -19 q 154 59 235 -19 q 72 255 72 138 q 79 364 72 302 l 86 429 l 90 457 l 127 738 m 355 1029 q 404 1010 384 1029 q 423 962 423 990 q 396 899 423 926 q 332 872 368 872 q 284 891 303 872 q 264 940 264 911 q 292 1002 264 975 q 355 1029 319 1029 m 631 1029 q 681 1010 661 1029 q 700 962 700 990 q 672 899 700 926 q 609 872 645 872 q 561 891 580 872 q 541 940 541 911 q 568 1002 541 975 q 631 1029 595 1029 z "},"†":{"ha":768,"x_min":109,"x_max":677,"o":"m 390 1023 l 490 1023 l 431 713 l 677 727 l 663 626 l 421 644 l 319 -213 l 216 -213 l 355 644 l 109 626 l 123 727 l 366 713 l 390 1023 z "},"°":{"ha":555,"x_min":73,"x_max":541,"o":"m 541 789 q 472 624 541 691 q 306 556 404 556 q 140 624 208 556 q 73 791 73 692 q 142 955 73 887 q 308 1023 212 1023 q 472 955 404 1023 q 541 789 541 887 m 460 788 q 416 904 460 857 q 309 951 372 951 q 199 904 245 951 q 153 789 153 857 q 199 676 153 724 q 308 628 245 628 q 415 675 370 628 q 460 788 460 722 z "},"¢":{"ha":770,"x_min":-1,"x_max":763,"o":"m 693 917 l 763 871 l 649 694 q 712 644 683 672 l 654 570 q 598 616 628 593 l 259 94 q 369 72 313 72 q 612 168 505 72 l 665 94 q 361 -19 537 -19 q 208 16 279 -19 l 73 -193 l -1 -146 l 138 64 q 56 186 81 125 q 31 321 31 248 q 88 536 31 435 q 245 697 146 638 q 448 757 345 757 q 574 734 505 757 l 693 917 m 521 654 q 453 666 482 666 q 292 620 370 666 q 170 494 215 574 q 124 325 124 414 q 189 144 124 218 l 521 654 z "},"£":{"ha":770,"x_min":-9,"x_max":728,"o":"m 87 572 l 259 572 q 238 751 238 711 q 313 949 238 875 q 507 1023 388 1023 q 668 960 608 1023 q 728 786 728 897 l 728 762 l 630 762 q 595 890 627 854 q 503 926 564 926 q 384 881 431 926 q 338 763 338 835 q 361 572 338 699 l 577 572 l 565 479 l 372 479 q 374 404 374 436 q 337 175 374 273 q 455 90 440 98 q 503 77 481 77 q 565 120 538 77 q 600 233 591 163 l 699 233 q 637 54 691 132 q 500 -25 583 -25 q 416 -6 456 -25 q 292 83 359 22 q 120 -25 214 -25 q 26 11 62 -25 q -9 104 -9 47 q 37 214 -9 167 q 148 260 83 260 q 252 233 202 260 q 274 367 274 309 l 269 479 l 74 479 l 87 572 m 215 143 q 147 168 176 168 q 101 152 119 168 q 83 114 83 136 q 95 81 83 94 q 127 68 108 68 q 215 143 171 68 z "},"§":{"ha":854,"x_min":44,"x_max":709,"o":"m 709 810 l 614 810 q 474 946 597 946 q 350 903 399 946 q 302 804 302 861 q 341 717 302 760 q 483 610 380 674 q 635 484 595 538 q 674 376 674 429 q 647 282 674 330 q 569 201 621 235 q 444 152 517 167 q 543 46 516 94 q 569 -54 569 -1 q 534 -169 569 -113 q 435 -256 500 -224 q 290 -289 370 -289 q 124 -239 186 -289 q 44 -94 61 -189 l 140 -94 q 195 -174 158 -149 q 294 -199 233 -199 q 421 -157 372 -199 q 471 -56 471 -115 q 464 -16 471 -36 q 439 24 456 5 q 267 163 408 64 q 130 287 162 237 q 98 399 98 336 q 153 534 98 473 q 307 618 208 595 q 230 705 254 661 q 207 802 207 750 q 282 971 207 900 q 473 1042 357 1042 q 640 979 576 1042 q 709 810 705 917 m 375 569 q 240 511 290 557 q 191 410 191 465 q 209 346 191 377 q 271 280 227 315 l 375 208 q 521 265 466 216 q 576 368 576 314 q 564 418 576 394 q 515 471 551 442 l 375 569 z "},"•":{"ha":842,"x_min":212,"x_max":629,"o":"m 420 714 q 568 653 507 714 q 629 506 629 592 q 568 358 629 419 q 420 297 507 297 q 273 358 334 297 q 212 506 212 419 q 273 653 212 592 q 420 714 334 714 z "},"¶":{"ha":783,"x_min":64,"x_max":693,"o":"m 328 -157 l 328 479 q 252 484 277 479 q 157 530 199 496 q 89 622 114 564 q 64 749 64 679 q 142 958 64 878 q 345 1026 208 1026 l 693 1026 l 693 975 l 636 975 l 636 -157 l 555 -157 l 555 975 l 408 975 l 408 -157 l 328 -157 z "},"ß":{"ha":770,"x_min":30,"x_max":682,"o":"m 125 0 l 30 0 l 125 673 q 187 890 146 820 q 298 1001 227 960 q 454 1042 369 1042 q 617 980 553 1042 q 682 824 682 918 q 633 661 682 728 q 489 559 585 593 q 616 455 574 519 q 658 312 658 391 q 574 81 658 182 q 347 -19 490 -19 q 203 17 262 -19 l 216 109 q 342 72 287 72 q 492 134 421 72 q 563 301 563 195 q 329 516 563 478 l 344 618 q 476 645 419 618 q 562 719 532 672 q 591 819 591 765 q 553 911 591 874 q 451 948 514 948 q 331 911 384 948 q 252 814 277 873 q 220 673 235 777 l 125 0 z "},"®":{"ha":1038,"x_min":-14,"x_max":1052,"o":"m 1052 515 q 981 249 1052 372 q 785 54 909 125 q 519 -18 661 -18 q 254 53 378 -18 q 58 248 130 125 q -14 513 -14 372 q 58 780 -14 655 q 253 976 130 905 q 519 1047 377 1047 q 785 976 662 1047 q 980 781 908 905 q 1052 515 1052 656 m 978 515 q 916 744 978 637 q 749 913 854 852 q 521 975 643 975 q 291 913 398 975 q 122 744 183 852 q 60 513 60 637 q 122 284 60 391 q 291 116 183 178 q 521 54 399 54 q 749 116 642 54 q 917 284 855 178 q 978 515 978 391 m 298 825 l 553 825 q 682 807 643 825 q 746 749 722 789 q 771 654 771 708 q 753 573 771 607 q 694 518 740 548 q 750 471 736 498 q 764 379 764 444 l 764 310 q 786 229 764 261 l 796 212 l 688 212 q 673 302 677 250 l 669 378 q 655 436 666 419 q 626 460 645 453 q 549 468 606 468 l 395 468 l 395 212 l 298 212 l 298 825 m 395 737 l 395 555 l 545 555 q 638 571 614 555 q 674 647 674 593 q 648 715 674 694 q 551 737 623 737 l 395 737 z "},"©":{"ha":1038,"x_min":-14,"x_max":1052,"o":"m 1052 513 q 981 248 1052 370 q 786 53 909 125 q 519 -18 662 -18 q 253 53 377 -18 q 58 248 129 125 q -14 513 -14 371 q 58 779 -14 656 q 253 973 129 902 q 519 1044 376 1044 q 786 973 662 1044 q 981 779 909 902 q 1052 513 1052 656 m 978 513 q 917 743 978 637 q 749 911 855 849 q 519 972 642 972 q 290 911 396 972 q 122 743 183 849 q 60 513 60 636 q 122 283 60 390 q 290 116 183 177 q 519 54 397 54 q 749 116 642 54 q 917 283 855 177 q 978 513 978 390 m 780 627 l 688 627 q 634 717 673 687 q 528 747 594 747 q 390 687 442 747 q 338 509 338 626 q 388 336 338 395 q 519 276 438 276 q 631 318 587 276 q 688 443 675 359 l 780 443 q 696 266 767 332 q 522 200 625 200 q 317 282 394 200 q 241 511 241 365 q 320 749 241 664 q 523 835 400 835 q 704 778 636 835 q 780 627 772 722 z "},"™":{"ha":1389,"x_min":8,"x_max":1333,"o":"m 1333 1026 l 1333 441 l 1232 441 l 1232 923 l 1014 441 l 947 441 l 736 923 l 736 441 l 635 441 l 635 1026 l 800 1026 l 981 621 l 1172 1026 l 1333 1026 m 522 1026 l 522 933 l 315 933 l 315 441 l 214 441 l 214 933 l 8 933 l 8 1026 l 522 1026 z "},"´":{"ha":521,"x_min":216,"x_max":540,"o":"m 394 1084 l 540 1084 l 310 875 l 216 875 l 394 1084 z "},"¨":{"ha":513,"x_min":99,"x_max":534,"o":"m 189 1029 q 238 1010 218 1029 q 258 962 258 990 q 230 899 258 926 q 166 872 203 872 q 118 891 138 872 q 99 940 99 911 q 126 1002 99 975 q 189 1029 153 1029 m 466 1029 q 515 1010 496 1029 q 534 962 534 990 q 507 899 534 926 q 444 872 479 872 q 395 891 414 872 q 376 940 376 911 q 403 1002 376 975 q 466 1029 430 1029 z "},"≠":{"ha":762,"x_min":38,"x_max":724,"o":"m 503 694 l 724 694 l 724 602 l 467 602 l 388 396 l 724 396 l 724 303 l 352 303 l 225 -25 l 132 -25 l 258 303 l 38 303 l 38 396 l 294 396 l 372 602 l 38 602 l 38 694 l 408 694 l 534 1023 l 630 1023 l 503 694 z "},"Æ":{"ha":1378,"x_min":-22,"x_max":1303,"o":"m 1182 0 l 618 0 l 662 324 l 320 324 l 85 0 l -22 0 l 696 998 l 1303 998 l 1289 901 l 840 901 l 796 574 l 1244 574 l 1232 478 l 783 478 l 732 96 l 1193 96 l 1182 0 m 741 911 l 389 421 l 675 421 l 741 911 z "},"Ø":{"ha":1206,"x_min":48,"x_max":1116,"o":"m 990 882 q 1116 556 1116 753 q 946 143 1116 311 q 524 -25 777 -25 q 254 43 366 -25 l 165 -60 l 98 0 l 184 98 q 48 441 48 229 q 125 734 48 601 q 339 945 202 868 q 639 1023 477 1023 q 921 941 798 1023 l 1003 1035 l 1072 976 l 990 882 m 248 172 l 857 869 q 633 928 764 928 q 388 865 501 928 q 211 687 275 801 q 146 445 146 574 q 174 294 146 365 q 248 172 201 222 m 926 810 l 320 117 q 523 68 410 68 q 771 133 656 68 q 951 313 886 198 q 1017 562 1017 428 q 926 810 1017 709 z "},"∞":{"ha":990,"x_min":103,"x_max":887,"o":"m 466 551 q 592 679 545 650 q 692 708 639 708 q 827 655 766 708 q 887 490 887 602 q 830 320 887 376 q 692 263 773 263 q 586 296 633 263 q 466 420 538 330 q 270 304 374 304 q 152 357 201 304 q 103 486 103 410 q 152 614 103 562 q 270 667 201 667 q 466 551 374 667 m 513 486 q 616 364 569 399 q 690 338 650 338 q 777 377 743 338 q 812 484 812 415 q 777 593 812 555 q 688 631 741 631 q 617 607 652 631 q 513 486 583 582 m 419 486 q 334 572 367 551 q 270 592 301 592 q 204 564 230 592 q 178 488 178 536 q 205 411 178 440 q 271 382 232 382 q 419 486 340 382 z "},"±":{"ha":762,"x_min":38,"x_max":724,"o":"m 334 619 l 334 913 l 427 913 l 427 619 l 724 619 l 724 526 l 427 526 l 427 232 l 334 232 l 334 526 l 38 526 l 38 619 l 334 619 m 724 109 l 724 16 l 38 16 l 38 109 l 724 109 z "},"≤":{"ha":762,"x_min":31,"x_max":732,"o":"m 732 326 l 732 227 l 31 545 l 31 633 l 732 953 l 732 853 l 163 589 l 732 326 m 732 157 l 732 64 l 31 64 l 31 157 l 732 157 z "},"≥":{"ha":762,"x_min":31,"x_max":732,"o":"m 31 326 l 600 589 l 31 853 l 31 953 l 732 633 l 732 545 l 31 227 l 31 326 m 732 157 l 732 64 l 31 64 l 31 157 l 732 157 z "},"¥":{"ha":770,"x_min":31,"x_max":766,"o":"m 98 998 l 202 998 l 374 589 l 652 998 l 766 998 l 416 478 l 665 478 l 653 400 l 405 400 l 390 295 l 638 295 l 627 216 l 378 216 l 348 0 l 250 0 l 280 216 l 31 216 l 41 295 l 292 295 l 306 400 l 56 400 l 66 478 l 316 478 l 98 998 z "},"µ":{"ha":800,"x_min":-16,"x_max":722,"o":"m -16 -270 l 122 738 l 217 738 l 162 349 q 155 260 155 293 q 205 134 155 182 q 336 86 256 86 q 460 126 403 86 q 544 224 517 166 q 574 360 561 261 l 627 738 l 722 738 l 621 0 l 526 0 l 536 80 q 435 6 489 30 q 319 -17 382 -17 q 207 6 254 -17 q 126 78 159 30 l 79 -270 l -16 -270 z "},"∂":{"ha":686,"x_min":38,"x_max":660,"o":"m 289 772 l 197 812 q 308 962 243 913 q 441 1011 374 1011 q 551 973 501 1011 q 631 850 602 935 q 660 628 660 765 q 601 279 660 428 q 444 57 541 130 q 247 -17 346 -17 q 96 45 153 -17 q 38 218 38 108 q 149 488 38 378 q 582 627 284 621 q 562 814 579 756 q 513 898 545 872 q 443 924 481 924 q 289 772 346 924 m 579 540 q 336 493 411 530 q 210 374 260 456 q 160 205 160 292 q 195 113 160 149 q 275 76 229 76 q 401 125 334 76 q 516 277 469 175 q 579 540 563 380 z "},"∑":{"ha":990,"x_min":83,"x_max":940,"o":"m 94 1042 l 933 1042 l 933 930 l 263 930 l 675 391 l 237 -180 l 940 -180 l 940 -289 l 83 -289 l 83 -162 l 503 386 l 94 922 l 94 1042 z "},"∏":{"ha":1143,"x_min":110,"x_max":1034,"o":"m 110 1023 l 1034 1023 l 1034 -270 l 904 -270 l 904 905 l 241 905 l 241 -270 l 110 -270 l 110 1023 z "},"":{"ha":762,"x_min":0,"x_max":835,"o":"m 85 620 l 115 721 l 835 721 l 802 619 l 721 619 l 530 0 l 394 0 l 584 619 l 328 620 l 138 0 l 0 0 l 191 620 l 85 620 z "},"∫":{"ha":380,"x_min":0,"x_max":380,"o":"m 136 643 q 147 981 136 785 q 184 1179 154 1106 q 232 1242 201 1220 q 295 1263 264 1263 q 354 1241 328 1263 q 380 1191 380 1219 q 362 1140 380 1160 q 317 1120 344 1120 q 266 1145 294 1120 q 239 1158 250 1158 q 219 1148 227 1158 q 212 1115 212 1139 q 218 1017 212 1086 q 243 566 243 739 q 233 181 243 520 q 176 -97 227 -26 q 80 -149 138 -149 q 22 -126 45 -149 q 0 -67 0 -103 q 17 -19 0 -37 q 61 0 35 0 q 109 -22 88 0 q 141 -43 127 -43 q 160 -34 153 -43 q 168 -2 168 -24 q 161 79 168 26 q 136 643 136 294 z "},"ª":{"ha":513,"x_min":47,"x_max":492,"o":"m 426 549 l 347 549 l 355 604 q 286 552 316 566 q 220 538 255 538 q 97 597 147 538 q 47 755 47 656 q 112 946 47 870 q 258 1023 176 1023 q 325 1007 294 1023 q 403 941 355 991 l 412 1011 l 492 1011 l 426 549 m 240 610 q 345 663 302 610 q 388 805 388 716 q 355 912 388 873 q 272 951 321 951 q 169 897 214 951 q 124 757 124 842 q 157 649 124 688 q 240 610 191 610 z "},"º":{"ha":513,"x_min":45,"x_max":478,"o":"m 285 1023 q 422 962 366 1023 q 478 802 478 901 q 409 613 478 687 q 239 538 340 538 q 101 598 157 538 q 45 755 45 659 q 116 946 45 870 q 285 1023 186 1023 m 282 950 q 203 926 241 950 q 144 858 165 902 q 123 758 123 813 q 158 650 123 690 q 247 610 193 610 q 359 666 317 610 q 402 802 402 723 q 368 910 402 871 q 282 950 333 950 z "},"Ω":{"ha":1067,"x_min":0,"x_max":1031,"o":"m 34 112 l 99 112 q 286 106 131 112 q 168 246 208 163 q 127 426 127 329 q 208 727 127 576 q 404 949 288 878 q 667 1019 519 1019 q 934 918 837 1019 q 1031 640 1031 817 q 975 393 1031 507 q 825 200 920 278 q 654 102 766 151 q 811 111 770 111 l 890 111 l 857 0 l 488 0 l 517 116 q 681 208 621 160 q 837 400 782 288 q 892 642 892 513 q 831 844 892 776 q 661 912 770 912 q 470 854 553 912 q 322 658 387 796 q 257 384 257 519 q 391 115 257 205 l 360 0 l 0 0 l 34 112 z "},"æ":{"ha":1607,"x_min":39,"x_max":1501,"o":"m 779 738 l 864 738 l 849 617 q 989 722 911 687 q 1157 757 1067 757 q 1404 662 1308 757 q 1501 415 1501 566 q 1495 350 1501 385 l 827 350 l 825 318 q 860 192 825 252 q 954 100 895 132 q 1093 68 1014 68 q 1348 186 1244 68 l 1421 133 q 1083 -19 1299 -19 q 905 19 977 -19 q 783 136 833 58 l 765 0 l 681 0 l 695 115 q 550 13 625 45 q 385 -19 475 -19 q 140 75 230 -19 q 39 334 39 179 q 164 632 39 507 q 460 757 290 757 q 647 709 569 757 q 759 589 705 673 l 779 738 m 463 669 q 214 555 309 669 q 132 330 132 458 q 206 141 132 214 q 402 69 280 69 q 570 113 493 69 q 691 235 647 156 q 736 399 736 314 q 700 536 736 472 q 603 635 664 601 q 463 669 543 669 m 1411 431 q 1342 600 1408 532 q 1158 668 1276 668 q 962 605 1046 668 q 844 431 878 541 l 1411 431 z "},"ø":{"ha":907,"x_min":37,"x_max":813,"o":"m 726 631 q 800 404 800 534 q 744 189 800 288 q 592 35 688 90 q 378 -19 497 -19 q 199 26 272 -19 l 111 -75 l 43 -16 l 129 83 q 37 326 37 182 q 93 543 37 444 q 246 700 149 642 q 454 757 344 757 q 661 694 575 757 l 743 789 l 813 732 l 726 631 m 191 155 l 601 625 q 452 667 536 667 q 291 622 368 667 q 172 500 214 577 q 131 332 131 424 q 191 155 131 228 m 665 561 l 262 98 q 389 69 319 69 q 550 112 477 69 q 665 234 622 154 q 707 405 707 314 q 665 561 707 492 z "},"¿":{"ha":821,"x_min":57,"x_max":634,"o":"m 439 606 q 380 630 405 606 q 356 689 356 654 q 380 747 356 723 q 439 772 405 772 q 498 747 473 772 q 522 689 522 723 q 498 631 522 655 q 439 606 473 606 m 542 7 l 634 7 q 532 -214 618 -139 q 315 -289 446 -289 q 128 -227 199 -289 q 57 -75 57 -165 q 89 43 57 -7 q 184 129 121 94 q 341 190 214 146 q 487 265 448 227 q 525 342 525 302 q 491 402 525 376 q 401 429 456 429 q 289 392 332 429 q 233 280 245 355 l 140 280 q 218 456 150 393 q 401 519 286 519 q 557 466 499 519 q 616 336 616 412 q 564 210 616 262 q 317 86 511 156 q 193 26 222 52 q 151 -71 151 -10 q 195 -163 151 -128 q 324 -197 239 -197 q 542 7 516 -197 z "},"¡":{"ha":410,"x_min":40,"x_max":292,"o":"m 209 588 q 151 612 175 588 q 126 670 126 636 q 151 729 126 705 q 209 753 175 753 q 268 729 243 753 q 292 670 292 705 q 268 612 292 636 q 209 588 243 588 m 134 -289 l 40 -289 l 142 485 l 237 485 l 134 -289 z "},"¬":{"ha":842,"x_min":78,"x_max":764,"o":"m 764 694 l 764 303 l 671 303 l 671 602 l 78 602 l 78 694 l 764 694 z "},"√":{"ha":762,"x_min":55,"x_max":760,"o":"m 710 1267 l 760 1267 l 549 -53 l 212 640 l 78 578 l 55 621 l 259 724 l 534 165 l 710 1267 z "},"ƒ":{"ha":770,"x_min":5,"x_max":623,"o":"m 405 598 l 562 598 l 550 515 l 392 515 l 319 34 q 269 -163 300 -99 q 194 -258 239 -228 q 102 -289 150 -289 q 5 -256 56 -289 l 18 -172 q 93 -202 55 -202 q 176 -153 141 -202 q 233 48 211 -103 l 301 515 l 205 515 l 217 598 l 313 598 l 346 814 q 390 977 365 939 q 503 1042 435 1042 q 623 998 559 1042 l 610 907 q 516 957 558 957 q 465 926 483 957 q 433 798 447 895 l 405 598 z "},"≈":{"ha":762,"x_min":37,"x_max":726,"o":"m 726 694 l 726 584 q 617 530 650 541 q 555 519 584 519 q 375 571 490 519 q 261 620 286 612 q 214 627 236 627 q 149 614 184 627 q 37 556 113 602 l 37 665 q 144 719 111 707 q 209 730 178 730 q 391 675 275 730 q 500 628 471 637 q 553 618 530 618 q 611 630 582 618 q 726 694 640 641 m 726 441 l 726 332 q 617 278 650 289 q 555 267 584 267 q 375 319 490 267 q 261 367 286 359 q 214 375 236 375 q 149 362 184 375 q 37 304 113 349 l 37 412 q 144 466 111 454 q 209 477 178 477 q 391 422 275 477 q 500 375 471 385 q 553 366 530 366 q 611 377 582 366 q 726 441 640 389 z "},"∆":{"ha":850,"x_min":18,"x_max":831,"o":"m 831 0 l 18 0 l 444 941 l 831 0 m 671 56 l 401 711 l 102 56 l 671 56 z "},"«":{"ha":590,"x_min":-1,"x_max":613,"o":"m 198 738 l 301 738 l 96 365 l 193 0 l 100 0 l -1 378 l 198 738 m 510 738 l 613 738 l 408 365 l 505 0 l 412 0 l 311 378 l 510 738 z "},"»":{"ha":590,"x_min":-54,"x_max":560,"o":"m 361 0 l 258 0 l 463 373 l 368 738 l 459 738 l 560 360 l 361 0 m 50 0 l -54 0 l 151 373 l 56 738 l 147 738 l 248 360 l 50 0 z "},"…":{"ha":1389,"x_min":149,"x_max":1240,"o":"m 694 146 q 753 122 729 146 q 777 64 777 98 q 753 5 777 30 q 694 -19 729 -19 q 636 5 660 -19 q 612 64 612 30 q 636 122 612 98 q 694 146 660 146 m 231 146 q 290 122 266 146 q 314 64 314 98 q 290 5 314 30 q 231 -19 266 -19 q 173 5 197 -19 q 149 64 149 30 q 173 122 149 98 q 231 146 197 146 m 1158 146 q 1216 122 1192 146 q 1240 64 1240 98 q 1216 5 1240 30 q 1158 -19 1192 -19 q 1099 5 1123 -19 q 1074 64 1074 30 q 1099 122 1074 98 q 1158 146 1123 146 z "}," ":{"ha":389,"x_min":0,"x_max":0,"o":""},"À":{"ha":1027,"x_min":-20,"x_max":912,"o":"m 578 998 l 912 0 l 810 0 l 701 326 l 278 326 l 92 0 l -20 0 l 555 998 l 578 998 m 546 789 l 333 421 l 669 421 l 546 789 m 543 1285 l 662 1076 l 568 1076 l 397 1285 l 543 1285 z "},"Ã":{"ha":1027,"x_min":-20,"x_max":912,"o":"m 578 998 l 912 0 l 810 0 l 701 326 l 278 326 l 92 0 l -20 0 l 555 998 l 578 998 m 546 789 l 333 421 l 669 421 l 546 789 m 775 1213 l 814 1147 q 724 1100 760 1112 q 652 1088 688 1088 q 555 1113 603 1088 q 503 1138 514 1135 q 469 1143 486 1143 q 421 1134 444 1143 q 354 1096 399 1126 l 319 1165 q 480 1231 390 1231 q 581 1204 524 1231 q 666 1177 635 1177 q 775 1213 705 1177 z "},"Õ":{"ha":1207,"x_min":50,"x_max":1118,"o":"m 648 1023 q 984 890 850 1023 q 1118 556 1118 758 q 948 142 1118 310 q 524 -25 778 -25 q 179 104 309 -25 q 50 441 50 233 q 127 736 50 602 q 342 946 205 870 q 648 1023 479 1023 m 646 928 q 391 866 503 928 q 213 689 279 804 q 148 445 148 574 q 195 248 148 335 q 327 115 243 161 q 524 68 410 68 q 772 133 658 68 q 952 313 887 198 q 1018 562 1018 428 q 894 842 1018 739 q 646 928 791 928 m 865 1213 l 904 1147 q 814 1100 850 1112 q 742 1088 779 1088 q 645 1113 693 1088 q 593 1138 604 1135 q 559 1143 576 1143 q 511 1134 534 1143 q 444 1096 489 1126 l 409 1165 q 570 1231 480 1231 q 671 1204 614 1231 q 756 1177 725 1177 q 865 1213 795 1177 z "},"Œ":{"ha":1658,"x_min":53,"x_max":1628,"o":"m 1080 998 l 1628 998 l 1616 901 l 1166 901 l 1122 574 l 1572 574 l 1560 478 l 1109 478 l 1059 96 l 1509 96 l 1495 0 l 946 0 l 968 162 q 766 20 875 65 q 525 -25 658 -25 q 161 127 292 -25 q 53 446 53 255 q 221 855 53 688 q 634 1023 390 1023 q 883 965 778 1023 q 1053 791 988 907 l 1080 998 m 631 928 q 417 873 535 928 q 225 704 300 819 q 151 441 151 589 q 257 169 151 275 q 526 63 364 63 q 771 130 654 63 q 953 310 887 196 q 1019 552 1019 424 q 971 747 1019 663 q 834 879 924 831 q 631 928 745 928 z "},"œ":{"ha":1579,"x_min":43,"x_max":1466,"o":"m 1461 351 l 804 351 q 802 312 802 325 q 874 138 802 208 q 1060 68 945 68 q 1314 189 1214 68 l 1385 132 q 1244 21 1329 60 q 1057 -19 1160 -19 q 869 28 946 -19 q 742 172 792 75 q 591 30 670 71 q 383 -19 497 -19 q 136 77 229 -19 q 43 327 43 173 q 100 543 43 441 q 252 701 157 645 q 459 757 347 757 q 653 704 570 757 q 776 557 736 651 q 937 707 845 658 q 1137 757 1029 757 q 1375 663 1283 757 q 1466 416 1466 569 q 1461 351 1466 385 m 463 667 q 231 571 324 667 q 138 327 138 475 q 208 138 138 206 q 394 69 277 69 q 622 166 528 69 q 715 406 715 262 q 645 596 715 524 q 463 667 574 667 m 1375 431 q 1306 599 1374 531 q 1138 667 1238 667 q 934 599 1023 667 q 820 431 844 532 l 1375 431 z "},"–":{"ha":694,"x_min":-8,"x_max":703,"o":"m -8 432 l 703 432 l 703 345 l -8 345 l -8 432 z "},"—":{"ha":1389,"x_min":-8,"x_max":1397,"o":"m -8 432 l 1397 432 l 1397 345 l -8 345 l -8 432 z "},"“":{"ha":697,"x_min":130,"x_max":585,"o":"m 536 1023 l 585 993 q 536 904 547 931 q 515 837 524 877 l 575 837 l 549 649 l 429 649 l 438 732 q 470 899 448 838 q 536 1023 492 960 m 237 1023 l 286 993 q 237 904 248 931 q 216 837 225 877 l 276 837 l 250 649 l 130 649 l 139 732 q 171 899 149 838 q 237 1023 193 960 z "},"”":{"ha":672,"x_min":117,"x_max":572,"o":"m 166 649 l 117 679 q 166 768 155 741 q 186 835 178 795 l 127 835 l 153 1023 l 273 1023 l 264 939 q 232 773 253 833 q 166 649 210 712 m 465 649 l 416 679 q 465 768 454 741 q 486 835 477 795 l 426 835 l 452 1023 l 572 1023 l 563 939 q 531 773 552 833 q 465 649 509 712 z "},"‘":{"ha":488,"x_min":195,"x_max":350,"o":"m 301 1023 l 350 993 q 301 904 313 931 q 281 837 290 877 l 340 837 l 314 649 l 195 649 l 203 732 q 235 899 214 838 q 301 1023 257 960 z "},"’":{"ha":488,"x_min":195,"x_max":350,"o":"m 243 649 l 195 679 q 243 768 232 741 q 264 835 255 795 l 204 835 l 230 1023 l 350 1023 l 341 939 q 309 773 330 833 q 243 649 288 712 z "},"÷":{"ha":762,"x_min":38,"x_max":724,"o":"m 313 819 l 449 819 l 449 682 l 313 682 l 313 819 m 38 545 l 724 545 l 724 452 l 38 452 l 38 545 m 313 316 l 449 316 l 449 177 l 313 177 l 313 316 z "},"◊":{"ha":686,"x_min":32,"x_max":656,"o":"m 372 964 l 656 481 l 372 0 l 297 0 l 32 481 l 297 964 l 372 964 m 336 899 l 105 481 l 336 64 l 579 481 l 336 899 z "},"ÿ":{"ha":745,"x_min":32,"x_max":742,"o":"m 32 738 l 130 738 l 321 193 l 637 738 l 742 738 l 157 -270 l 51 -270 l 260 90 l 32 738 m 305 1029 q 354 1010 334 1029 q 374 962 374 990 q 346 899 374 926 q 282 872 319 872 q 234 891 254 872 q 215 940 215 911 q 242 1002 215 975 q 305 1029 269 1029 m 582 1029 q 631 1010 612 1029 q 650 962 650 990 q 623 899 650 926 q 559 872 595 872 q 511 891 530 872 q 492 940 492 911 q 519 1002 492 975 q 582 1029 546 1029 z "},"Ÿ":{"ha":822,"x_min":56,"x_max":855,"o":"m 56 998 l 161 998 l 374 545 l 734 998 l 855 998 l 413 442 l 353 0 l 255 0 l 315 448 l 56 998 m 344 1232 q 393 1212 373 1232 q 412 1164 412 1192 q 385 1101 412 1128 q 321 1074 357 1074 q 273 1094 292 1074 q 254 1142 254 1113 q 281 1204 254 1177 q 344 1232 308 1232 m 621 1232 q 670 1212 650 1232 q 689 1164 689 1192 q 662 1101 689 1128 q 598 1074 634 1074 q 550 1094 569 1074 q 530 1142 530 1113 q 557 1204 530 1177 q 621 1232 585 1232 z "},"⁄":{"ha":231,"x_min":-267,"x_max":441,"o":"m -267 -25 l 365 1023 l 441 1023 l -192 -25 l -267 -25 z "},"∕":{"ha":231,"x_min":-267,"x_max":441,"o":"m -267 -25 l 365 1023 l 441 1023 l -192 -25 l -267 -25 z "},"€":{"ha":770,"x_min":-24,"x_max":789,"o":"m 103 654 q 326 926 173 829 q 684 1022 478 1022 q 789 1013 735 1022 l 750 917 q 679 925 718 925 q 403 856 523 925 q 214 654 283 786 l 659 654 l 619 561 l 180 561 q 167 443 167 513 l 571 443 l 533 350 l 179 350 q 316 145 205 222 q 574 69 427 69 q 673 79 629 69 l 661 -16 q 578 -24 621 -24 q 244 76 381 -24 q 75 350 107 176 l -24 350 l 12 443 l 64 443 q 77 561 69 536 l 5 561 l 45 654 l 103 654 z "},"‹":{"ha":349,"x_min":22,"x_max":324,"o":"m 221 738 l 324 738 l 119 365 l 216 0 l 123 0 l 22 378 l 221 738 z "},"›":{"ha":349,"x_min":-2,"x_max":300,"o":"m 101 0 l -2 0 l 203 373 l 107 738 l 199 738 l 300 360 l 101 0 z "},"":{"ha":676,"x_min":58,"x_max":610,"o":"m 414 738 l 403 656 l 250 656 l 157 0 l 62 0 l 153 656 l 58 656 l 70 738 l 168 738 l 178 810 q 255 985 194 928 q 413 1042 316 1042 q 550 994 498 1042 q 610 858 602 946 l 513 858 q 410 951 499 951 q 318 919 351 951 q 273 804 286 887 l 262 738 l 414 738 m 593 738 l 487 0 l 393 0 l 498 738 l 593 738 z "},"ﬁ":{"ha":676,"x_min":58,"x_max":610,"o":"m 414 738 l 403 656 l 250 656 l 157 0 l 62 0 l 153 656 l 58 656 l 70 738 l 168 738 l 178 810 q 255 985 194 928 q 413 1042 316 1042 q 550 994 498 1042 q 610 858 602 946 l 513 858 q 410 951 499 951 q 318 919 351 951 q 273 804 286 887 l 262 738 l 414 738 m 593 738 l 487 0 l 393 0 l 498 738 l 593 738 z "},"":{"ha":673,"x_min":58,"x_max":600,"o":"m 417 738 l 404 655 l 253 655 l 159 0 l 68 0 l 159 655 l 58 655 l 68 738 l 170 738 q 217 927 189 872 q 293 1012 245 983 q 405 1042 342 1042 q 547 987 493 1042 q 600 840 600 933 q 593 747 600 798 l 490 0 l 393 0 l 502 771 q 508 841 508 814 q 480 920 508 892 q 401 948 452 948 q 316 914 349 948 q 273 795 284 880 l 265 738 l 417 738 z "},"ﬂ":{"ha":673,"x_min":58,"x_max":600,"o":"m 417 738 l 404 655 l 253 655 l 159 0 l 68 0 l 159 655 l 58 655 l 68 738 l 170 738 q 217 927 189 872 q 293 1012 245 983 q 405 1042 342 1042 q 547 987 493 1042 q 600 840 600 933 q 593 747 600 798 l 490 0 l 393 0 l 502 771 q 508 841 508 814 q 480 920 508 892 q 401 948 452 948 q 316 914 349 948 q 273 795 284 880 l 265 738 l 417 738 z "},"‡":{"ha":768,"x_min":24,"x_max":687,"o":"m 391 1023 l 492 1023 l 442 783 l 687 798 l 673 698 l 433 716 l 405 405 l 346 98 l 591 112 l 576 12 l 336 31 l 318 -213 l 218 -213 l 269 31 l 24 12 l 38 112 l 278 98 l 304 405 l 365 716 l 120 698 l 134 798 l 374 783 l 391 1023 z "},"∙":{"ha":385,"x_min":89,"x_max":254,"o":"m 172 581 q 230 557 206 581 q 254 499 254 533 q 230 440 254 465 q 172 416 206 416 q 113 440 137 416 q 89 499 89 465 q 113 557 89 533 q 172 581 137 581 z "},"‚":{"ha":492,"x_min":108,"x_max":263,"o":"m 157 -186 l 108 -156 q 157 -67 145 -94 q 177 0 168 -40 l 117 0 l 143 188 l 263 188 l 254 104 q 222 -62 243 -1 q 157 -186 201 -123 z "},"„":{"ha":697,"x_min":61,"x_max":515,"o":"m 110 -186 l 61 -156 q 110 -67 98 -94 q 130 0 121 -40 l 71 0 l 96 188 l 216 188 l 208 104 q 175 -62 197 -1 q 110 -186 154 -123 m 409 -186 l 360 -156 q 409 -67 397 -94 q 429 0 420 -40 l 370 0 l 395 188 l 515 188 l 507 104 q 474 -62 496 -1 q 409 -186 453 -123 z "},"‰":{"ha":1630,"x_min":47,"x_max":1552,"o":"m 1013 1042 l 126 -69 l 47 -69 l 863 955 q 736 932 802 940 q 600 925 671 925 q 514 928 566 925 q 547 817 547 876 q 471 627 547 703 q 281 550 395 550 q 131 608 189 550 q 73 755 73 666 q 154 945 73 867 q 333 1023 235 1023 q 416 1011 359 1023 q 600 989 524 989 q 769 1002 684 989 q 942 1042 854 1015 l 1013 1042 m 335 949 q 208 893 262 949 q 154 763 154 838 q 192 662 154 702 q 289 622 230 622 q 416 680 367 622 q 466 814 466 738 q 429 911 466 873 q 335 949 392 949 m 806 447 q 955 388 894 447 q 1015 241 1015 328 q 943 56 1015 136 q 749 -25 871 -25 q 599 33 657 -25 q 541 180 541 91 q 621 367 541 288 q 806 447 700 447 m 803 374 q 676 318 730 374 q 622 187 622 262 q 660 86 622 126 q 757 46 699 46 q 885 104 836 46 q 935 238 935 162 q 897 335 935 297 q 803 374 860 374 m 1343 447 q 1492 388 1431 447 q 1552 241 1552 328 q 1480 56 1552 136 q 1286 -25 1409 -25 q 1136 33 1194 -25 q 1078 180 1078 91 q 1158 367 1078 288 q 1343 447 1237 447 m 1341 374 q 1213 318 1267 374 q 1159 187 1159 262 q 1197 86 1159 126 q 1295 46 1236 46 q 1422 104 1373 46 q 1472 238 1472 162 q 1434 335 1472 297 q 1341 374 1397 374 z "},"Â":{"ha":1027,"x_min":-20,"x_max":912,"o":"m 578 998 l 912 0 l 810 0 l 701 326 l 278 326 l 92 0 l -20 0 l 555 998 l 578 998 m 546 789 l 333 421 l 669 421 l 546 789 m 542 1248 l 636 1248 l 808 1074 l 686 1074 l 581 1177 l 442 1074 l 316 1074 l 542 1248 z "},"Ê":{"ha":745,"x_min":33,"x_max":716,"o":"m 716 998 l 702 901 l 253 901 l 209 574 l 658 574 l 645 478 l 196 478 l 145 96 l 594 96 l 583 0 l 33 0 l 166 998 l 716 998 m 425 1248 l 519 1248 l 692 1074 l 570 1074 l 465 1177 l 326 1074 l 199 1074 l 425 1248 z "},"Á":{"ha":1027,"x_min":-20,"x_max":912,"o":"m 578 998 l 912 0 l 810 0 l 701 326 l 278 326 l 92 0 l -20 0 l 555 998 l 578 998 m 546 789 l 333 421 l 669 421 l 546 789 m 647 1285 l 793 1285 l 563 1076 l 469 1076 l 647 1285 z "},"Ë":{"ha":745,"x_min":33,"x_max":716,"o":"m 716 998 l 702 901 l 253 901 l 209 574 l 658 574 l 645 478 l 196 478 l 145 96 l 594 96 l 583 0 l 33 0 l 166 998 l 716 998 m 329 1232 q 378 1212 358 1232 q 397 1164 397 1192 q 370 1101 397 1128 q 306 1074 342 1074 q 258 1094 277 1074 q 239 1142 239 1113 q 266 1204 239 1177 q 329 1232 293 1232 m 606 1232 q 655 1212 635 1232 q 674 1164 674 1192 q 647 1101 674 1128 q 583 1074 619 1074 q 535 1094 554 1074 q 515 1142 515 1113 q 543 1204 515 1177 q 606 1232 570 1232 z "},"È":{"ha":745,"x_min":33,"x_max":716,"o":"m 716 998 l 702 901 l 253 901 l 209 574 l 658 574 l 645 478 l 196 478 l 145 96 l 594 96 l 583 0 l 33 0 l 166 998 l 716 998 m 426 1285 l 545 1076 l 451 1076 l 280 1285 l 426 1285 z "},"Í":{"ha":314,"x_min":26,"x_max":460,"o":"m 161 998 l 262 998 l 127 0 l 26 0 l 161 998 m 315 1285 l 460 1285 l 231 1076 l 137 1076 l 315 1285 z "},"Î":{"ha":314,"x_min":-16,"x_max":477,"o":"m 161 998 l 262 998 l 127 0 l 26 0 l 161 998 m 210 1248 l 304 1248 l 477 1074 l 355 1074 l 250 1177 l 111 1074 l -16 1074 l 210 1248 z "},"Ï":{"ha":314,"x_min":24,"x_max":460,"o":"m 161 998 l 262 998 l 127 0 l 26 0 l 161 998 m 115 1232 q 163 1212 144 1232 q 183 1164 183 1192 q 156 1101 183 1128 q 92 1074 128 1074 q 44 1094 63 1074 q 24 1142 24 1113 q 52 1204 24 1177 q 115 1232 79 1232 m 391 1232 q 440 1212 421 1232 q 460 1164 460 1192 q 432 1101 460 1128 q 369 1074 405 1074 q 320 1094 340 1074 q 301 1142 301 1113 q 328 1204 301 1177 q 391 1232 355 1232 z "},"Ì":{"ha":314,"x_min":26,"x_max":304,"o":"m 161 998 l 262 998 l 127 0 l 26 0 l 161 998 m 186 1285 l 304 1076 l 211 1076 l 40 1285 l 186 1285 z "},"Ó":{"ha":1207,"x_min":50,"x_max":1118,"o":"m 648 1023 q 984 890 850 1023 q 1118 556 1118 758 q 948 142 1118 310 q 524 -25 778 -25 q 179 104 309 -25 q 50 441 50 233 q 127 736 50 602 q 342 946 205 870 q 648 1023 479 1023 m 646 928 q 391 866 503 928 q 213 689 279 804 q 148 445 148 574 q 195 248 148 335 q 327 115 243 161 q 524 68 410 68 q 772 133 658 68 q 952 313 887 198 q 1018 562 1018 428 q 894 842 1018 739 q 646 928 791 928 m 737 1285 l 883 1285 l 653 1076 l 559 1076 l 737 1285 z "},"Ô":{"ha":1207,"x_min":50,"x_max":1118,"o":"m 648 1023 q 984 890 850 1023 q 1118 556 1118 758 q 948 142 1118 310 q 524 -25 778 -25 q 179 104 309 -25 q 50 441 50 233 q 127 736 50 602 q 342 946 205 870 q 648 1023 479 1023 m 646 928 q 391 866 503 928 q 213 689 279 804 q 148 445 148 574 q 195 248 148 335 q 327 115 243 161 q 524 68 410 68 q 772 133 658 68 q 952 313 887 198 q 1018 562 1018 428 q 894 842 1018 739 q 646 928 791 928 m 632 1248 l 726 1248 l 899 1074 l 777 1074 l 671 1177 l 532 1074 l 406 1074 l 632 1248 z "},"":{"ha":1097,"x_min":0,"x_max":0,"o":""},"Ò":{"ha":1207,"x_min":50,"x_max":1118,"o":"m 648 1023 q 984 890 850 1023 q 1118 556 1118 758 q 948 142 1118 310 q 524 -25 778 -25 q 179 104 309 -25 q 50 441 50 233 q 127 736 50 602 q 342 946 205 870 q 648 1023 479 1023 m 646 928 q 391 866 503 928 q 213 689 279 804 q 148 445 148 574 q 195 248 148 335 q 327 115 243 161 q 524 68 410 68 q 772 133 658 68 q 952 313 887 198 q 1018 562 1018 428 q 894 842 1018 739 q 646 928 791 928 m 633 1285 l 752 1076 l 659 1076 l 488 1285 l 633 1285 z "},"Ú":{"ha":909,"x_min":66,"x_max":842,"o":"m 158 998 l 256 998 l 181 427 q 166 264 166 313 q 220 120 166 171 q 371 70 273 70 q 492 93 439 70 q 582 160 545 116 q 635 262 619 204 q 682 515 662 362 l 744 998 l 842 998 l 776 494 l 760 370 q 726 223 745 284 q 674 116 706 163 q 602 39 642 69 q 503 -8 561 9 q 373 -25 445 -25 q 146 50 226 -25 q 66 248 66 124 q 70 325 66 282 l 85 441 l 158 998 m 589 1285 l 734 1285 l 505 1076 l 411 1076 l 589 1285 z "},"Û":{"ha":909,"x_min":66,"x_max":842,"o":"m 158 998 l 256 998 l 181 427 q 166 264 166 313 q 220 120 166 171 q 371 70 273 70 q 492 93 439 70 q 582 160 545 116 q 635 262 619 204 q 682 515 662 362 l 744 998 l 842 998 l 776 494 l 760 370 q 726 223 745 284 q 674 116 706 163 q 602 39 642 69 q 503 -8 561 9 q 373 -25 445 -25 q 146 50 226 -25 q 66 248 66 124 q 70 325 66 282 l 85 441 l 158 998 m 484 1248 l 578 1248 l 750 1074 l 628 1074 l 523 1177 l 384 1074 l 258 1074 l 484 1248 z "},"Ù":{"ha":909,"x_min":66,"x_max":842,"o":"m 158 998 l 256 998 l 181 427 q 166 264 166 313 q 220 120 166 171 q 371 70 273 70 q 492 93 439 70 q 582 160 545 116 q 635 262 619 204 q 682 515 662 362 l 744 998 l 842 998 l 776 494 l 760 370 q 726 223 745 284 q 674 116 706 163 q 602 39 642 69 q 503 -8 561 9 q 373 -25 445 -25 q 146 50 226 -25 q 66 248 66 124 q 70 325 66 282 l 85 441 l 158 998 m 484 1285 l 603 1076 l 509 1076 l 338 1285 l 484 1285 z "},"ı":{"ha":278,"x_min":9,"x_max":201,"o":"m 111 738 l 201 738 l 103 0 l 9 0 l 111 738 z "},"ˆ":{"ha":697,"x_min":151,"x_max":644,"o":"m 377 1046 l 471 1046 l 644 871 l 522 871 l 416 975 l 277 871 l 151 871 l 377 1046 z "},"˜":{"ha":610,"x_min":110,"x_max":605,"o":"m 566 1012 l 605 946 q 515 899 551 911 q 443 886 479 886 q 346 911 394 886 q 294 937 305 933 q 260 941 277 941 q 212 933 235 941 q 145 895 190 924 l 110 964 q 271 1029 181 1029 q 372 1002 315 1029 q 457 976 426 976 q 566 1012 496 976 z "},"ˉ":{"ha":673,"x_min":159,"x_max":638,"o":"m 170 1003 l 638 1003 l 627 922 l 159 922 l 170 1003 z "},"˘":{"ha":629,"x_min":146,"x_max":627,"o":"m 146 1034 l 235 1034 q 377 964 271 964 q 469 979 433 964 q 540 1034 505 994 l 627 1034 q 535 932 603 973 q 368 891 468 891 q 211 932 268 891 q 146 1034 154 972 z "},"˙":{"ha":309,"x_min":136,"x_max":294,"o":"m 226 1029 q 275 1010 255 1029 q 294 962 294 990 q 267 899 294 926 q 203 872 239 872 q 155 891 174 872 q 136 940 136 911 q 163 1002 136 975 q 226 1029 190 1029 z "},"˚":{"ha":461,"x_min":153,"x_max":446,"o":"m 319 1147 q 410 1111 374 1147 q 446 1022 446 1076 q 395 907 446 957 q 277 857 345 857 q 189 893 224 857 q 153 982 153 929 q 203 1097 153 1047 q 319 1147 254 1147 m 309 1078 q 249 1053 275 1078 q 223 994 223 1027 q 241 947 223 966 q 288 929 260 929 q 348 955 322 929 q 374 1014 374 981 q 355 1060 374 1042 q 309 1078 336 1078 z "},"¸":{"ha":450,"x_min":-29,"x_max":252,"o":"m 121 0 l 180 0 l 157 -80 q 184 -78 174 -78 q 233 -96 214 -78 q 252 -140 252 -113 q 206 -222 252 -187 q 81 -258 160 -258 q -29 -237 21 -258 l -8 -191 q 72 -204 34 -204 q 147 -190 125 -204 q 170 -157 170 -176 q 159 -139 170 -146 q 132 -131 149 -131 q 83 -137 115 -131 l 121 0 z "},"˝":{"ha":766,"x_min":224,"x_max":762,"o":"m 401 1084 l 547 1084 l 317 875 l 224 875 l 401 1084 m 616 1084 l 762 1084 l 532 875 l 438 875 l 616 1084 z "},"˛":{"ha":419,"x_min":109,"x_max":320,"o":"m 211 0 l 285 0 q 184 -138 184 -77 q 205 -187 184 -168 q 273 -205 227 -205 q 320 -202 293 -205 l 306 -260 q 248 -267 277 -267 q 143 -236 177 -267 q 109 -159 109 -205 q 136 -75 109 -119 q 211 0 163 -31 z "},"ˇ":{"ha":697,"x_min":176,"x_max":668,"o":"m 442 871 l 348 871 l 176 1046 l 298 1046 l 403 943 l 542 1046 l 668 1046 l 442 871 z "},"Ł":{"ha":718,"x_min":5,"x_max":617,"o":"m 248 566 l 440 661 l 425 553 l 234 457 l 186 94 l 617 94 l 606 0 l 74 0 l 127 404 l 5 342 l 20 452 l 142 512 l 205 998 l 306 998 l 248 566 z "},"ł":{"ha":416,"x_min":7,"x_max":410,"o":"m 258 620 l 410 706 l 395 597 l 243 511 l 172 0 l 79 0 l 142 454 l 7 377 l 22 485 l 157 562 l 222 1023 l 315 1023 l 258 620 z "},"Š":{"ha":692,"x_min":10,"x_max":665,"o":"m 629 813 l 534 789 q 472 889 515 852 q 378 926 429 926 q 288 888 323 926 q 253 787 253 850 q 290 671 253 732 q 401 553 313 633 q 529 399 493 471 q 566 259 566 328 q 526 119 566 186 q 419 14 486 52 q 277 -25 352 -25 q 111 36 181 -25 q 10 215 41 97 l 102 246 q 173 113 124 157 q 286 70 222 70 q 410 123 358 70 q 463 256 463 177 q 433 368 463 313 q 317 500 404 423 q 197 629 225 585 q 152 787 152 704 q 219 956 152 889 q 385 1023 286 1023 q 533 970 468 1023 q 629 813 598 917 m 439 1074 l 345 1074 l 173 1248 l 295 1248 l 400 1145 l 539 1248 l 665 1248 l 439 1074 z "},"š":{"ha":539,"x_min":-24,"x_max":589,"o":"m 471 655 l 419 578 q 271 667 357 667 q 188 635 222 667 q 153 565 153 604 q 174 508 153 535 q 267 434 195 481 q 407 315 373 366 q 440 196 440 263 q 375 42 440 103 q 207 -19 311 -19 q -24 102 70 -19 l 34 170 q 212 70 116 70 q 308 109 267 70 q 349 198 349 147 q 318 277 349 239 q 212 360 298 302 q 90 466 119 424 q 61 559 61 507 q 123 699 61 642 q 279 757 184 757 q 379 734 334 757 q 471 655 425 712 m 363 871 l 269 871 l 96 1046 l 218 1046 l 323 943 l 463 1046 l 589 1046 l 363 871 z "},"Ž":{"ha":667,"x_min":9,"x_max":660,"o":"m 147 998 l 660 998 l 170 95 l 544 95 l 531 0 l 9 0 l 500 901 l 134 901 l 147 998 m 427 1074 l 332 1074 l 160 1248 l 282 1248 l 387 1145 l 526 1248 l 652 1248 l 427 1074 z "},"ž":{"ha":590,"x_min":-39,"x_max":615,"o":"m 62 738 l 570 738 l 129 84 l 530 84 l 519 0 l -39 0 l 404 654 l 52 654 l 62 738 m 389 871 l 295 871 l 123 1046 l 245 1046 l 350 943 l 489 1046 l 615 1046 l 389 871 z "},"¦":{"ha":933,"x_min":418,"x_max":515,"o":"m 418 465 l 418 1023 l 515 1023 l 515 503 l 418 465 m 418 -270 l 418 379 l 515 416 l 515 -270 l 418 -270 z "},"Ð":{"ha":1097,"x_min":30,"x_max":996,"o":"m 156 454 l 30 454 l 42 543 l 168 543 l 228 998 l 442 998 q 754 944 645 998 q 929 780 863 891 q 996 525 996 668 q 921 243 996 372 q 736 57 846 113 q 410 0 627 0 l 96 0 l 156 454 m 254 454 l 207 97 l 294 97 q 563 108 497 97 q 731 172 663 124 q 849 315 800 220 q 898 523 898 410 q 842 730 898 642 q 691 863 787 819 q 413 901 608 901 l 314 901 l 267 543 l 509 543 l 497 454 l 254 454 z "},"ð":{"ha":909,"x_min":41,"x_max":803,"o":"m 319 1023 l 448 1023 q 537 962 497 996 l 661 1008 l 685 941 l 600 909 q 749 692 696 814 q 803 441 803 570 q 746 206 803 309 q 588 42 690 104 q 376 -19 486 -19 q 207 25 282 -19 q 86 152 132 68 q 41 330 41 235 q 100 536 41 435 q 257 697 159 637 q 455 757 355 757 q 647 686 569 757 q 515 876 596 792 l 360 818 l 334 886 l 454 930 q 319 1023 391 979 m 471 661 q 305 615 385 661 q 179 492 225 570 q 134 330 134 414 q 166 196 134 257 q 255 104 199 136 q 380 72 311 72 q 537 119 458 72 q 660 246 615 166 q 705 416 705 326 q 638 593 705 526 q 471 661 572 661 z "},"Ý":{"ha":822,"x_min":56,"x_max":855,"o":"m 56 998 l 161 998 l 374 545 l 734 998 l 855 998 l 413 442 l 353 0 l 255 0 l 315 448 l 56 998 m 545 1285 l 690 1285 l 460 1076 l 367 1076 l 545 1285 z "},"ý":{"ha":745,"x_min":32,"x_max":742,"o":"m 32 738 l 130 738 l 321 193 l 637 738 l 742 738 l 157 -270 l 51 -270 l 260 90 l 32 738 m 506 1084 l 652 1084 l 422 875 l 328 875 l 506 1084 z "},"Þ":{"ha":822,"x_min":44,"x_max":741,"o":"m 178 998 l 277 998 l 245 762 l 418 762 q 611 736 553 762 q 705 656 669 711 q 741 526 741 602 q 685 354 741 427 q 545 255 629 281 q 327 236 483 236 l 176 236 l 144 0 l 44 0 l 178 998 m 234 665 l 188 334 l 326 334 q 521 353 467 334 q 608 419 575 372 q 641 525 641 467 q 618 605 641 572 q 556 652 595 638 q 412 665 517 665 l 234 665 z "},"þ":{"ha":947,"x_min":4,"x_max":858,"o":"m 176 1023 l 273 1023 l 220 627 q 513 757 349 757 q 761 660 665 757 q 858 410 858 563 q 732 107 858 234 q 437 -19 607 -19 q 275 20 345 -19 q 156 141 205 59 l 102 -270 l 4 -270 l 176 1023 m 503 670 q 337 627 412 670 q 217 503 261 584 q 173 328 173 422 q 246 141 173 213 q 434 69 319 69 q 667 168 570 69 q 764 409 764 266 q 692 598 764 526 q 503 670 620 670 z "},"−":{"ha":842,"x_min":78,"x_max":764,"o":"m 78 545 l 764 545 l 764 452 l 78 452 l 78 545 z "},"×":{"ha":842,"x_min":134,"x_max":708,"o":"m 483 498 l 708 274 l 646 212 l 421 436 l 196 212 l 134 274 l 358 498 l 134 724 l 196 786 l 421 561 l 646 786 l 708 724 l 483 498 z "},"¹":{"ha":461,"x_min":170,"x_max":338,"o":"m 200 1010 l 338 1010 l 256 497 l 182 497 l 253 943 l 170 943 l 200 1010 z "},"²":{"ha":461,"x_min":12,"x_max":452,"o":"m 168 842 l 92 842 q 148 976 97 928 q 285 1023 198 1023 q 406 982 360 1023 q 452 884 452 942 q 429 806 452 844 q 307 676 406 768 l 187 565 l 426 565 l 416 497 l 12 497 l 222 694 q 355 829 334 798 q 376 886 376 859 q 349 936 376 914 q 279 958 322 958 q 200 928 229 958 q 168 842 171 899 z "},"³":{"ha":461,"x_min":36,"x_max":446,"o":"m 186 885 l 110 885 q 138 958 117 930 q 199 1004 159 986 q 284 1023 239 1023 q 401 983 357 1023 q 446 885 446 944 q 427 822 446 848 q 363 772 409 795 q 418 718 403 745 q 433 659 433 692 q 373 536 433 588 q 222 485 314 485 q 95 528 145 485 q 36 647 45 570 l 111 647 q 143 578 119 597 q 224 551 176 551 q 317 585 277 551 q 357 654 357 618 q 322 720 357 695 q 206 745 288 745 l 215 808 l 236 807 q 340 835 298 807 q 370 887 370 856 q 345 935 370 915 q 280 956 319 956 q 217 937 242 956 q 186 885 192 918 z "},"½":{"ha":1154,"x_min":122,"x_max":1042,"o":"m 152 1010 l 290 1010 l 208 497 l 134 497 l 205 943 l 122 943 l 152 1010 m 138 -25 l 770 1023 l 846 1023 l 214 -25 l 138 -25 m 758 345 l 682 345 q 738 478 687 431 q 875 526 788 526 q 996 485 950 526 q 1042 387 1042 445 q 1019 309 1042 347 q 897 179 996 271 l 777 68 l 1016 68 l 1006 0 l 602 0 l 812 197 q 945 332 924 301 q 966 389 966 362 q 939 439 966 417 q 869 460 912 460 q 790 431 819 460 q 758 345 761 401 z "},"¼":{"ha":1154,"x_min":122,"x_max":1034,"o":"m 152 1010 l 290 1010 l 208 497 l 134 497 l 205 943 l 122 943 l 152 1010 m 154 -25 l 786 1023 l 862 1023 l 229 -25 l 154 -25 m 1010 536 l 951 167 l 1034 167 l 1023 99 l 941 99 l 925 -6 l 852 -6 l 868 99 l 599 99 l 1010 536 l 1010 536 m 903 320 l 759 167 l 879 167 l 903 320 z "},"¾":{"ha":1154,"x_min":24,"x_max":1092,"o":"m 174 885 l 98 885 q 126 958 105 930 q 188 1004 148 986 q 273 1023 227 1023 q 390 983 345 1023 q 434 885 434 944 q 416 822 434 848 q 351 772 397 795 q 406 718 391 745 q 421 659 421 692 q 362 536 421 588 q 210 485 302 485 q 84 528 134 485 q 24 647 34 570 l 100 647 q 132 578 107 597 q 213 551 165 551 q 305 585 265 551 q 345 654 345 618 q 311 720 345 695 q 195 745 276 745 l 203 808 l 224 807 q 328 835 287 807 q 359 887 359 856 q 333 935 359 915 q 269 956 308 956 q 205 937 231 956 q 174 885 180 918 m 255 -25 l 887 1023 l 963 1023 l 330 -25 l 255 -25 m 1068 536 l 1009 167 l 1092 167 l 1081 99 l 999 99 l 983 -6 l 909 -6 l 926 99 l 656 99 l 1068 536 l 1068 536 m 961 320 l 817 167 l 937 167 l 961 320 z "},"₣":{"ha":673,"x_min":-57,"x_max":647,"o":"m 169 283 l 339 283 l 326 194 l 157 194 l 130 0 l 32 0 l 58 194 l -57 194 l -44 283 l 70 283 l 166 998 l 647 998 l 635 900 l 252 900 l 208 574 l 591 574 l 579 478 l 195 478 l 169 283 z "},"Ğ":{"ha":1211,"x_min":54,"x_max":1107,"o":"m 1083 783 l 1003 724 q 826 875 928 823 q 618 928 725 928 q 389 864 499 928 q 217 693 279 800 q 154 466 154 587 q 272 185 154 301 q 558 70 389 70 q 752 111 659 70 q 903 221 845 153 q 987 391 960 290 l 621 391 l 621 489 l 1107 489 q 942 117 1092 260 q 570 -25 793 -25 q 197 114 340 -25 q 54 463 54 253 q 130 743 54 613 q 337 948 205 873 q 621 1023 469 1023 q 1083 783 897 1023 m 412 1233 l 502 1233 q 644 1162 538 1162 q 735 1178 699 1162 q 806 1233 771 1193 l 893 1233 q 802 1131 869 1172 q 634 1090 734 1090 q 477 1131 534 1090 q 412 1233 420 1171 z "},"ğ":{"ha":935,"x_min":15,"x_max":848,"o":"m 755 738 l 848 738 l 763 113 q 713 -98 743 -38 q 581 -235 673 -182 q 361 -289 488 -289 q 148 -238 236 -289 q 15 -91 60 -187 l 100 -60 q 361 -201 177 -201 q 529 -161 458 -201 q 630 -60 600 -122 q 667 102 648 -23 l 671 131 q 379 0 551 0 q 134 93 227 0 q 41 336 41 186 q 97 542 41 446 q 253 698 154 639 q 455 757 353 757 q 611 719 541 757 q 736 597 682 680 l 755 738 m 473 667 q 301 622 380 667 q 177 502 221 578 q 134 332 134 426 q 203 157 134 223 q 389 90 272 90 q 623 182 530 90 q 716 415 716 275 q 640 603 716 538 q 473 667 564 667 m 299 1034 l 389 1034 q 530 964 425 964 q 622 979 586 964 q 693 1034 658 994 l 780 1034 q 689 932 756 973 q 521 891 621 891 q 364 932 421 891 q 299 1034 307 972 z "},"İ":{"ha":314,"x_min":26,"x_max":313,"o":"m 161 998 l 262 998 l 127 0 l 26 0 l 161 998 m 244 1228 q 293 1208 273 1228 q 313 1160 313 1189 q 285 1098 313 1125 q 221 1071 258 1071 q 173 1090 193 1071 q 154 1139 154 1109 q 181 1201 154 1174 q 244 1228 208 1228 z "},"Ş":{"ha":692,"x_min":10,"x_max":629,"o":"m 629 813 l 534 789 q 472 889 515 852 q 378 926 429 926 q 288 888 323 926 q 253 787 253 850 q 290 671 253 732 q 401 553 313 633 q 529 399 493 471 q 566 259 566 328 q 526 119 566 186 q 419 14 486 52 q 277 -25 352 -25 q 111 36 181 -25 q 10 215 41 97 l 102 246 q 173 113 124 157 q 286 70 222 70 q 410 123 358 70 q 463 256 463 177 q 433 368 463 313 q 317 500 404 423 q 197 629 225 585 q 152 787 152 704 q 219 956 152 889 q 385 1023 286 1023 q 533 970 468 1023 q 629 813 598 917 m 241 0 l 301 0 l 278 -80 q 304 -78 294 -78 q 354 -96 334 -78 q 373 -140 373 -113 q 327 -222 373 -187 q 201 -258 281 -258 q 92 -237 142 -258 l 113 -191 q 193 -204 155 -204 q 268 -190 245 -204 q 290 -157 290 -176 q 280 -139 290 -146 q 252 -131 270 -131 q 203 -137 236 -131 l 241 0 z "},"ş":{"ha":539,"x_min":-24,"x_max":471,"o":"m 471 655 l 419 578 q 271 667 357 667 q 188 635 222 667 q 153 565 153 604 q 174 508 153 535 q 267 434 195 481 q 407 315 373 366 q 440 196 440 263 q 375 42 440 103 q 207 -19 311 -19 q -24 102 70 -19 l 34 170 q 212 70 116 70 q 308 109 267 70 q 349 198 349 147 q 318 277 349 239 q 212 360 298 302 q 90 466 119 424 q 61 559 61 507 q 123 699 61 642 q 279 757 184 757 q 379 734 334 757 q 471 655 425 712 m 181 0 l 241 0 l 218 -80 q 244 -78 234 -78 q 293 -96 274 -78 q 313 -140 313 -113 q 267 -222 313 -187 q 141 -258 220 -258 q 31 -237 81 -258 l 52 -191 q 132 -204 94 -204 q 208 -190 185 -204 q 230 -157 230 -176 q 220 -139 230 -146 q 192 -131 210 -131 q 143 -137 176 -131 l 181 0 z "},"Ć":{"ha":1129,"x_min":54,"x_max":1069,"o":"m 1069 860 l 1008 777 q 647 926 850 926 q 400 861 515 926 q 220 688 285 797 q 155 453 155 578 q 205 254 155 341 q 349 118 255 168 q 565 69 444 69 q 910 186 750 69 l 966 107 q 762 2 847 29 q 564 -25 676 -25 q 227 79 357 -25 q 54 450 54 218 q 227 856 54 689 q 657 1023 400 1023 q 871 986 774 1023 q 1069 860 967 949 m 723 1282 l 869 1282 l 639 1074 l 545 1074 l 723 1282 z "},"ć":{"ha":899,"x_min":41,"x_max":812,"o":"m 812 578 l 734 533 q 484 666 652 666 q 305 623 386 666 q 179 502 224 579 q 134 336 134 425 q 168 197 134 258 q 263 102 201 135 q 408 68 324 68 q 571 102 493 68 q 692 190 648 136 l 770 135 q 611 18 696 55 q 412 -19 525 -19 q 139 76 237 -19 q 41 330 41 172 q 169 632 41 507 q 484 757 298 757 q 682 710 596 757 q 812 578 767 663 m 583 1084 l 728 1084 l 498 875 l 405 875 l 583 1084 z "},"Č":{"ha":1129,"x_min":54,"x_max":1069,"o":"m 1069 860 l 1008 777 q 647 926 850 926 q 400 861 515 926 q 220 688 285 797 q 155 453 155 578 q 205 254 155 341 q 349 118 255 168 q 565 69 444 69 q 910 186 750 69 l 966 107 q 762 2 847 29 q 564 -25 676 -25 q 227 79 357 -25 q 54 450 54 218 q 227 856 54 689 q 657 1023 400 1023 q 871 986 774 1023 q 1069 860 967 949 m 708 1070 l 614 1070 l 441 1244 l 564 1244 l 669 1141 l 808 1244 l 934 1244 l 708 1070 z "},"č":{"ha":899,"x_min":41,"x_max":812,"o":"m 812 578 l 734 533 q 484 666 652 666 q 305 623 386 666 q 179 502 224 579 q 134 336 134 425 q 168 197 134 258 q 263 102 201 135 q 408 68 324 68 q 571 102 493 68 q 692 190 648 136 l 770 135 q 611 18 696 55 q 412 -19 525 -19 q 139 76 237 -19 q 41 330 41 172 q 169 632 41 507 q 484 757 298 757 q 682 710 596 757 q 812 578 767 663 m 543 871 l 449 871 l 277 1046 l 399 1046 l 504 943 l 643 1046 l 769 1046 l 543 871 z "},"đ":{"ha":951,"x_min":42,"x_max":983,"o":"m 777 845 l 498 845 l 511 935 l 788 935 l 800 1023 l 898 1023 l 886 935 l 983 935 l 971 845 l 874 845 l 762 0 l 666 0 l 680 111 q 387 -19 552 -19 q 139 78 236 -19 q 42 328 42 175 q 168 630 42 504 q 464 757 294 757 q 626 718 556 757 q 745 597 695 680 l 777 845 m 397 68 q 564 111 488 68 q 683 235 639 154 q 727 410 727 315 q 654 597 727 525 q 466 669 582 669 q 233 570 330 669 q 136 329 136 472 q 208 140 136 212 q 397 68 281 68 z "},"¯":{"ha":694,"x_min":49,"x_max":760,"o":"m 49 1143 l 760 1143 l 760 1074 l 49 1074 l 49 1143 z "},"·":{"ha":463,"x_min":317,"x_max":475,"o":"m 407 590 q 456 571 436 590 q 475 522 475 551 q 448 460 475 487 q 384 433 420 433 q 336 452 355 433 q 317 500 317 472 q 344 563 317 536 q 407 590 371 590 z "},"":{"ha":461,"x_min":9,"x_max":444,"o":"m 420 1039 l 361 670 l 444 670 l 433 602 l 351 602 l 335 497 l 262 497 l 278 602 l 9 602 l 420 1039 l 420 1039 m 313 823 l 169 670 l 289 670 l 313 823 z "},"Ă":{"ha":1027,"x_min":-20,"x_max":912,"o":"m 578 998 l 912 0 l 810 0 l 701 326 l 278 326 l 92 0 l -20 0 l 555 998 l 578 998 m 546 789 l 333 421 l 669 421 l 546 789 m 356 1236 l 446 1236 q 587 1165 481 1165 q 679 1180 643 1165 q 750 1236 715 1196 l 837 1236 q 746 1134 813 1175 q 578 1093 678 1093 q 421 1133 478 1093 q 356 1236 364 1174 z "},"ă":{"ha":949,"x_min":41,"x_max":859,"o":"m 760 0 l 665 0 l 679 111 q 385 -19 551 -19 q 138 78 235 -19 q 41 328 41 175 q 166 630 41 504 q 463 757 292 757 q 624 718 555 757 q 743 597 694 680 l 760 738 l 859 738 l 760 0 m 395 68 q 562 111 487 68 q 682 235 637 154 q 726 410 726 315 q 653 597 726 525 q 465 669 581 669 q 231 570 328 669 q 134 329 134 472 q 207 140 134 212 q 395 68 279 68 m 292 1034 l 381 1034 q 523 964 417 964 q 614 979 578 964 q 686 1034 650 994 l 772 1034 q 681 932 749 973 q 513 891 614 891 q 357 932 414 891 q 292 1034 300 972 z "},"Ą":{"ha":1027,"x_min":-20,"x_max":958,"o":"m 578 998 l 912 0 l 810 0 l 701 326 l 278 326 l 92 0 l -20 0 l 555 998 l 578 998 m 546 789 l 333 421 l 669 421 l 546 789 m 848 0 l 922 0 q 821 -138 821 -77 q 843 -187 821 -168 q 910 -205 865 -205 q 958 -202 930 -205 l 943 -260 q 885 -267 914 -267 q 780 -236 814 -267 q 746 -159 746 -205 q 773 -75 746 -119 q 848 0 800 -31 z "},"ą":{"ha":949,"x_min":41,"x_max":859,"o":"m 760 0 l 665 0 l 679 111 q 385 -19 551 -19 q 138 78 235 -19 q 41 328 41 175 q 166 630 41 504 q 463 757 292 757 q 624 718 555 757 q 743 597 694 680 l 760 738 l 859 738 l 760 0 m 395 68 q 562 111 487 68 q 682 235 637 154 q 726 410 726 315 q 653 597 726 525 q 465 669 581 669 q 231 570 328 669 q 134 329 134 472 q 207 140 134 212 q 395 68 279 68 m 669 0 l 743 0 q 642 -138 642 -77 q 663 -187 642 -168 q 730 -205 685 -205 q 778 -202 751 -205 l 764 -260 q 705 -267 734 -267 q 601 -236 635 -267 q 566 -159 566 -205 q 593 -75 566 -119 q 669 0 621 -31 z "},"Ď":{"ha":1034,"x_min":31,"x_max":931,"o":"m 163 998 l 378 998 q 690 944 581 998 q 865 780 798 891 q 931 525 931 668 q 856 243 931 372 q 672 57 781 113 q 345 0 562 0 l 31 0 l 163 998 m 250 901 l 143 97 l 231 97 q 498 108 433 97 q 667 172 599 124 q 785 315 736 220 q 833 523 833 410 q 778 730 833 642 q 627 863 723 819 q 349 901 545 901 l 250 901 m 558 1074 l 464 1074 l 292 1248 l 414 1248 l 519 1145 l 658 1248 l 784 1248 l 558 1074 z "},"ď":{"ha":957,"x_min":42,"x_max":1050,"o":"m 762 0 l 666 0 l 680 111 q 387 -19 552 -19 q 144 73 246 -19 q 42 328 42 165 q 101 545 42 448 q 258 700 160 642 q 464 757 355 757 q 745 597 656 757 l 800 1023 l 898 1023 l 762 0 m 397 68 q 634 167 542 68 q 727 410 727 266 q 652 598 727 528 q 466 669 578 669 q 235 572 334 669 q 136 329 136 475 q 210 138 136 208 q 397 68 285 68 m 960 705 l 919 730 q 977 863 967 808 l 927 863 l 949 1023 l 1050 1023 l 1044 951 q 1015 806 1034 859 q 960 705 996 754 z "},"Đ":{"ha":1097,"x_min":30,"x_max":996,"o":"m 156 454 l 30 454 l 42 543 l 168 543 l 228 998 l 442 998 q 754 944 645 998 q 929 780 863 891 q 996 525 996 668 q 921 243 996 372 q 736 57 846 113 q 410 0 627 0 l 96 0 l 156 454 m 254 454 l 207 97 l 294 97 q 563 108 497 97 q 731 172 663 124 q 849 315 800 220 q 898 523 898 410 q 842 730 898 642 q 691 863 787 819 q 413 901 608 901 l 314 901 l 267 543 l 509 543 l 497 454 l 254 454 z "},"Ę":{"ha":745,"x_min":33,"x_max":716,"o":"m 716 998 l 702 901 l 253 901 l 209 574 l 658 574 l 645 478 l 196 478 l 145 96 l 594 96 l 583 0 l 33 0 l 166 998 l 716 998 m 448 0 l 522 0 q 421 -138 421 -77 q 443 -187 421 -168 q 510 -205 465 -205 q 557 -202 530 -205 l 543 -260 q 485 -267 514 -267 q 380 -236 414 -267 q 346 -159 346 -205 q 373 -75 346 -119 q 448 0 400 -31 z "},"ę":{"ha":903,"x_min":39,"x_max":795,"o":"m 791 350 l 133 350 q 201 143 131 218 q 389 68 272 68 q 534 100 467 68 q 644 189 600 132 l 714 132 q 574 22 661 63 q 387 -19 488 -19 q 126 89 214 -19 q 39 330 39 196 q 98 542 39 440 q 255 700 157 644 q 468 757 353 757 q 703 661 610 757 q 795 416 795 565 q 791 350 795 389 m 704 432 q 633 601 700 536 q 464 666 566 666 q 269 604 353 666 q 149 432 184 541 l 704 432 m 414 0 l 488 0 q 387 -138 387 -77 q 409 -187 387 -168 q 476 -205 431 -205 q 524 -202 496 -205 l 509 -260 q 451 -267 480 -267 q 346 -236 380 -267 q 312 -159 312 -205 q 339 -75 312 -119 q 414 0 366 -31 z "},"Ě":{"ha":745,"x_min":33,"x_max":716,"o":"m 716 998 l 702 901 l 253 901 l 209 574 l 658 574 l 645 478 l 196 478 l 145 96 l 594 96 l 583 0 l 33 0 l 166 998 l 716 998 m 490 1074 l 396 1074 l 224 1248 l 346 1248 l 451 1145 l 590 1248 l 716 1248 l 490 1074 z "},"ě":{"ha":903,"x_min":39,"x_max":795,"o":"m 791 350 l 133 350 q 201 143 131 218 q 389 68 272 68 q 534 100 467 68 q 644 189 600 132 l 714 132 q 574 22 661 63 q 387 -19 488 -19 q 126 89 214 -19 q 39 330 39 196 q 98 542 39 440 q 255 700 157 644 q 468 757 353 757 q 703 661 610 757 q 795 416 795 565 q 791 350 795 389 m 704 432 q 633 601 700 536 q 464 666 566 666 q 269 604 353 666 q 149 432 184 541 l 704 432 m 545 871 l 450 871 l 278 1046 l 400 1046 l 505 943 l 644 1046 l 770 1046 l 545 871 z "},"Ĳ":{"ha":983,"x_min":26,"x_max":873,"o":"m 161 998 l 262 998 l 127 0 l 26 0 l 161 998 m 774 998 l 873 998 l 783 310 q 744 116 766 180 q 667 13 722 52 q 536 -25 612 -25 q 296 95 404 -25 l 374 149 q 538 67 455 67 q 624 105 585 67 q 684 302 663 142 l 774 998 z "},"ĳ":{"ha":559,"x_min":9,"x_max":545,"o":"m 186 1042 q 239 1019 217 1042 q 262 966 262 997 q 239 912 262 934 q 186 890 217 890 q 132 912 155 890 q 110 966 110 935 q 132 1020 110 998 q 186 1042 154 1042 m 469 1042 q 522 1020 499 1042 q 545 966 545 998 q 522 912 545 934 q 469 890 500 890 q 415 912 437 890 q 393 966 393 935 q 415 1020 393 998 q 469 1042 437 1042 m 111 738 l 201 738 l 103 0 l 9 0 l 111 738 m 393 738 l 486 738 l 378 -47 q 315 -249 356 -209 q 227 -289 273 -289 q 144 -270 191 -289 l 156 -189 q 204 -204 180 -204 q 281 -77 263 -204 l 393 738 z "},"Ĺ":{"ha":642,"x_min":35,"x_max":578,"o":"m 167 998 l 267 998 l 147 94 l 578 94 l 567 0 l 35 0 l 167 998 m 377 1285 l 523 1285 l 293 1076 l 199 1076 l 377 1285 z "},"ĺ":{"ha":278,"x_min":9,"x_max":454,"o":"m 153 1023 l 245 1023 l 103 0 l 9 0 l 153 1023 m 308 1285 l 454 1285 l 224 1076 l 130 1076 l 308 1285 z "},"Ľ":{"ha":642,"x_min":35,"x_max":578,"o":"m 167 998 l 267 998 l 147 94 l 578 94 l 567 0 l 35 0 l 167 998 m 377 624 l 328 654 q 377 743 366 715 q 397 810 389 770 l 338 810 l 363 998 l 484 998 l 475 914 q 443 748 464 808 q 377 624 421 687 z "},"ľ":{"ha":281,"x_min":9,"x_max":398,"o":"m 153 1023 l 245 1023 l 103 0 l 9 0 l 153 1023 m 307 705 l 266 730 q 325 863 315 808 l 274 863 l 296 1023 l 398 1023 l 391 951 q 362 806 381 859 q 307 705 342 754 z "},"Ŀ":{"ha":642,"x_min":35,"x_max":578,"o":"m 167 998 l 267 998 l 147 94 l 578 94 l 567 0 l 35 0 l 167 998 m 407 590 q 456 571 436 590 q 475 522 475 551 q 448 460 475 487 q 384 433 420 433 q 336 452 355 433 q 317 500 317 472 q 344 563 317 536 q 407 590 371 590 z "},"ŀ":{"ha":366,"x_min":9,"x_max":389,"o":"m 153 1023 l 245 1023 l 103 0 l 9 0 l 153 1023 m 320 590 q 369 571 349 590 q 389 522 389 551 q 361 460 389 487 q 297 433 334 433 q 249 452 269 433 q 230 500 230 472 q 257 563 230 536 q 320 590 284 590 z "},"Ń":{"ha":1027,"x_min":34,"x_max":956,"o":"m 858 998 l 956 998 l 821 0 l 799 0 l 237 773 l 133 0 l 34 0 l 168 998 l 190 998 l 753 223 l 858 998 m 645 1285 l 791 1285 l 561 1076 l 467 1076 l 645 1285 z "},"ń":{"ha":847,"x_min":28,"x_max":721,"o":"m 130 738 l 221 738 l 207 625 q 467 757 319 757 q 651 687 581 757 q 721 498 721 616 q 706 338 721 450 l 660 0 l 566 0 l 612 338 q 627 498 627 447 q 580 623 627 576 q 457 671 533 671 q 318 632 382 671 q 219 528 254 594 q 165 319 184 462 l 121 0 l 28 0 l 130 738 m 556 1084 l 702 1084 l 472 875 l 378 875 l 556 1084 z "},"Ň":{"ha":1027,"x_min":34,"x_max":956,"o":"m 858 998 l 956 998 l 821 0 l 799 0 l 237 773 l 133 0 l 34 0 l 168 998 l 190 998 l 753 223 l 858 998 m 612 1073 l 517 1073 l 345 1247 l 467 1247 l 572 1144 l 711 1247 l 838 1247 l 612 1073 z "},"ň":{"ha":847,"x_min":28,"x_max":762,"o":"m 130 738 l 221 738 l 207 625 q 467 757 319 757 q 651 687 581 757 q 721 498 721 616 q 706 338 721 450 l 660 0 l 566 0 l 612 338 q 627 498 627 447 q 580 623 627 576 q 457 671 533 671 q 318 632 382 671 q 219 528 254 594 q 165 319 184 462 l 121 0 l 28 0 l 130 738 m 536 871 l 442 871 l 270 1046 l 392 1046 l 497 943 l 636 1046 l 762 1046 l 536 871 z "},"ŉ":{"ha":847,"x_min":-33,"x_max":717,"o":"m 126 738 l 217 738 l 203 625 q 463 757 315 757 q 647 687 577 757 q 717 498 717 616 q 702 338 717 450 l 656 0 l 562 0 l 608 338 q 623 498 623 447 q 576 623 623 576 q 453 671 529 671 q 314 632 378 671 q 215 528 250 594 q 161 319 180 462 l 117 0 l 24 0 l 126 738 m 16 649 l -33 679 q 16 768 5 741 q 37 835 28 795 l -23 835 l 3 1023 l 123 1023 l 114 939 q 82 773 103 833 q 16 649 60 712 z "},"Ő":{"ha":1207,"x_min":50,"x_max":1118,"o":"m 648 1023 q 984 890 850 1023 q 1118 556 1118 758 q 948 142 1118 310 q 524 -25 778 -25 q 179 104 309 -25 q 50 441 50 233 q 127 736 50 602 q 342 946 205 870 q 648 1023 479 1023 m 646 928 q 391 866 503 928 q 213 689 279 804 q 148 445 148 574 q 195 248 148 335 q 327 115 243 161 q 524 68 410 68 q 772 133 658 68 q 952 313 887 198 q 1018 562 1018 428 q 894 842 1018 739 q 646 928 791 928 m 681 1286 l 827 1286 l 597 1077 l 503 1077 l 681 1286 m 895 1286 l 1041 1286 l 811 1077 l 718 1077 l 895 1286 z "},"ő":{"ha":909,"x_min":38,"x_max":865,"o":"m 461 757 q 634 712 555 757 q 757 586 713 667 q 801 404 801 506 q 745 189 801 288 q 593 35 688 90 q 378 -19 498 -19 q 134 78 230 -19 q 38 326 38 176 q 94 544 38 444 q 249 700 151 644 q 461 757 347 757 m 459 667 q 293 623 371 667 q 174 502 216 578 q 132 332 132 425 q 204 142 132 215 q 390 69 276 69 q 551 112 479 69 q 666 234 623 154 q 709 406 709 314 q 677 542 709 482 q 587 634 645 601 q 459 667 528 667 m 505 1084 l 650 1084 l 420 875 l 327 875 l 505 1084 m 719 1084 l 865 1084 l 635 875 l 541 875 l 719 1084 z "},"Ŕ":{"ha":843,"x_min":53,"x_max":760,"o":"m 189 998 l 439 998 q 630 972 572 998 q 724 891 688 947 q 760 761 760 835 q 717 611 760 680 q 602 507 675 542 q 409 472 528 472 l 710 0 l 597 0 l 296 472 l 218 472 l 153 0 l 53 0 l 189 998 m 276 902 l 231 570 l 346 570 q 513 580 473 570 q 619 644 578 596 q 659 761 659 692 q 603 874 659 839 q 447 902 559 902 l 276 902 m 530 1285 l 675 1285 l 446 1076 l 352 1076 l 530 1285 z "},"ŕ":{"ha":418,"x_min":-10,"x_max":560,"o":"m 90 738 l 184 738 l 172 645 q 264 727 210 698 q 374 757 317 757 q 457 738 414 757 l 412 651 q 353 665 377 665 q 255 631 304 665 q 177 530 207 596 q 125 313 146 464 l 82 0 l -10 0 l 90 738 m 414 1084 l 560 1084 l 330 875 l 237 875 l 414 1084 z "},"Ř":{"ha":843,"x_min":53,"x_max":770,"o":"m 189 998 l 439 998 q 630 972 572 998 q 724 891 688 947 q 760 761 760 835 q 717 611 760 680 q 602 507 675 542 q 409 472 528 472 l 710 0 l 597 0 l 296 472 l 218 472 l 153 0 l 53 0 l 189 998 m 276 902 l 231 570 l 346 570 q 513 580 473 570 q 619 644 578 596 q 659 761 659 692 q 603 874 659 839 q 447 902 559 902 l 276 902 m 544 1073 l 450 1073 l 277 1247 l 399 1247 l 505 1144 l 644 1247 l 770 1247 l 544 1073 z "},"ř":{"ha":418,"x_min":-10,"x_max":559,"o":"m 90 738 l 184 738 l 172 645 q 264 727 210 698 q 374 757 317 757 q 457 738 414 757 l 412 651 q 353 665 377 665 q 255 631 304 665 q 177 530 207 596 q 125 313 146 464 l 82 0 l -10 0 l 90 738 m 334 871 l 239 871 l 67 1046 l 189 1046 l 294 943 l 433 1046 l 559 1046 l 334 871 z "},"Ś":{"ha":692,"x_min":10,"x_max":675,"o":"m 629 813 l 534 789 q 472 889 515 852 q 378 926 429 926 q 288 888 323 926 q 253 787 253 850 q 290 671 253 732 q 401 553 313 633 q 529 399 493 471 q 566 259 566 328 q 526 119 566 186 q 419 14 486 52 q 277 -25 352 -25 q 111 36 181 -25 q 10 215 41 97 l 102 246 q 173 113 124 157 q 286 70 222 70 q 410 123 358 70 q 463 256 463 177 q 433 368 463 313 q 317 500 404 423 q 197 629 225 585 q 152 787 152 704 q 219 956 152 889 q 385 1023 286 1023 q 533 970 468 1023 q 629 813 598 917 m 530 1285 l 675 1285 l 446 1076 l 352 1076 l 530 1285 z "},"ś":{"ha":539,"x_min":-24,"x_max":566,"o":"m 471 655 l 419 578 q 271 667 357 667 q 188 635 222 667 q 153 565 153 604 q 174 508 153 535 q 267 434 195 481 q 407 315 373 366 q 440 196 440 263 q 375 42 440 103 q 207 -19 311 -19 q -24 102 70 -19 l 34 170 q 212 70 116 70 q 308 109 267 70 q 349 198 349 147 q 318 277 349 239 q 212 360 298 302 q 90 466 119 424 q 61 559 61 507 q 123 699 61 642 q 279 757 184 757 q 379 734 334 757 q 471 655 425 712 m 420 1084 l 566 1084 l 336 875 l 243 875 l 420 1084 z "},"Ţ":{"ha":591,"x_min":37,"x_max":646,"o":"m 50 998 l 646 998 l 633 903 l 378 903 l 258 0 l 159 0 l 279 903 l 37 903 l 50 998 m 194 -290 l 153 -272 q 188 -186 181 -222 l 132 -186 l 147 -82 l 253 -82 l 248 -117 q 194 -290 232 -230 z "},"ţ":{"ha":471,"x_min":69,"x_max":449,"o":"m 246 1014 l 339 1014 l 302 738 l 449 738 l 438 655 l 292 655 l 202 0 l 107 0 l 196 655 l 69 655 l 81 738 l 207 738 l 246 1014 m 142 -290 l 100 -272 q 136 -186 129 -222 l 80 -186 l 94 -82 l 201 -82 l 196 -117 q 142 -290 180 -230 z "},"Ť":{"ha":591,"x_min":37,"x_max":646,"o":"m 50 998 l 646 998 l 633 903 l 378 903 l 258 0 l 159 0 l 279 903 l 37 903 l 50 998 m 389 1074 l 295 1074 l 123 1248 l 245 1248 l 350 1145 l 489 1248 l 615 1248 l 389 1074 z "},"ť":{"ha":471,"x_min":69,"x_max":500,"o":"m 416 789 l 378 806 q 435 911 427 867 l 389 911 l 409 1023 l 500 1023 l 494 973 q 470 870 486 908 q 416 789 455 833 m 246 1014 l 339 1014 l 302 738 l 449 738 l 438 655 l 292 655 l 202 0 l 107 0 l 196 655 l 69 655 l 81 738 l 207 738 l 246 1014 z "},"Ů":{"ha":909,"x_min":66,"x_max":842,"o":"m 158 998 l 256 998 l 181 427 q 166 264 166 313 q 220 120 166 171 q 371 70 273 70 q 492 93 439 70 q 582 160 545 116 q 635 262 619 204 q 682 515 662 362 l 744 998 l 842 998 l 776 494 l 760 370 q 726 223 745 284 q 674 116 706 163 q 602 39 642 69 q 503 -8 561 9 q 373 -25 445 -25 q 146 50 226 -25 q 66 248 66 124 q 70 325 66 282 l 85 441 l 158 998 m 519 1349 q 609 1313 573 1349 q 645 1224 645 1278 q 594 1109 645 1159 q 477 1059 544 1059 q 388 1095 424 1059 q 353 1184 353 1131 q 403 1299 353 1249 q 519 1349 453 1349 m 508 1280 q 448 1255 474 1280 q 422 1196 422 1229 q 441 1149 422 1168 q 487 1131 459 1131 q 547 1157 522 1131 q 573 1216 573 1183 q 554 1262 573 1244 q 508 1280 536 1280 z "},"ů":{"ha":844,"x_min":72,"x_max":759,"o":"m 127 738 l 222 738 l 180 429 q 162 261 162 298 q 219 123 162 176 q 368 69 275 69 q 503 110 446 69 q 584 216 559 151 q 613 369 596 250 l 666 738 l 759 738 l 721 458 q 663 174 694 258 q 554 35 633 90 q 363 -19 476 -19 q 154 59 235 -19 q 72 255 72 138 q 79 364 72 302 l 86 429 l 90 457 l 127 738 m 485 1147 q 575 1111 539 1147 q 611 1022 611 1076 q 561 907 611 957 q 443 857 510 857 q 354 893 390 857 q 319 982 319 929 q 369 1097 319 1047 q 485 1147 419 1147 m 474 1078 q 414 1053 440 1078 q 389 994 389 1027 q 407 947 389 966 q 453 929 425 929 q 513 955 488 929 q 539 1014 539 981 q 520 1060 539 1042 q 474 1078 502 1078 z "},"Ű":{"ha":909,"x_min":66,"x_max":865,"o":"m 158 998 l 256 998 l 181 427 q 166 264 166 313 q 220 120 166 171 q 371 70 273 70 q 492 93 439 70 q 582 160 545 116 q 635 262 619 204 q 682 515 662 362 l 744 998 l 842 998 l 776 494 l 760 370 q 726 223 745 284 q 674 116 706 163 q 602 39 642 69 q 503 -8 561 9 q 373 -25 445 -25 q 146 50 226 -25 q 66 248 66 124 q 70 325 66 282 l 85 441 l 158 998 m 505 1286 l 650 1286 l 420 1077 l 327 1077 l 505 1286 m 719 1286 l 865 1286 l 635 1077 l 541 1077 l 719 1286 z "},"ű":{"ha":844,"x_min":72,"x_max":866,"o":"m 127 738 l 222 738 l 180 429 q 162 261 162 298 q 219 123 162 176 q 368 69 275 69 q 503 110 446 69 q 584 216 559 151 q 613 369 596 250 l 666 738 l 759 738 l 721 458 q 663 174 694 258 q 554 35 633 90 q 363 -19 476 -19 q 154 59 235 -19 q 72 255 72 138 q 79 364 72 302 l 86 429 l 90 457 l 127 738 m 506 1084 l 652 1084 l 422 875 l 328 875 l 506 1084 m 720 1084 l 866 1084 l 636 875 l 543 875 l 720 1084 z "},"Ź":{"ha":667,"x_min":9,"x_max":660,"o":"m 147 998 l 660 998 l 170 95 l 544 95 l 531 0 l 9 0 l 500 901 l 134 901 l 147 998 m 496 1285 l 642 1285 l 412 1076 l 318 1076 l 496 1285 z "},"ź":{"ha":590,"x_min":-39,"x_max":574,"o":"m 62 738 l 570 738 l 129 84 l 530 84 l 519 0 l -39 0 l 404 654 l 52 654 l 62 738 m 428 1084 l 574 1084 l 344 875 l 250 875 l 428 1084 z "},"Ż":{"ha":667,"x_min":9,"x_max":660,"o":"m 147 998 l 660 998 l 170 95 l 544 95 l 531 0 l 9 0 l 500 901 l 134 901 l 147 998 m 382 1231 q 431 1211 411 1231 q 450 1163 450 1192 q 423 1101 450 1128 q 359 1074 395 1074 q 311 1093 330 1074 q 292 1141 292 1112 q 319 1204 292 1177 q 382 1231 346 1231 z "},"ż":{"ha":590,"x_min":-39,"x_max":570,"o":"m 62 738 l 570 738 l 129 84 l 530 84 l 519 0 l -39 0 l 404 654 l 52 654 l 62 738 m 294 1029 q 342 1010 323 1029 q 362 962 362 990 q 335 899 362 926 q 271 872 307 872 q 223 891 242 872 q 203 940 203 911 q 231 1002 203 975 q 294 1029 258 1029 z "},"":{"ha":753,"x_min":120,"x_max":723,"o":"m 120 995 l 723 995 l 723 877 l 252 877 l 252 0 l 120 0 l 120 995 z "},"":{"ha":1038,"x_min":78,"x_max":960,"o":"m 524 1019 q 843 881 727 1019 q 960 496 960 743 q 910 222 960 343 q 760 37 860 100 q 526 -27 659 -27 q 287 32 383 -27 q 135 209 191 90 q 78 498 78 327 q 192 877 78 734 q 524 1019 305 1019 m 524 912 q 298 810 379 912 q 218 500 218 709 q 254 261 218 349 q 356 127 291 174 q 516 80 421 80 q 740 181 659 80 q 821 505 821 283 q 742 805 821 697 q 524 912 664 912 m 334 562 l 705 562 l 705 449 l 334 449 l 334 562 z "},"":{"ha":1162,"x_min":78,"x_max":1084,"o":"m 516 1019 l 648 1019 l 648 888 q 1084 491 1084 872 q 648 93 1084 108 l 648 -119 l 516 -119 l 516 93 q 78 491 78 109 q 180 774 78 670 q 516 888 282 878 l 516 1019 m 516 783 q 220 490 220 781 q 516 196 220 213 l 516 783 m 648 783 l 648 196 q 943 491 943 201 q 648 783 943 778 z "},"":{"ha":873,"x_min":71,"x_max":813,"o":"m 646 130 q 393 -19 553 -19 q 155 85 239 -19 q 71 344 71 190 q 159 627 71 522 q 397 732 247 732 q 642 599 563 732 l 672 721 l 804 721 q 756 372 756 545 q 813 0 756 176 l 676 0 q 646 130 655 77 m 420 639 q 267 565 321 639 q 213 353 213 491 q 267 151 213 228 q 420 75 320 75 q 574 145 519 75 q 629 360 629 216 q 578 563 629 486 q 420 639 528 639 z "},"":{"ha":861,"x_min":71,"x_max":791,"o":"m 442 639 q 301 776 334 722 q 267 886 267 829 q 334 1010 267 965 q 519 1055 401 1055 q 676 1034 604 1055 l 676 945 q 549 958 593 958 q 444 934 482 958 q 406 873 406 910 q 427 816 406 844 q 505 743 448 788 q 731 522 671 613 q 791 326 791 431 q 695 80 791 180 q 429 -19 600 -19 q 169 79 267 -19 q 71 329 71 176 q 116 499 71 431 q 229 606 161 568 q 380 644 297 644 q 442 639 405 644 m 435 570 q 270 504 328 570 q 212 323 212 437 q 271 140 212 208 q 432 73 330 73 q 587 137 526 73 q 648 322 648 200 q 596 498 648 427 q 435 570 543 570 z "},"":{"ha":710,"x_min":71,"x_max":640,"o":"m 640 -8 q 506 -19 570 -19 q 186 78 302 -19 q 71 355 71 174 q 175 626 71 519 q 484 732 279 732 q 631 723 552 732 l 631 623 l 613 625 q 491 631 526 631 q 215 414 243 631 l 625 414 l 625 318 l 214 318 q 291 149 216 215 q 524 83 366 83 q 640 94 589 83 l 640 -8 z "},"":{"ha":948,"x_min":71,"x_max":922,"o":"m 691 618 q 787 359 787 526 q 694 84 787 187 q 431 -19 600 -19 q 167 82 264 -19 q 71 358 71 182 q 166 633 71 533 q 412 732 262 732 q 518 727 441 732 q 608 722 548 724 l 922 722 l 922 618 l 691 618 m 434 648 q 210 347 210 648 q 265 149 210 225 q 427 73 320 73 q 593 150 539 73 q 647 364 647 227 q 596 567 647 487 q 434 648 545 648 z "},"":{"ha":665,"x_min":28,"x_max":638,"o":"m 28 721 l 638 721 l 638 612 l 399 612 l 399 0 l 267 0 l 267 612 l 28 612 l 28 721 z "},"":{"ha":1072,"x_min":71,"x_max":1001,"o":"m 473 903 l 601 903 l 601 729 q 892 636 783 726 q 1001 370 1001 546 q 964 174 1001 252 q 831 45 926 97 q 600 -10 736 -7 l 600 -262 l 471 -262 l 471 -9 q 187 79 304 -8 q 71 364 71 166 q 179 635 71 547 q 473 730 288 724 l 473 903 m 472 638 q 327 605 382 635 q 242 513 271 575 q 214 362 214 451 q 472 83 214 84 l 472 638 m 601 638 l 601 83 q 859 363 859 85 q 601 638 859 635 z "},"‗":{"ha":694,"x_min":-8,"x_max":703,"o":"m -8 -80 l 703 -80 l 703 -150 l -8 -150 l -8 -80 m -8 -201 l 703 -201 l 703 -270 l -8 -270 l -8 -201 z "},"′":{"ha":275,"x_min":112,"x_max":241,"o":"m 182 709 l 112 709 l 141 1023 l 241 1023 l 182 709 z "},"″":{"ha":429,"x_min":57,"x_max":450,"o":"m 391 709 l 320 709 l 350 1023 l 450 1023 l 391 709 m 127 709 l 57 709 l 86 1023 l 186 1023 l 127 709 z "},"‼":{"ha":659,"x_min":56,"x_max":557,"o":"m 215 1023 l 309 1023 l 206 249 l 111 249 l 215 1023 m 463 1023 l 557 1023 l 454 249 l 359 249 l 463 1023 m 139 146 q 197 123 173 146 q 222 64 222 99 q 198 5 222 30 q 139 -19 174 -19 q 80 5 104 -19 q 56 64 56 30 q 81 122 56 98 q 139 146 105 146 m 387 146 q 446 122 422 146 q 470 64 470 98 q 446 5 470 30 q 387 -19 422 -19 q 329 5 353 -19 q 304 64 304 30 q 329 122 304 98 q 387 146 353 146 z "},"ⁿ":{"ha":468,"x_min":33,"x_max":419,"o":"m 103 852 l 180 852 l 172 800 q 290 863 222 863 q 384 816 348 863 q 419 696 419 769 q 412 601 419 646 l 381 390 l 302 390 l 332 601 q 341 693 341 659 q 322 764 341 734 q 267 793 304 793 q 204 769 233 793 q 164 711 176 746 q 140 588 153 675 l 110 390 l 33 390 l 103 852 z "},"₧":{"ha":1562,"x_min":44,"x_max":1494,"o":"m 771 738 l 882 738 l 922 1014 l 1015 1014 l 978 738 l 1208 738 q 1302 757 1255 757 q 1494 655 1417 757 l 1443 578 q 1295 667 1383 667 q 1209 633 1241 667 q 1177 565 1177 599 q 1201 504 1177 532 q 1291 434 1225 477 q 1435 306 1407 359 q 1463 196 1463 252 q 1397 40 1463 100 q 1230 -19 1330 -19 q 1000 102 1093 -19 l 1057 170 q 1236 70 1139 70 q 1328 106 1284 70 q 1372 198 1372 142 q 1347 271 1372 240 q 1236 360 1322 302 q 1126 451 1166 408 q 1085 559 1085 495 q 1111 655 1085 610 l 967 655 l 878 0 l 783 0 l 872 655 l 752 655 q 677 547 728 591 q 563 487 627 503 q 359 471 499 471 l 208 471 l 144 0 l 44 0 l 178 998 l 450 998 q 639 974 583 998 q 734 897 695 951 q 772 762 772 843 q 771 738 772 750 m 266 901 l 220 570 l 359 570 q 537 583 481 570 q 633 645 593 597 q 673 760 673 693 q 648 844 673 809 q 582 890 624 878 q 444 901 540 901 l 266 901 z "},"℅":{"ha":1253,"x_min":71,"x_max":1191,"o":"m 521 902 l 455 867 q 328 949 413 949 q 198 895 249 949 q 148 761 148 840 q 182 652 148 694 q 280 610 217 610 q 366 631 323 610 q 429 685 408 652 l 494 642 q 281 538 410 538 q 123 602 176 538 q 71 757 71 666 q 146 945 71 868 q 328 1023 221 1023 q 521 902 462 1023 m 269 -25 l 901 1023 l 977 1023 l 344 -25 l 269 -25 m 998 473 q 1135 412 1080 473 q 1191 252 1191 350 q 1124 66 1191 144 q 952 -12 1057 -12 q 812 51 865 -12 q 758 205 758 113 q 828 395 758 317 q 998 473 897 473 m 995 400 q 882 348 928 400 q 836 209 836 295 q 872 100 836 139 q 960 60 908 60 q 1072 118 1029 60 q 1115 253 1115 175 q 1080 360 1115 321 q 995 400 1046 400 z "},"ℓ":{"ha":496,"x_min":-4,"x_max":486,"o":"m -4 397 l 123 507 l 165 808 q 226 974 183 936 q 326 1011 269 1011 q 441 964 395 1011 q 486 855 486 917 q 445 723 486 800 q 241 489 404 646 l 196 170 q 192 125 192 141 q 223 77 192 77 q 366 152 267 77 l 359 37 q 217 -16 284 -16 q 117 22 159 -16 q 76 137 76 60 q 82 221 76 180 l 103 368 l 50 323 l -4 397 m 264 646 q 368 783 345 739 q 391 863 391 827 q 377 912 391 893 q 342 930 363 930 q 288 823 303 930 l 264 646 z "},"←":{"ha":1389,"x_min":54,"x_max":1335,"o":"m 334 594 l 385 594 q 253 385 330 479 l 1335 385 l 1335 316 l 253 316 q 387 106 322 247 l 334 106 q 54 338 183 278 l 54 368 q 334 594 174 416 z "},"↑":{"ha":694,"x_min":104,"x_max":591,"o":"m 104 712 q 330 992 281 872 l 361 992 q 591 711 420 862 l 591 659 q 382 792 451 724 l 382 -291 l 313 -291 l 313 792 q 104 660 219 715 l 104 712 z "},"→":{"ha":1389,"x_min":54,"x_max":1335,"o":"m 1055 594 q 1335 368 1215 416 l 1335 338 q 1054 106 1205 278 l 1002 106 q 1135 316 1066 247 l 54 316 l 54 385 l 1135 385 q 1003 594 1058 479 l 1055 594 z "},"↓":{"ha":694,"x_min":104,"x_max":591,"o":"m 104 -11 l 104 41 q 313 -92 219 -14 l 313 992 l 382 992 l 382 -92 q 591 42 451 -22 l 591 -10 q 361 -291 420 -161 l 330 -291 q 104 -11 281 -172 z "},"↔":{"ha":1389,"x_min":54,"x_max":1335,"o":"m 1335 366 l 1335 336 q 1059 107 1212 282 l 1005 107 q 1137 318 1052 224 l 252 318 q 383 107 336 224 l 329 107 q 54 336 177 282 l 54 366 q 329 595 177 420 l 383 595 q 252 385 336 479 l 1137 385 q 1005 595 1052 479 l 1059 595 q 1335 366 1212 420 z "},"↕":{"ha":694,"x_min":103,"x_max":591,"o":"m 332 992 l 362 992 q 591 716 416 869 l 591 662 q 380 794 475 709 l 380 -92 q 591 40 475 -6 l 591 -14 q 362 -290 416 -166 l 332 -290 q 103 -14 278 -166 l 103 40 q 314 -92 219 -6 l 314 794 q 103 662 219 709 l 103 716 q 332 992 278 869 z "},"↨":{"ha":694,"x_min":103,"x_max":591,"o":"m 332 992 l 362 992 q 591 716 416 869 l 591 662 q 380 794 475 709 l 380 -92 q 591 40 475 -6 l 591 -14 q 362 -290 416 -166 l 332 -290 q 103 -14 278 -166 l 103 40 q 314 -92 219 -6 l 314 794 q 103 662 219 709 l 103 716 q 332 992 278 869 m 104 -354 l 591 -354 l 591 -420 l 104 -420 l 104 -354 z "},"∟":{"ha":1360,"x_min":245,"x_max":1114,"o":"m 245 867 l 313 867 l 313 68 l 1114 68 l 1114 0 l 245 0 l 245 867 z "},"∩":{"ha":818,"x_min":87,"x_max":731,"o":"m 162 0 l 87 0 l 87 421 l 89 583 q 101 724 90 661 q 141 839 113 787 q 213 931 169 890 q 308 991 257 971 q 409 1012 358 1012 q 562 965 489 1012 q 673 847 634 919 q 722 695 713 776 q 731 421 731 615 l 731 0 l 656 0 l 656 426 q 650 662 656 591 q 614 791 643 734 q 528 886 586 848 q 409 923 470 923 q 291 886 348 923 q 205 793 233 848 q 170 664 177 737 q 162 426 162 591 l 162 0 z "},"≡":{"ha":842,"x_min":78,"x_max":764,"o":"m 764 844 l 764 751 l 78 751 l 78 844 l 764 844 m 764 545 l 764 452 l 78 452 l 78 545 l 764 545 m 764 247 l 764 154 l 78 154 l 78 247 l 764 247 z "},"□":{"ha":839,"x_min":99,"x_max":739,"o":"m 99 640 l 739 640 l 739 0 l 99 0 l 99 640 m 151 589 l 151 52 l 688 52 l 688 589 l 151 589 z "},"▪":{"ha":492,"x_min":89,"x_max":403,"o":"m 403 616 l 403 302 l 89 302 l 89 616 l 403 616 z "},"▫":{"ha":492,"x_min":89,"x_max":403,"o":"m 403 616 l 403 302 l 89 302 l 89 616 l 403 616 m 351 565 l 140 564 l 140 353 l 351 353 l 351 565 z "},"●":{"ha":839,"x_min":121,"x_max":718,"o":"m 420 690 q 630 603 543 690 q 718 392 718 515 q 631 181 718 269 q 420 93 543 93 q 209 181 296 93 q 121 392 121 269 q 210 605 121 520 q 420 690 299 690 z "},"◦":{"ha":492,"x_min":76,"x_max":416,"o":"m 246 629 q 366 581 315 629 q 416 459 416 532 q 367 339 416 389 q 246 289 317 289 q 126 339 176 289 q 76 459 76 389 q 126 579 76 530 q 246 629 176 629 m 246 578 q 163 544 198 578 q 127 459 127 510 q 162 375 127 410 q 246 340 197 340 q 330 375 295 340 q 365 459 365 410 q 330 544 365 509 q 246 578 294 578 z "},"":{"ha":463,"x_min":14,"x_max":228,"o":"m 151 -51 l 228 -90 l 72 -319 l 14 -294 l 151 -51 z "},"Ā":{"ha":1027,"x_min":-20,"x_max":912,"o":"m 578 998 l 912 0 l 810 0 l 701 326 l 278 326 l 92 0 l -20 0 l 555 998 l 578 998 m 546 789 l 333 421 l 669 421 l 546 789 m 331 1204 l 799 1204 l 787 1124 l 319 1124 l 331 1204 z "},"ā":{"ha":949,"x_min":41,"x_max":859,"o":"m 760 0 l 665 0 l 679 111 q 385 -19 551 -19 q 138 78 235 -19 q 41 328 41 175 q 166 630 41 504 q 463 757 292 757 q 624 718 555 757 q 743 597 694 680 l 760 738 l 859 738 l 760 0 m 395 68 q 562 111 487 68 q 682 235 637 154 q 726 410 726 315 q 653 597 726 525 q 465 669 581 669 q 231 570 328 669 q 134 329 134 472 q 207 140 134 212 q 395 68 279 68 m 283 1003 l 751 1003 l 740 922 l 272 922 l 283 1003 z "},"Ĉ":{"ha":1129,"x_min":54,"x_max":1069,"o":"m 1069 860 l 1008 777 q 647 926 850 926 q 400 861 515 926 q 220 688 285 797 q 155 453 155 578 q 205 254 155 341 q 349 118 255 168 q 565 69 444 69 q 910 186 750 69 l 966 107 q 762 2 847 29 q 564 -25 676 -25 q 227 79 357 -25 q 54 450 54 218 q 227 856 54 689 q 657 1023 400 1023 q 871 986 774 1023 q 1069 860 967 949 m 616 1248 l 710 1248 l 882 1074 l 760 1074 l 655 1177 l 516 1074 l 390 1074 l 616 1248 z "},"ĉ":{"ha":899,"x_min":41,"x_max":812,"o":"m 812 578 l 734 533 q 484 666 652 666 q 305 623 386 666 q 179 502 224 579 q 134 336 134 425 q 168 197 134 258 q 263 102 201 135 q 408 68 324 68 q 571 102 493 68 q 692 190 648 136 l 770 135 q 611 18 696 55 q 412 -19 525 -19 q 139 76 237 -19 q 41 330 41 172 q 169 632 41 507 q 484 757 298 757 q 682 710 596 757 q 812 578 767 663 m 455 1046 l 549 1046 l 722 871 l 600 871 l 494 975 l 355 871 l 229 871 l 455 1046 z "},"Ċ":{"ha":1129,"x_min":54,"x_max":1069,"o":"m 1069 860 l 1008 777 q 647 926 850 926 q 400 861 515 926 q 220 688 285 797 q 155 453 155 578 q 205 254 155 341 q 349 118 255 168 q 565 69 444 69 q 910 186 750 69 l 966 107 q 762 2 847 29 q 564 -25 676 -25 q 227 79 357 -25 q 54 450 54 218 q 227 856 54 689 q 657 1023 400 1023 q 871 986 774 1023 q 1069 860 967 949 m 667 1232 q 715 1212 696 1232 q 735 1164 735 1192 q 708 1101 735 1128 q 644 1074 680 1074 q 596 1094 615 1074 q 576 1142 576 1113 q 604 1204 576 1177 q 667 1232 631 1232 z "},"ċ":{"ha":899,"x_min":41,"x_max":812,"o":"m 812 578 l 734 533 q 484 666 652 666 q 305 623 386 666 q 179 502 224 579 q 134 336 134 425 q 168 197 134 258 q 263 102 201 135 q 408 68 324 68 q 571 102 493 68 q 692 190 648 136 l 770 135 q 611 18 696 55 q 412 -19 525 -19 q 139 76 237 -19 q 41 330 41 172 q 169 632 41 507 q 484 757 298 757 q 682 710 596 757 q 812 578 767 663 m 506 1029 q 555 1010 535 1029 q 574 962 574 990 q 547 899 574 926 q 483 872 519 872 q 435 891 454 872 q 416 940 416 911 q 443 1002 416 975 q 506 1029 470 1029 z "},"Ē":{"ha":745,"x_min":33,"x_max":716,"o":"m 716 998 l 702 901 l 253 901 l 209 574 l 658 574 l 645 478 l 196 478 l 145 96 l 594 96 l 583 0 l 33 0 l 166 998 l 716 998 m 216 1204 l 684 1204 l 673 1124 l 205 1124 l 216 1204 z "},"ē":{"ha":903,"x_min":39,"x_max":795,"o":"m 791 350 l 133 350 q 201 143 131 218 q 389 68 272 68 q 534 100 467 68 q 644 189 600 132 l 714 132 q 574 22 661 63 q 387 -19 488 -19 q 126 89 214 -19 q 39 330 39 196 q 98 542 39 440 q 255 700 157 644 q 468 757 353 757 q 703 661 610 757 q 795 416 795 565 q 791 350 795 389 m 704 432 q 633 601 700 536 q 464 666 566 666 q 269 604 353 666 q 149 432 184 541 l 704 432 m 251 1003 l 719 1003 l 707 922 l 239 922 l 251 1003 z "},"Ĕ":{"ha":745,"x_min":33,"x_max":716,"o":"m 716 998 l 702 901 l 253 901 l 209 574 l 658 574 l 645 478 l 196 478 l 145 96 l 594 96 l 583 0 l 33 0 l 166 998 l 716 998 m 214 1236 l 304 1236 q 446 1166 340 1166 q 537 1181 501 1166 q 608 1236 573 1196 l 695 1236 q 604 1134 671 1175 q 436 1093 536 1093 q 279 1134 336 1093 q 214 1236 222 1175 z "},"ĕ":{"ha":903,"x_min":39,"x_max":795,"o":"m 791 350 l 133 350 q 201 143 131 218 q 389 68 272 68 q 534 100 467 68 q 644 189 600 132 l 714 132 q 574 22 661 63 q 387 -19 488 -19 q 126 89 214 -19 q 39 330 39 196 q 98 542 39 440 q 255 700 157 644 q 468 757 353 757 q 703 661 610 757 q 795 416 795 565 q 791 350 795 389 m 704 432 q 633 601 700 536 q 464 666 566 666 q 269 604 353 666 q 149 432 184 541 l 704 432 m 258 1034 l 347 1034 q 489 964 383 964 q 581 979 545 964 q 652 1034 616 994 l 739 1034 q 647 932 715 973 q 479 891 580 891 q 323 932 380 891 q 258 1034 266 972 z "},"Ė":{"ha":745,"x_min":33,"x_max":716,"o":"m 716 998 l 702 901 l 253 901 l 209 574 l 658 574 l 645 478 l 196 478 l 145 96 l 594 96 l 583 0 l 33 0 l 166 998 l 716 998 m 463 1232 q 511 1212 492 1232 q 531 1164 531 1192 q 504 1101 531 1128 q 439 1074 476 1074 q 392 1094 411 1074 q 372 1142 372 1113 q 399 1204 372 1177 q 463 1232 427 1232 z "},"ė":{"ha":903,"x_min":39,"x_max":795,"o":"m 791 350 l 133 350 q 201 143 131 218 q 389 68 272 68 q 534 100 467 68 q 644 189 600 132 l 714 132 q 574 22 661 63 q 387 -19 488 -19 q 126 89 214 -19 q 39 330 39 196 q 98 542 39 440 q 255 700 157 644 q 468 757 353 757 q 703 661 610 757 q 795 416 795 565 q 791 350 795 389 m 704 432 q 633 601 700 536 q 464 666 566 666 q 269 604 353 666 q 149 432 184 541 l 704 432 m 497 1029 q 546 1010 526 1029 q 566 962 566 990 q 538 899 566 926 q 474 872 511 872 q 426 891 446 872 q 407 940 407 911 q 434 1002 407 975 q 497 1029 461 1029 z "},"Ĝ":{"ha":1211,"x_min":54,"x_max":1107,"o":"m 1083 783 l 1003 724 q 826 875 928 823 q 618 928 725 928 q 389 864 499 928 q 217 693 279 800 q 154 466 154 587 q 272 185 154 301 q 558 70 389 70 q 752 111 659 70 q 903 221 845 153 q 987 391 960 290 l 621 391 l 621 489 l 1107 489 q 942 117 1092 260 q 570 -25 793 -25 q 197 114 340 -25 q 54 463 54 253 q 130 743 54 613 q 337 948 205 873 q 621 1023 469 1023 q 1083 783 897 1023 m 609 1248 l 703 1248 l 876 1074 l 753 1074 l 648 1177 l 509 1074 l 383 1074 l 609 1248 z "},"ĝ":{"ha":935,"x_min":15,"x_max":848,"o":"m 755 738 l 848 738 l 763 113 q 713 -98 743 -38 q 581 -235 673 -182 q 361 -289 488 -289 q 148 -238 236 -289 q 15 -91 60 -187 l 100 -60 q 361 -201 177 -201 q 529 -161 458 -201 q 630 -60 600 -122 q 667 102 648 -23 l 671 131 q 379 0 551 0 q 134 93 227 0 q 41 336 41 186 q 97 542 41 446 q 253 698 154 639 q 455 757 353 757 q 611 719 541 757 q 736 597 682 680 l 755 738 m 473 667 q 301 622 380 667 q 177 502 221 578 q 134 332 134 426 q 203 157 134 223 q 389 90 272 90 q 623 182 530 90 q 716 415 716 275 q 640 603 716 538 q 473 667 564 667 m 460 1046 l 554 1046 l 726 871 l 604 871 l 499 975 l 360 871 l 234 871 l 460 1046 z "},"Ġ":{"ha":1211,"x_min":54,"x_max":1107,"o":"m 1083 783 l 1003 724 q 826 875 928 823 q 618 928 725 928 q 389 864 499 928 q 217 693 279 800 q 154 466 154 587 q 272 185 154 301 q 558 70 389 70 q 752 111 659 70 q 903 221 845 153 q 987 391 960 290 l 621 391 l 621 489 l 1107 489 q 942 117 1092 260 q 570 -25 793 -25 q 197 114 340 -25 q 54 463 54 253 q 130 743 54 613 q 337 948 205 873 q 621 1023 469 1023 q 1083 783 897 1023 m 656 1232 q 705 1212 685 1232 q 724 1164 724 1192 q 697 1101 724 1128 q 633 1074 669 1074 q 585 1094 604 1074 q 566 1142 566 1113 q 593 1204 566 1177 q 656 1232 620 1232 z "},"ġ":{"ha":935,"x_min":15,"x_max":848,"o":"m 755 738 l 848 738 l 763 113 q 713 -98 743 -38 q 581 -235 673 -182 q 361 -289 488 -289 q 148 -238 236 -289 q 15 -91 60 -187 l 100 -60 q 361 -201 177 -201 q 529 -161 458 -201 q 630 -60 600 -122 q 667 102 648 -23 l 671 131 q 379 0 551 0 q 134 93 227 0 q 41 336 41 186 q 97 542 41 446 q 253 698 154 639 q 455 757 353 757 q 611 719 541 757 q 736 597 682 680 l 755 738 m 473 667 q 301 622 380 667 q 177 502 221 578 q 134 332 134 426 q 203 157 134 223 q 389 90 272 90 q 623 182 530 90 q 716 415 716 275 q 640 603 716 538 q 473 667 564 667 m 511 1029 q 559 1010 540 1029 q 579 962 579 990 q 552 899 579 926 q 488 872 524 872 q 440 891 459 872 q 420 940 420 911 q 448 1002 420 975 q 511 1029 475 1029 z "},"Ģ":{"ha":1211,"x_min":54,"x_max":1107,"o":"m 1083 783 l 1003 724 q 826 875 928 823 q 618 928 725 928 q 389 864 499 928 q 217 693 279 800 q 154 466 154 587 q 272 185 154 301 q 558 70 389 70 q 752 111 659 70 q 903 221 845 153 q 987 391 960 290 l 621 391 l 621 489 l 1107 489 q 942 117 1092 260 q 570 -25 793 -25 q 197 114 340 -25 q 54 463 54 253 q 130 743 54 613 q 337 948 205 873 q 621 1023 469 1023 q 1083 783 897 1023 m 518 0 l 578 0 l 555 -80 q 581 -78 571 -78 q 630 -96 611 -78 q 650 -140 650 -113 q 604 -222 650 -187 q 478 -258 557 -258 q 368 -237 418 -258 l 389 -191 q 469 -204 431 -204 q 545 -190 522 -204 q 567 -157 567 -176 q 557 -139 567 -146 q 529 -131 547 -131 q 480 -137 513 -131 l 518 0 z "},"ģ":{"ha":935,"x_min":15,"x_max":848,"o":"m 755 738 l 848 738 l 763 113 q 713 -98 743 -38 q 581 -235 673 -182 q 361 -289 488 -289 q 148 -238 236 -289 q 15 -91 60 -187 l 100 -60 q 361 -201 177 -201 q 529 -161 458 -201 q 630 -60 600 -122 q 667 102 648 -23 l 671 131 q 379 0 551 0 q 134 93 227 0 q 41 336 41 186 q 97 542 41 446 q 253 698 154 639 q 455 757 353 757 q 611 719 541 757 q 736 597 682 680 l 755 738 m 473 667 q 301 622 380 667 q 177 502 221 578 q 134 332 134 426 q 203 157 134 223 q 389 90 272 90 q 623 182 530 90 q 716 415 716 275 q 640 603 716 538 q 473 667 564 667 m 538 1233 l 587 1203 q 538 1114 550 1141 q 518 1047 527 1087 l 578 1047 l 551 859 l 432 859 l 441 943 q 473 1109 451 1048 q 538 1233 494 1170 z "},"Ĥ":{"ha":949,"x_min":33,"x_max":873,"o":"m 166 998 l 264 998 l 211 592 l 722 592 l 776 998 l 873 998 l 742 0 l 644 0 l 710 498 l 197 498 l 132 0 l 33 0 l 166 998 m 507 1248 l 601 1248 l 773 1074 l 651 1074 l 546 1177 l 407 1074 l 281 1074 l 507 1248 z "},"ĥ":{"ha":847,"x_min":28,"x_max":720,"o":"m 168 1023 l 260 1023 l 206 626 q 467 757 320 757 q 649 687 578 757 q 720 505 720 617 q 705 339 720 444 l 659 0 l 566 0 l 612 339 q 626 502 626 441 q 578 625 626 578 q 454 671 531 671 q 318 633 382 671 q 219 528 254 594 q 164 319 184 463 l 120 0 l 28 0 l 168 1023 m 445 1248 l 539 1248 l 711 1074 l 589 1074 l 484 1177 l 345 1074 l 219 1074 l 445 1248 z "},"Ħ":{"ha":949,"x_min":33,"x_max":943,"o":"m 840 747 l 742 0 l 644 0 l 710 498 l 197 498 l 132 0 l 33 0 l 132 747 l 42 747 l 55 840 l 145 840 l 166 998 l 264 998 l 243 840 l 755 840 l 776 998 l 873 998 l 852 840 l 943 840 l 930 747 l 840 747 m 743 747 l 231 747 l 211 592 l 722 592 l 743 747 z "},"ħ":{"ha":847,"x_min":28,"x_max":720,"o":"m 143 841 l 38 841 l 49 920 l 154 920 l 168 1023 l 260 1023 l 246 920 l 500 920 l 490 841 l 235 841 l 206 626 q 467 757 320 757 q 646 690 572 757 q 720 510 720 624 q 705 339 720 446 l 659 0 l 566 0 l 612 339 q 626 502 626 441 q 579 624 626 576 q 454 671 532 671 q 322 636 385 671 q 222 535 260 600 q 164 319 185 470 l 120 0 l 28 0 l 143 841 z "},"Ĩ":{"ha":314,"x_min":-21,"x_max":474,"o":"m 162 998 l 262 998 l 127 0 l 27 0 l 162 998 m 435 1213 l 474 1147 q 384 1100 420 1112 q 312 1088 349 1088 q 215 1113 263 1088 q 163 1138 174 1135 q 129 1143 146 1143 q 81 1134 104 1143 q 14 1096 59 1126 l -21 1165 q 140 1231 50 1231 q 241 1204 184 1231 q 326 1177 295 1177 q 435 1213 366 1177 z "},"ĩ":{"ha":278,"x_min":-85,"x_max":410,"o":"m 111 738 l 201 738 l 103 0 l 9 0 l 111 738 m 372 1012 l 410 946 q 320 899 356 911 q 248 886 285 886 q 151 911 199 886 q 99 937 111 933 q 65 941 83 941 q 18 933 40 941 q -50 895 -5 924 l -85 964 q 77 1029 -14 1029 q 177 1002 120 1029 q 262 976 231 976 q 372 1012 302 976 z "},"Ī":{"ha":314,"x_min":-12,"x_max":467,"o":"m 162 998 l 262 998 l 127 0 l 27 0 l 162 998 m -1 1204 l 467 1204 l 456 1124 l -12 1124 l -1 1204 z "},"ī":{"ha":278,"x_min":-60,"x_max":420,"o":"m 111 738 l 201 738 l 102 0 l 9 0 l 111 738 m -48 1003 l 420 1003 l 408 922 l -60 922 l -48 1003 z "},"Ĭ":{"ha":314,"x_min":-7,"x_max":473,"o":"m 161 998 l 262 998 l 127 0 l 26 0 l 161 998 m -7 1236 l 82 1236 q 224 1166 118 1166 q 315 1181 279 1166 q 387 1236 351 1196 l 473 1236 q 382 1134 450 1175 q 214 1093 315 1093 q 58 1134 115 1093 q -7 1236 1 1175 z "},"ĭ":{"ha":278,"x_min":-50,"x_max":431,"o":"m 111 738 l 201 738 l 102 0 l 9 0 l 111 738 m -50 1034 l 39 1034 q 181 964 75 964 q 273 979 237 964 q 344 1034 309 994 l 431 1034 q 339 932 407 973 q 172 891 272 891 q 15 932 72 891 q -50 1034 -42 972 z "},"Į":{"ha":314,"x_min":-50,"x_max":262,"o":"m 161 998 l 262 998 l 127 0 l 26 0 l 161 998 m 53 0 l 127 0 q 26 -138 26 -77 q 47 -187 26 -168 q 115 -205 69 -205 q 162 -202 135 -205 l 148 -260 q 90 -267 119 -267 q -15 -236 19 -267 q -50 -159 -50 -205 q -22 -75 -50 -119 q 53 0 5 -31 z "},"į":{"ha":278,"x_min":-73,"x_max":262,"o":"m 186 1042 q 239 1019 217 1042 q 262 966 262 997 q 239 912 262 934 q 186 890 217 890 q 132 912 154 890 q 110 966 110 934 q 132 1019 110 997 q 186 1042 154 1042 m 111 738 l 201 738 l 103 0 l 9 0 l 111 738 m 29 0 l 103 0 q 2 -138 2 -77 q 24 -187 2 -168 q 91 -205 45 -205 q 138 -202 111 -205 l 124 -260 q 66 -267 95 -267 q -39 -236 -5 -267 q -73 -159 -73 -205 q -46 -75 -73 -119 q 29 0 -19 -31 z "},"Ĵ":{"ha":669,"x_min":-17,"x_max":689,"o":"m 461 998 l 559 998 l 469 310 q 422 97 449 155 q 343 7 395 39 q 223 -25 292 -25 q 102 2 160 -25 q -17 95 43 30 l 60 149 q 225 67 144 67 q 323 123 286 67 q 370 302 352 165 l 461 998 m 422 1248 l 517 1248 l 689 1074 l 567 1074 l 462 1177 l 323 1074 l 197 1074 l 422 1248 z "},"ĵ":{"ha":282,"x_min":-134,"x_max":411,"o":"m 144 1046 l 239 1046 l 411 871 l 288 871 l 183 975 l 44 871 l -82 871 l 144 1046 m 115 738 l 208 738 l 100 -47 q 37 -250 78 -210 q -52 -289 -4 -289 q -134 -270 -90 -289 l -122 -189 q -74 -204 -98 -204 q 2 -77 -16 -204 l 115 738 z "},"Ķ":{"ha":821,"x_min":32,"x_max":820,"o":"m 165 998 l 263 998 l 210 593 l 677 998 l 820 998 l 279 531 l 747 0 l 620 0 l 196 481 l 130 0 l 32 0 l 165 998 m 275 -81 q 332 -75 302 -75 q 426 -139 426 -75 q 379 -222 426 -186 q 254 -258 332 -258 q 161 -243 212 -258 l 182 -196 q 248 -204 220 -204 q 342 -157 342 -204 q 300 -131 342 -131 q 259 -136 283 -131 l 275 -81 z "},"ķ":{"ha":697,"x_min":26,"x_max":688,"o":"m 171 1023 l 263 1023 l 185 465 l 541 738 l 688 738 l 260 408 l 637 0 l 511 0 l 171 366 l 121 0 l 26 0 l 171 1023 m 217 -81 q 274 -75 244 -75 q 368 -139 368 -75 q 321 -222 368 -186 q 196 -258 274 -258 q 102 -243 153 -258 l 124 -196 q 190 -204 162 -204 q 284 -157 284 -204 q 242 -131 284 -131 q 201 -136 224 -131 l 217 -81 z "},"ĸ":{"ha":697,"x_min":26,"x_max":688,"o":"m 130 738 l 223 738 l 185 465 l 541 738 l 688 738 l 260 408 l 637 0 l 511 0 l 171 366 l 121 0 l 26 0 l 130 738 z "},"Ļ":{"ha":642,"x_min":35,"x_max":578,"o":"m 167 998 l 267 998 l 147 94 l 578 94 l 567 0 l 35 0 l 167 998 m 210 -81 q 267 -75 237 -75 q 361 -139 361 -75 q 314 -222 361 -186 q 189 -258 267 -258 q 96 -243 146 -258 l 117 -196 q 183 -204 155 -204 q 277 -157 277 -204 q 235 -131 277 -131 q 194 -136 218 -131 l 210 -81 z "},"ļ":{"ha":278,"x_min":-124,"x_max":245,"o":"m 153 1023 l 245 1023 l 103 0 l 9 0 l 153 1023 m -9 -81 q 47 -75 18 -75 q 141 -139 141 -75 q 94 -222 141 -186 q -31 -258 47 -258 q -124 -243 -73 -258 l -102 -196 q -37 -204 -64 -204 q 58 -157 58 -204 q 16 -131 58 -131 q -26 -136 -2 -131 l -9 -81 z "},"Ņ":{"ha":1027,"x_min":34,"x_max":956,"o":"m 858 998 l 956 998 l 821 0 l 799 0 l 237 773 l 133 0 l 34 0 l 168 998 l 190 998 l 753 223 l 858 998 m 378 -81 q 435 -75 406 -75 q 529 -139 529 -75 q 482 -222 529 -186 q 357 -258 435 -258 q 264 -243 315 -258 l 286 -196 q 351 -204 323 -204 q 446 -157 446 -204 q 404 -131 446 -131 q 362 -136 386 -131 l 378 -81 z "},"ņ":{"ha":847,"x_min":28,"x_max":721,"o":"m 130 738 l 221 738 l 207 625 q 467 757 319 757 q 651 687 581 757 q 721 498 721 616 q 706 338 721 450 l 660 0 l 566 0 l 612 338 q 627 498 627 447 q 580 623 627 576 q 457 671 533 671 q 318 632 382 671 q 219 528 254 594 q 165 319 184 462 l 121 0 l 28 0 l 130 738 m 284 -81 q 341 -75 311 -75 q 435 -139 435 -75 q 388 -222 435 -186 q 263 -258 341 -258 q 170 -243 220 -258 l 191 -196 q 257 -204 229 -204 q 351 -157 351 -204 q 309 -131 351 -131 q 268 -136 292 -131 l 284 -81 z "},"Ŋ":{"ha":1079,"x_min":33,"x_max":983,"o":"m 233 760 l 132 0 l 33 0 l 166 998 l 264 998 l 248 878 q 589 1023 402 1023 q 876 901 768 1023 q 983 581 983 780 q 845 158 983 341 q 513 -25 708 -25 q 381 2 435 -25 q 286 105 326 28 l 361 164 q 527 69 416 69 q 777 227 672 69 q 882 568 882 385 q 794 829 882 730 q 565 928 707 928 q 233 760 383 928 z "},"ŋ":{"ha":847,"x_min":28,"x_max":721,"o":"m 419 -270 l 431 -189 q 479 -204 454 -204 q 555 -77 538 -204 l 610 329 q 627 498 627 446 q 581 622 627 574 q 457 671 535 671 q 306 625 372 671 q 211 511 240 578 q 165 319 182 444 l 121 0 l 28 0 l 130 738 l 221 738 l 207 625 q 467 757 319 757 q 648 689 575 757 q 721 503 721 622 q 704 325 721 444 l 653 -47 q 590 -250 631 -210 q 501 -289 549 -289 q 419 -270 463 -289 z "},"Ō":{"ha":1207,"x_min":50,"x_max":1118,"o":"m 648 1023 q 984 890 850 1023 q 1118 556 1118 758 q 948 142 1118 310 q 524 -25 778 -25 q 179 104 309 -25 q 50 441 50 233 q 127 736 50 602 q 342 946 205 870 q 648 1023 479 1023 m 646 928 q 391 866 503 928 q 213 689 279 804 q 148 445 148 574 q 195 248 148 335 q 327 115 243 161 q 524 68 410 68 q 772 133 658 68 q 952 313 887 198 q 1018 562 1018 428 q 894 842 1018 739 q 646 928 791 928 m 417 1204 l 885 1204 l 873 1124 l 406 1124 l 417 1204 z "},"ō":{"ha":909,"x_min":38,"x_max":801,"o":"m 461 757 q 634 712 555 757 q 757 586 713 667 q 801 404 801 506 q 745 189 801 288 q 593 35 688 90 q 378 -19 498 -19 q 134 78 230 -19 q 38 326 38 176 q 94 544 38 444 q 249 700 151 644 q 461 757 347 757 m 459 667 q 293 623 371 667 q 174 502 216 578 q 132 332 132 425 q 204 142 132 215 q 390 69 276 69 q 551 112 479 69 q 666 234 623 154 q 709 406 709 314 q 677 542 709 482 q 587 634 645 601 q 459 667 528 667 m 253 1003 l 721 1003 l 709 922 l 241 922 l 253 1003 z "},"Ŏ":{"ha":1207,"x_min":50,"x_max":1118,"o":"m 648 1023 q 984 890 850 1023 q 1118 556 1118 758 q 948 142 1118 310 q 524 -25 778 -25 q 179 104 309 -25 q 50 441 50 233 q 127 736 50 602 q 342 946 205 870 q 648 1023 479 1023 m 646 928 q 391 866 503 928 q 213 689 279 804 q 148 445 148 574 q 195 248 148 335 q 327 115 243 161 q 524 68 410 68 q 772 133 658 68 q 952 313 887 198 q 1018 562 1018 428 q 894 842 1018 739 q 646 928 791 928 m 415 1236 l 505 1236 q 646 1166 541 1166 q 738 1181 702 1166 q 809 1236 774 1196 l 896 1236 q 805 1134 872 1175 q 637 1093 737 1093 q 480 1134 537 1093 q 415 1236 423 1175 z "},"ŏ":{"ha":909,"x_min":38,"x_max":801,"o":"m 461 757 q 634 712 555 757 q 757 586 713 667 q 801 404 801 506 q 745 189 801 288 q 593 35 688 90 q 378 -19 498 -19 q 134 78 230 -19 q 38 326 38 176 q 94 544 38 444 q 249 700 151 644 q 461 757 347 757 m 459 667 q 293 623 371 667 q 174 502 216 578 q 132 332 132 425 q 204 142 132 215 q 390 69 276 69 q 551 112 479 69 q 666 234 623 154 q 709 406 709 314 q 677 542 709 482 q 587 634 645 601 q 459 667 528 667 m 251 1034 l 340 1034 q 482 964 376 964 q 574 979 538 964 q 645 1034 610 994 l 732 1034 q 641 932 708 973 q 473 891 573 891 q 316 932 373 891 q 251 1034 259 972 z "},"Ŗ":{"ha":843,"x_min":53,"x_max":760,"o":"m 189 998 l 439 998 q 630 972 572 998 q 724 891 688 947 q 760 761 760 835 q 717 611 760 680 q 602 507 675 542 q 409 472 528 472 l 710 0 l 597 0 l 296 472 l 218 472 l 153 0 l 53 0 l 189 998 m 276 902 l 231 570 l 346 570 q 513 580 473 570 q 619 644 578 596 q 659 761 659 692 q 603 874 659 839 q 447 902 559 902 l 276 902 m 277 -81 q 334 -75 304 -75 q 428 -139 428 -75 q 381 -222 428 -186 q 256 -258 334 -258 q 163 -243 214 -258 l 184 -196 q 250 -204 222 -204 q 345 -157 345 -204 q 302 -131 345 -131 q 261 -136 285 -131 l 277 -81 z "},"ŗ":{"ha":418,"x_min":-54,"x_max":458,"o":"m 91 738 l 185 738 l 173 645 q 264 727 211 698 q 374 757 318 757 q 458 738 414 757 l 413 651 q 354 665 378 665 q 256 631 304 665 q 177 530 208 596 q 126 313 147 464 l 83 0 l -9 0 l 91 738 m 61 -81 q 118 -75 88 -75 q 212 -139 212 -75 q 165 -222 212 -186 q 40 -258 118 -258 q -54 -243 -3 -258 l -32 -196 q 34 -204 6 -204 q 128 -157 128 -204 q 86 -131 128 -131 q 45 -136 68 -131 l 61 -81 z "},"Ŝ":{"ha":692,"x_min":10,"x_max":656,"o":"m 629 813 l 534 789 q 472 889 515 852 q 378 926 429 926 q 288 888 323 926 q 253 787 253 850 q 290 671 253 732 q 401 553 313 633 q 529 399 493 471 q 566 259 566 328 q 526 119 566 186 q 419 14 486 52 q 277 -25 352 -25 q 111 36 181 -25 q 10 215 41 97 l 102 246 q 173 113 124 157 q 286 70 222 70 q 410 123 358 70 q 463 256 463 177 q 433 368 463 313 q 317 500 404 423 q 197 629 225 585 q 152 787 152 704 q 219 956 152 889 q 385 1023 286 1023 q 533 970 468 1023 q 629 813 598 917 m 390 1248 l 484 1248 l 656 1074 l 534 1074 l 429 1177 l 290 1074 l 164 1074 l 390 1248 z "},"ŝ":{"ha":539,"x_min":-24,"x_max":531,"o":"m 471 655 l 419 578 q 271 667 357 667 q 188 635 222 667 q 153 565 153 604 q 174 508 153 535 q 267 434 195 481 q 407 315 373 366 q 440 196 440 263 q 375 42 440 103 q 207 -19 311 -19 q -24 102 70 -19 l 34 170 q 212 70 116 70 q 308 109 267 70 q 349 198 349 147 q 318 277 349 239 q 212 360 298 302 q 90 466 119 424 q 61 559 61 507 q 123 699 61 642 q 279 757 184 757 q 379 734 334 757 q 471 655 425 712 m 264 1046 l 359 1046 l 531 871 l 409 871 l 304 975 l 165 871 l 39 871 l 264 1046 z "},"Ŧ":{"ha":591,"x_min":26,"x_max":646,"o":"m 216 433 l 26 433 l 39 527 l 229 527 l 279 903 l 37 903 l 50 998 l 646 998 l 633 903 l 378 903 l 328 527 l 521 527 l 509 433 l 316 433 l 258 0 l 159 0 l 216 433 z "},"ŧ":{"ha":471,"x_min":7,"x_max":449,"o":"m 258 412 l 426 412 l 415 333 l 248 333 l 202 0 l 107 0 l 153 333 l 7 333 l 17 412 l 163 412 l 196 655 l 69 655 l 81 738 l 207 738 l 246 1014 l 339 1014 l 302 738 l 449 738 l 438 655 l 292 655 l 258 412 z "},"Ũ":{"ha":909,"x_min":66,"x_max":842,"o":"m 158 998 l 256 998 l 181 427 q 166 264 166 313 q 220 120 166 171 q 371 70 273 70 q 492 93 439 70 q 582 160 545 116 q 635 262 619 204 q 682 515 662 362 l 744 998 l 842 998 l 776 494 l 760 370 q 726 223 745 284 q 674 116 706 163 q 602 39 642 69 q 503 -8 561 9 q 373 -25 445 -25 q 146 50 226 -25 q 66 248 66 124 q 70 325 66 282 l 85 441 l 158 998 m 724 1213 l 762 1147 q 672 1100 708 1112 q 600 1088 637 1088 q 503 1113 551 1088 q 451 1138 463 1135 q 417 1143 435 1143 q 370 1134 392 1143 q 302 1096 347 1126 l 267 1165 q 429 1231 338 1231 q 529 1204 472 1231 q 614 1177 583 1177 q 724 1213 654 1177 z "},"ũ":{"ha":844,"x_min":72,"x_max":759,"o":"m 127 738 l 222 738 l 180 429 q 162 261 162 298 q 219 123 162 176 q 368 69 275 69 q 503 110 446 69 q 584 216 559 151 q 613 369 596 250 l 666 738 l 759 738 l 721 458 q 663 174 694 258 q 554 35 633 90 q 363 -19 476 -19 q 154 59 235 -19 q 72 255 72 138 q 79 364 72 302 l 86 429 l 90 457 l 127 738 m 677 1012 l 715 946 q 626 899 661 911 q 553 886 590 886 q 456 911 505 886 q 404 937 416 933 q 370 941 388 941 q 323 933 345 941 q 256 895 300 924 l 220 964 q 382 1029 292 1029 q 482 1002 425 1029 q 568 976 536 976 q 677 1012 607 976 z "},"Ū":{"ha":909,"x_min":66,"x_max":842,"o":"m 158 998 l 256 998 l 181 427 q 166 264 166 313 q 220 120 166 171 q 371 70 273 70 q 492 93 439 70 q 582 160 545 116 q 635 262 619 204 q 682 515 662 362 l 744 998 l 842 998 l 776 494 l 760 370 q 726 223 745 284 q 674 116 706 163 q 602 39 642 69 q 503 -8 561 9 q 373 -25 445 -25 q 146 50 226 -25 q 66 248 66 124 q 70 325 66 282 l 85 441 l 158 998 m 288 1204 l 755 1204 l 744 1124 l 276 1124 l 288 1204 z "},"ū":{"ha":844,"x_min":72,"x_max":759,"o":"m 127 738 l 222 738 l 180 429 q 162 261 162 298 q 219 123 162 176 q 368 69 275 69 q 503 110 446 69 q 584 216 559 151 q 613 369 596 250 l 666 738 l 759 738 l 721 458 q 663 174 694 258 q 554 35 633 90 q 363 -19 476 -19 q 154 59 235 -19 q 72 255 72 138 q 79 364 72 302 l 86 429 l 90 457 l 127 738 m 249 1003 l 717 1003 l 705 922 l 237 922 l 249 1003 z "},"Ŭ":{"ha":909,"x_min":66,"x_max":842,"o":"m 158 998 l 256 998 l 181 427 q 166 264 166 313 q 220 120 166 171 q 371 70 273 70 q 492 93 439 70 q 582 160 545 116 q 635 262 619 204 q 682 515 662 362 l 744 998 l 842 998 l 776 494 l 760 370 q 726 223 745 284 q 674 116 706 163 q 602 39 642 69 q 503 -8 561 9 q 373 -25 445 -25 q 146 50 226 -25 q 66 248 66 124 q 70 325 66 282 l 85 441 l 158 998 m 286 1236 l 375 1236 q 517 1166 411 1166 q 608 1181 572 1166 q 680 1236 644 1196 l 766 1236 q 675 1134 743 1175 q 507 1093 608 1093 q 351 1134 408 1093 q 286 1236 294 1175 z "},"ŭ":{"ha":844,"x_min":72,"x_max":759,"o":"m 127 738 l 222 738 l 180 429 q 162 261 162 298 q 219 123 162 176 q 368 69 275 69 q 503 110 446 69 q 584 216 559 151 q 613 369 596 250 l 666 738 l 759 738 l 721 458 q 663 174 694 258 q 554 35 633 90 q 363 -19 476 -19 q 154 59 235 -19 q 72 255 72 138 q 79 364 72 302 l 86 429 l 90 457 l 127 738 m 247 1034 l 336 1034 q 478 964 372 964 q 570 979 534 964 q 641 1034 606 994 l 728 1034 q 636 932 704 973 q 469 891 569 891 q 312 932 369 891 q 247 1034 255 972 z "},"Ų":{"ha":909,"x_min":66,"x_max":842,"o":"m 158 998 l 256 998 l 181 427 q 166 264 166 313 q 220 120 166 171 q 371 70 273 70 q 492 93 439 70 q 582 160 545 116 q 635 262 619 204 q 682 515 662 362 l 744 998 l 842 998 l 776 494 l 760 370 q 726 223 745 284 q 674 116 706 163 q 602 39 642 69 q 503 -8 561 9 q 373 -25 445 -25 q 146 50 226 -25 q 66 248 66 124 q 70 325 66 282 l 85 441 l 158 998 m 393 0 l 467 0 q 366 -138 366 -77 q 387 -187 366 -168 q 454 -205 409 -205 q 502 -202 475 -205 l 488 -260 q 429 -267 458 -267 q 325 -236 359 -267 q 290 -159 290 -205 q 317 -75 290 -119 q 393 0 345 -31 z "},"ų":{"ha":844,"x_min":72,"x_max":759,"o":"m 127 738 l 222 738 l 180 429 q 162 261 162 298 q 219 123 162 176 q 368 69 275 69 q 503 110 446 69 q 584 216 559 151 q 613 369 596 250 l 666 738 l 759 738 l 721 458 q 663 174 694 258 q 554 35 633 90 q 363 -19 476 -19 q 154 59 235 -19 q 72 255 72 138 q 79 364 72 302 l 86 429 l 90 457 l 127 738 m 367 0 l 441 0 q 340 -138 340 -77 q 361 -187 340 -168 q 429 -205 383 -205 q 476 -202 449 -205 l 462 -260 q 404 -267 433 -267 q 299 -236 333 -267 q 264 -159 264 -205 q 292 -75 264 -119 q 367 0 319 -31 z "},"Ŵ":{"ha":1333,"x_min":85,"x_max":1358,"o":"m 85 998 l 182 998 l 321 256 l 707 998 l 726 998 l 900 256 l 1253 998 l 1358 998 l 882 0 l 863 0 l 688 751 l 290 0 l 272 0 l 85 998 m 699 1248 l 793 1248 l 966 1074 l 844 1074 l 739 1177 l 600 1074 l 473 1074 l 699 1248 z "},"ŵ":{"ha":1154,"x_min":47,"x_max":1128,"o":"m 47 738 l 142 738 l 294 217 l 571 738 l 587 738 l 755 212 l 1027 738 l 1128 738 l 747 0 l 728 0 l 557 521 l 280 0 l 262 0 l 47 738 m 566 1046 l 660 1046 l 832 871 l 710 871 l 605 975 l 466 871 l 340 871 l 566 1046 z "},"Ŷ":{"ha":822,"x_min":56,"x_max":855,"o":"m 56 998 l 161 998 l 374 545 l 734 998 l 855 998 l 413 442 l 353 0 l 255 0 l 315 448 l 56 998 m 433 1248 l 528 1248 l 700 1074 l 578 1074 l 473 1177 l 334 1074 l 208 1074 l 433 1248 z "},"ŷ":{"ha":745,"x_min":32,"x_max":742,"o":"m 32 738 l 130 738 l 321 193 l 637 738 l 742 738 l 157 -270 l 51 -270 l 260 90 l 32 738 m 365 1046 l 459 1046 l 631 871 l 509 871 l 404 975 l 265 871 l 139 871 l 365 1046 z "},"ſ":{"ha":278,"x_min":9,"x_max":406,"o":"m 406 998 l 393 908 q 296 957 342 957 q 252 935 274 957 q 216 817 229 912 l 102 0 l 9 0 l 122 803 q 150 942 136 902 q 202 1011 164 981 q 290 1042 239 1042 q 406 998 351 1042 z "},"Ǻ":{"ha":1027,"x_min":-20,"x_max":912,"o":"m 578 998 l 912 0 l 810 0 l 701 326 l 278 326 l 92 0 l -20 0 l 555 998 l 578 998 m 546 789 l 333 421 l 669 421 l 546 789 m 608 1241 q 698 1205 662 1241 q 734 1116 734 1170 q 683 1001 734 1051 q 566 951 633 951 q 477 987 513 951 q 441 1076 441 1023 q 492 1191 441 1141 q 608 1241 542 1241 m 597 1173 q 537 1147 563 1173 q 511 1088 511 1121 q 530 1042 511 1060 q 576 1023 548 1023 q 636 1049 610 1023 q 662 1108 662 1075 q 643 1154 662 1136 q 597 1173 625 1173 m 648 1472 l 794 1472 l 564 1263 l 471 1263 l 648 1472 z "},"ǻ":{"ha":949,"x_min":41,"x_max":859,"o":"m 760 0 l 665 0 l 679 111 q 385 -19 551 -19 q 138 78 235 -19 q 41 328 41 175 q 166 630 41 504 q 463 757 292 757 q 624 718 555 757 q 743 597 694 680 l 760 738 l 859 738 l 760 0 m 395 68 q 562 111 487 68 q 682 235 637 154 q 726 410 726 315 q 653 597 726 525 q 465 669 581 669 q 231 570 328 669 q 134 329 134 472 q 207 140 134 212 q 395 68 279 68 m 542 1117 q 632 1081 596 1117 q 668 992 668 1046 q 617 877 668 927 q 500 827 567 827 q 411 863 447 827 q 376 952 376 899 q 426 1067 376 1017 q 542 1117 476 1117 m 531 1048 q 471 1023 497 1048 q 446 964 446 997 q 464 918 446 936 q 510 899 482 899 q 570 925 545 899 q 596 984 596 951 q 577 1030 596 1012 q 531 1048 559 1048 m 600 1377 l 745 1377 l 515 1168 l 422 1168 l 600 1377 z "},"Ǽ":{"ha":1378,"x_min":-22,"x_max":1303,"o":"m 1182 0 l 618 0 l 662 324 l 320 324 l 85 0 l -22 0 l 696 998 l 1303 998 l 1289 901 l 840 901 l 796 574 l 1244 574 l 1232 478 l 783 478 l 732 96 l 1193 96 l 1182 0 m 741 911 l 389 421 l 675 421 l 741 911 m 968 1285 l 1114 1285 l 884 1076 l 791 1076 l 968 1285 z "},"ǽ":{"ha":1607,"x_min":39,"x_max":1501,"o":"m 779 738 l 864 738 l 849 617 q 989 722 911 687 q 1157 757 1067 757 q 1404 662 1308 757 q 1501 415 1501 566 q 1495 350 1501 385 l 827 350 l 825 318 q 860 192 825 252 q 954 100 895 132 q 1093 68 1014 68 q 1348 186 1244 68 l 1421 133 q 1083 -19 1299 -19 q 905 19 977 -19 q 783 136 833 58 l 765 0 l 681 0 l 695 115 q 550 13 625 45 q 385 -19 475 -19 q 140 75 230 -19 q 39 334 39 179 q 164 632 39 507 q 460 757 290 757 q 647 709 569 757 q 759 589 705 673 l 779 738 m 463 669 q 214 555 309 669 q 132 330 132 458 q 206 141 132 214 q 402 69 280 69 q 570 113 493 69 q 691 235 647 156 q 736 399 736 314 q 700 536 736 472 q 603 635 664 601 q 463 669 543 669 m 1411 431 q 1342 600 1408 532 q 1158 668 1276 668 q 962 605 1046 668 q 844 431 878 541 l 1411 431 m 903 1084 l 1049 1084 l 819 875 l 726 875 l 903 1084 z "},"Ǿ":{"ha":1206,"x_min":49,"x_max":1117,"o":"m 991 883 q 1117 557 1117 753 q 947 143 1117 311 q 525 -24 777 -24 q 255 43 367 -24 l 165 -59 l 99 1 l 184 98 q 49 441 49 230 q 126 735 49 602 q 340 946 203 869 q 640 1023 477 1023 q 922 941 799 1023 l 1004 1036 l 1073 977 l 991 883 m 249 173 l 858 869 q 634 929 765 929 q 389 865 502 929 q 212 688 276 802 q 147 446 147 574 q 174 294 147 366 q 249 173 201 223 m 927 810 l 321 118 q 524 69 410 69 q 772 134 657 69 q 952 314 887 199 q 1017 562 1017 429 q 927 810 1017 709 m 736 1285 l 882 1285 l 652 1076 l 559 1076 l 736 1285 z "},"ǿ":{"ha":907,"x_min":37,"x_max":813,"o":"m 726 631 q 800 404 800 534 q 744 189 800 288 q 592 35 688 90 q 378 -19 497 -19 q 199 26 272 -19 l 111 -75 l 43 -16 l 129 83 q 37 326 37 182 q 93 543 37 444 q 246 700 149 642 q 454 757 344 757 q 661 694 575 757 l 743 789 l 813 732 l 726 631 m 191 155 l 601 625 q 452 667 536 667 q 291 622 368 667 q 172 500 214 577 q 131 332 131 424 q 191 155 131 228 m 665 561 l 262 98 q 389 69 319 69 q 550 112 477 69 q 665 234 622 154 q 707 405 707 314 q 665 561 707 492 m 587 1084 l 733 1084 l 503 875 l 410 875 l 587 1084 z "},"΄":{"ha":525,"x_min":237,"x_max":367,"o":"m 367 1084 l 317 854 l 237 854 l 248 1084 l 367 1084 z "},"΅":{"ha":525,"x_min":60,"x_max":515,"o":"m 367 1084 l 317 854 l 237 854 l 248 1084 l 367 1084 m 447 876 q 394 927 394 876 q 415 976 395 956 q 463 996 436 996 q 515 945 515 996 q 495 896 515 917 q 447 876 474 876 m 113 876 q 60 927 60 876 q 82 976 60 956 q 130 996 103 996 q 182 945 182 996 q 161 896 182 917 q 113 876 140 876 z "},"Ά":{"ha":1027,"x_min":-20,"x_max":912,"o":"m 578 998 l 912 0 l 810 0 l 701 326 l 278 326 l 92 0 l -20 0 l 555 998 l 578 998 m 546 789 l 333 421 l 669 421 l 546 789 m 325 1023 l 275 793 l 195 793 l 206 1023 l 325 1023 z "},"·":{"ha":385,"x_min":124,"x_max":290,"o":"m 290 674 q 266 615 290 639 q 207 591 241 591 q 148 615 172 591 q 124 674 124 639 q 148 732 124 708 q 207 757 172 757 q 266 733 241 757 q 290 674 290 709 z "},"Έ":{"ha":806,"x_min":-41,"x_max":777,"o":"m 777 998 l 763 901 l 314 901 l 270 574 l 719 574 l 706 478 l 257 478 l 206 96 l 655 96 l 644 0 l 94 0 l 227 998 l 777 998 m 88 1023 l 39 793 l -41 793 l -31 1023 l 88 1023 z "},"Ή":{"ha":1010,"x_min":-41,"x_max":934,"o":"m 227 998 l 326 998 l 272 592 l 783 592 l 837 998 l 934 998 l 803 0 l 705 0 l 771 498 l 258 498 l 193 0 l 94 0 l 227 998 m 88 1023 l 39 793 l -41 793 l -31 1023 l 88 1023 z "},"Ί":{"ha":375,"x_min":-41,"x_max":323,"o":"m 222 998 l 323 998 l 188 0 l 87 0 l 222 998 m 88 1023 l 39 793 l -41 793 l -31 1023 l 88 1023 z "},"Ό":{"ha":1207,"x_min":-41,"x_max":1118,"o":"m 648 1023 q 984 890 850 1023 q 1118 556 1118 758 q 948 142 1118 310 q 524 -25 778 -25 q 179 104 309 -25 q 50 441 50 233 q 127 736 50 602 q 342 946 205 870 q 648 1023 479 1023 m 646 928 q 391 866 503 928 q 213 689 279 804 q 148 445 148 574 q 195 248 148 335 q 327 115 243 161 q 524 68 410 68 q 772 133 658 68 q 952 313 887 198 q 1018 562 1018 428 q 894 842 1018 739 q 646 928 791 928 m 88 1023 l 39 793 l -41 793 l -31 1023 l 88 1023 z "},"Ύ":{"ha":897,"x_min":-41,"x_max":930,"o":"m 131 998 l 235 998 l 449 545 l 809 998 l 930 998 l 488 442 l 427 0 l 330 0 l 390 448 l 131 998 m 88 1023 l 39 793 l -41 793 l -31 1023 l 88 1023 z "},"Ώ":{"ha":1162,"x_min":-42,"x_max":1065,"o":"m 668 94 l 966 94 l 954 0 l 567 0 l 585 133 q 964 615 964 329 q 869 844 965 760 q 617 928 773 928 q 299 802 427 928 q 170 496 171 677 q 214 331 170 409 q 424 133 258 254 l 406 0 l 33 0 l 45 94 l 332 94 q 71 498 71 272 q 229 868 71 715 q 630 1022 386 1022 q 945 910 825 1022 q 1065 625 1065 799 q 668 94 1065 271 m 87 1023 l 38 793 l -42 793 l -31 1023 l 87 1023 z "},"ΐ":{"ha":278,"x_min":-51,"x_max":404,"o":"m 112 738 l 202 738 l 104 0 l 10 0 l 112 738 m 256 1084 l 206 854 l 126 854 l 137 1084 l 256 1084 m 336 876 q 283 927 283 876 q 304 976 283 956 q 352 996 325 996 q 404 945 404 996 q 384 896 404 917 q 336 876 363 876 m 2 876 q -51 927 -51 876 q -30 976 -51 956 q 18 996 -8 996 q 71 945 71 996 q 50 896 71 917 q 2 876 29 876 z "},"Α":{"ha":1027,"x_min":-20,"x_max":912,"o":"m 578 998 l 912 0 l 810 0 l 701 326 l 278 326 l 92 0 l -20 0 l 555 998 l 578 998 m 546 789 l 333 421 l 669 421 l 546 789 z "},"Β":{"ha":798,"x_min":34,"x_max":727,"o":"m 167 998 l 295 998 q 550 975 484 998 q 657 896 616 952 q 699 763 699 840 q 655 620 699 683 q 538 529 612 557 q 677 436 627 502 q 727 281 727 371 q 684 124 727 190 q 568 29 641 58 q 318 0 496 0 l 34 0 l 167 998 m 253 903 l 208 572 q 276 569 237 569 q 472 591 412 569 q 565 659 532 612 q 598 762 598 705 q 546 870 598 835 q 326 905 494 905 q 253 903 296 905 m 196 474 l 146 94 l 281 94 q 475 106 422 94 q 588 167 549 123 q 626 281 626 212 q 595 386 626 344 q 492 451 564 427 q 279 474 421 474 l 196 474 z "},"Γ":{"ha":642,"x_min":33,"x_max":665,"o":"m 652 903 l 252 903 l 132 0 l 33 0 l 165 998 l 665 998 l 652 903 z "},"Δ":{"ha":1027,"x_min":-54,"x_max":907,"o":"m 907 0 l -54 0 l 550 998 l 574 998 l 907 0 m 771 95 l 538 789 l 118 95 l 771 95 z "},"Ε":{"ha":745,"x_min":33,"x_max":716,"o":"m 716 998 l 702 901 l 253 901 l 209 574 l 658 574 l 645 478 l 196 478 l 145 96 l 594 96 l 583 0 l 33 0 l 166 998 l 716 998 z "},"Ζ":{"ha":667,"x_min":9,"x_max":660,"o":"m 147 998 l 660 998 l 170 95 l 544 95 l 531 0 l 9 0 l 500 901 l 134 901 l 147 998 z "},"Η":{"ha":949,"x_min":33,"x_max":873,"o":"m 166 998 l 264 998 l 211 592 l 722 592 l 776 998 l 873 998 l 742 0 l 644 0 l 710 498 l 197 498 l 132 0 l 33 0 l 166 998 z "},"Θ":{"ha":1207,"x_min":50,"x_max":1118,"o":"m 1118 556 q 947 141 1118 307 q 524 -25 777 -25 q 180 102 311 -25 q 50 441 50 229 q 220 855 50 687 q 648 1023 391 1023 q 985 890 852 1023 q 1118 556 1118 758 m 148 445 q 248 175 148 281 q 524 68 349 68 q 875 211 732 68 q 1018 562 1018 353 q 910 827 1018 726 q 646 928 803 928 q 282 784 416 928 q 148 445 148 640 m 825 457 l 326 457 l 338 552 l 838 552 l 825 457 z "},"Ι":{"ha":314,"x_min":26,"x_max":262,"o":"m 161 998 l 262 998 l 127 0 l 26 0 l 161 998 z "},"Κ":{"ha":821,"x_min":32,"x_max":820,"o":"m 165 998 l 263 998 l 210 593 l 677 998 l 820 998 l 279 531 l 747 0 l 620 0 l 196 481 l 130 0 l 32 0 l 165 998 z "},"Λ":{"ha":975,"x_min":-63,"x_max":859,"o":"m 859 0 l 758 0 l 511 790 l 47 0 l -63 0 l 522 998 l 545 998 l 859 0 z "},"Μ":{"ha":1276,"x_min":-2,"x_max":1114,"o":"m 1114 998 l 1114 0 l 1020 0 l 1020 688 l 587 0 l 562 0 l 304 712 l 99 0 l -2 0 l 286 998 l 302 998 l 594 187 l 1098 998 l 1114 998 z "},"Ν":{"ha":1027,"x_min":34,"x_max":956,"o":"m 858 998 l 956 998 l 821 0 l 799 0 l 237 773 l 133 0 l 34 0 l 168 998 l 190 998 l 753 223 l 858 998 z "},"Ξ":{"ha":737,"x_min":-9,"x_max":705,"o":"m 692 903 l 111 903 l 123 998 l 705 998 l 692 903 m 637 491 l 56 491 l 68 586 l 650 586 l 637 491 m 572 0 l -9 0 l 3 95 l 584 95 l 572 0 z "},"Ο":{"ha":1207,"x_min":50,"x_max":1118,"o":"m 648 1023 q 984 890 850 1023 q 1118 556 1118 758 q 948 142 1118 310 q 524 -25 778 -25 q 179 104 309 -25 q 50 441 50 233 q 127 736 50 602 q 342 946 205 870 q 648 1023 479 1023 m 646 928 q 391 866 503 928 q 213 689 279 804 q 148 445 148 574 q 195 248 148 335 q 327 115 243 161 q 524 68 410 68 q 772 133 658 68 q 952 313 887 198 q 1018 562 1018 428 q 894 842 1018 739 q 646 928 791 928 z "},"Π":{"ha":949,"x_min":33,"x_max":873,"o":"m 741 0 l 642 0 l 762 903 l 251 903 l 131 0 l 33 0 l 165 998 l 873 998 l 741 0 z "},"Ρ":{"ha":822,"x_min":44,"x_max":772,"o":"m 178 998 l 450 998 q 643 972 585 998 q 737 892 702 947 q 772 762 772 837 q 717 590 772 663 q 576 491 661 517 q 359 471 515 471 l 208 471 l 144 0 l 44 0 l 178 998 m 266 901 l 220 570 l 359 570 q 553 589 499 570 q 640 655 607 608 q 673 760 673 703 q 650 841 673 808 q 589 888 628 874 q 444 901 549 901 l 266 901 z "},"Σ":{"ha":696,"x_min":-43,"x_max":664,"o":"m 541 0 l -43 0 l 302 498 l 94 998 l 664 998 l 651 901 l 240 901 l 412 489 l 143 97 l 554 97 l 541 0 z "},"Τ":{"ha":591,"x_min":37,"x_max":646,"o":"m 50 998 l 646 998 l 633 903 l 378 903 l 258 0 l 159 0 l 279 903 l 37 903 l 50 998 z "},"Υ":{"ha":822,"x_min":56,"x_max":855,"o":"m 56 998 l 161 998 l 374 545 l 734 998 l 855 998 l 413 442 l 353 0 l 255 0 l 315 448 l 56 998 z "},"Φ":{"ha":1194,"x_min":45,"x_max":1109,"o":"m 571 98 l 558 0 l 460 0 l 473 98 q 160 206 276 112 q 45 454 45 300 q 189 783 45 664 q 582 912 334 901 l 593 998 l 691 998 l 680 912 q 993 804 878 899 q 1109 555 1109 709 q 965 226 1109 345 q 571 98 822 108 m 486 191 l 570 820 q 145 461 145 793 q 486 191 145 214 m 667 820 l 583 191 q 1008 549 1008 218 q 667 820 1008 797 z "},"Χ":{"ha":846,"x_min":-31,"x_max":840,"o":"m 147 998 l 253 998 l 429 610 l 723 998 l 840 998 l 473 514 l 709 0 l 604 0 l 409 425 l 86 0 l -31 0 l 365 523 l 147 998 z "},"Ψ":{"ha":1099,"x_min":87,"x_max":1049,"o":"m 1003 654 q 945 444 985 515 q 808 312 905 372 q 543 243 711 252 l 511 0 l 413 0 l 446 243 q 87 548 87 264 q 96 661 87 595 l 140 998 l 240 998 l 199 694 q 189 568 189 614 q 250 407 189 463 q 458 340 310 352 l 546 998 l 644 998 l 556 340 q 760 395 644 341 q 909 694 877 450 l 949 998 l 1049 998 l 1003 654 z "},"Ω":{"ha":1162,"x_min":33,"x_max":1065,"o":"m 668 94 l 966 94 l 954 0 l 567 0 l 585 133 q 964 615 964 329 q 869 844 965 760 q 617 928 773 928 q 299 802 427 928 q 170 496 171 677 q 214 331 170 409 q 424 133 258 254 l 406 0 l 33 0 l 45 94 l 332 94 q 71 498 71 272 q 229 868 71 715 q 630 1022 386 1022 q 945 910 825 1022 q 1065 625 1065 799 q 668 94 1065 271 z "},"Ϊ":{"ha":314,"x_min":24,"x_max":460,"o":"m 161 998 l 262 998 l 127 0 l 26 0 l 161 998 m 115 1232 q 163 1212 144 1232 q 183 1164 183 1192 q 156 1101 183 1128 q 92 1074 128 1074 q 44 1094 63 1074 q 24 1142 24 1113 q 52 1204 24 1177 q 115 1232 79 1232 m 391 1232 q 440 1212 421 1232 q 460 1164 460 1192 q 432 1101 460 1128 q 369 1074 405 1074 q 320 1094 340 1074 q 301 1142 301 1113 q 328 1204 301 1177 q 391 1232 355 1232 z "},"Ϋ":{"ha":822,"x_min":56,"x_max":855,"o":"m 56 998 l 161 998 l 374 545 l 734 998 l 855 998 l 413 442 l 353 0 l 255 0 l 315 448 l 56 998 m 344 1232 q 393 1212 373 1232 q 412 1164 412 1192 q 385 1101 412 1128 q 321 1074 357 1074 q 273 1094 292 1074 q 254 1142 254 1113 q 281 1204 254 1177 q 344 1232 308 1232 m 621 1232 q 670 1212 650 1232 q 689 1164 689 1192 q 662 1101 689 1128 q 598 1074 634 1074 q 550 1094 569 1074 q 530 1142 530 1113 q 557 1204 530 1177 q 621 1232 585 1232 z "},"ά":{"ha":949,"x_min":41,"x_max":859,"o":"m 760 0 l 665 0 l 679 111 q 385 -19 551 -19 q 138 78 235 -19 q 41 328 41 175 q 166 630 41 504 q 463 757 292 757 q 624 718 555 757 q 743 597 694 680 l 760 738 l 859 738 l 760 0 m 395 68 q 562 111 487 68 q 682 235 637 154 q 726 410 726 315 q 653 597 726 525 q 465 669 581 669 q 231 570 328 669 q 134 329 134 472 q 207 140 134 212 q 395 68 279 68 m 590 1084 l 541 854 l 460 854 l 471 1084 l 590 1084 z "},"έ":{"ha":587,"x_min":9,"x_max":532,"o":"m 484 79 q 227 -20 378 -20 q 71 35 132 -20 q 9 178 9 90 q 165 404 9 339 q 86 534 86 451 q 156 693 86 629 q 332 758 227 758 q 532 675 444 758 l 469 609 q 323 669 400 669 q 216 628 256 669 q 177 530 177 588 q 208 456 177 486 q 289 427 239 427 l 338 427 l 328 346 l 269 346 q 156 301 205 346 q 107 184 107 256 q 247 69 107 69 q 433 146 354 69 l 484 79 m 410 1084 l 360 854 l 280 854 l 291 1084 l 410 1084 z "},"ή":{"ha":847,"x_min":28,"x_max":721,"o":"m 130 738 l 221 738 l 207 625 q 467 757 319 757 q 652 686 583 757 q 721 498 721 616 q 706 338 721 449 l 624 -270 l 530 -270 l 612 338 q 627 498 627 450 q 581 623 627 576 q 457 671 534 671 q 282 607 368 671 q 165 319 196 543 l 121 0 l 28 0 l 130 738 m 539 1084 l 490 854 l 410 854 l 420 1084 l 539 1084 z "},"ί":{"ha":278,"x_min":9,"x_max":257,"o":"m 111 738 l 201 738 l 103 0 l 9 0 l 111 738 m 257 1084 l 208 854 l 127 854 l 138 1084 l 257 1084 z "},"ΰ":{"ha":827,"x_min":47,"x_max":720,"o":"m 104 738 l 198 738 l 152 393 q 142 271 142 317 q 338 70 142 70 q 546 167 469 70 q 623 410 624 264 q 493 675 623 572 l 553 758 q 720 429 720 619 q 614 106 720 231 q 325 -19 508 -19 q 47 257 47 -19 q 57 382 47 309 l 104 738 m 530 1084 l 480 854 l 400 854 l 411 1084 l 530 1084 m 610 876 q 557 927 557 876 q 578 976 557 956 q 626 996 599 996 q 678 945 678 996 q 657 896 678 917 q 610 876 637 876 m 276 876 q 223 927 223 876 q 244 976 223 956 q 292 996 266 996 q 345 945 345 996 q 324 896 345 917 q 276 876 303 876 z "},"α":{"ha":949,"x_min":41,"x_max":859,"o":"m 760 0 l 665 0 l 679 111 q 385 -19 551 -19 q 138 78 235 -19 q 41 328 41 175 q 166 630 41 504 q 463 757 292 757 q 624 718 555 757 q 743 597 694 680 l 760 738 l 859 738 l 760 0 m 395 68 q 562 111 487 68 q 682 235 637 154 q 726 410 726 315 q 653 597 726 525 q 465 669 581 669 q 231 570 328 669 q 134 329 134 472 q 207 140 134 212 q 395 68 279 68 z "},"β":{"ha":828,"x_min":-18,"x_max":711,"o":"m 132 134 l 78 -270 l -18 -270 l 118 751 q 215 966 137 890 q 422 1042 293 1042 q 584 986 524 1042 q 644 838 644 930 q 467 610 644 665 q 643 519 574 600 q 711 326 711 439 q 616 73 711 165 q 361 -19 522 -19 q 132 134 210 -19 m 280 546 l 291 625 q 476 681 406 628 q 546 823 546 733 q 513 918 546 883 q 424 954 481 954 q 279 901 330 954 q 211 728 227 849 l 158 332 q 155 298 155 315 q 215 136 155 203 q 372 68 275 68 q 551 135 488 68 q 614 325 614 202 q 328 546 614 546 l 280 546 z "},"γ":{"ha":770,"x_min":38,"x_max":735,"o":"m 351 71 l 305 -270 l 212 -270 l 260 93 l 38 738 l 135 738 l 321 198 l 632 738 l 735 738 l 351 71 z "},"δ":{"ha":794,"x_min":35,"x_max":694,"o":"m 310 614 q 222 781 222 680 q 312 967 222 892 q 530 1042 401 1042 q 688 1023 615 1042 l 652 938 q 525 953 598 953 q 377 909 435 953 q 320 789 320 865 q 355 706 320 741 q 505 622 390 671 q 694 356 694 542 q 589 92 694 203 q 321 -19 483 -19 q 117 64 199 -19 q 35 268 35 146 q 105 475 35 380 q 310 614 176 570 m 597 343 q 541 487 597 427 q 397 547 484 547 q 211 464 290 547 q 132 273 132 381 q 189 129 132 186 q 333 71 245 71 q 526 153 454 71 q 597 343 597 234 m 397 637 z "},"ε":{"ha":587,"x_min":24,"x_max":546,"o":"m 498 79 q 241 -20 393 -20 q 85 35 146 -20 q 24 178 24 90 q 180 404 24 339 q 100 534 100 451 q 171 693 100 629 q 346 758 241 758 q 546 675 458 758 l 484 609 q 338 669 414 669 q 231 628 270 669 q 191 530 191 588 q 222 456 191 486 q 303 427 253 427 l 353 427 l 342 346 l 283 346 q 171 301 220 346 q 121 184 121 256 q 261 69 121 69 q 447 146 368 69 l 498 79 z "},"ζ":{"ha":646,"x_min":34,"x_max":665,"o":"m 139 -275 l 175 -190 q 254 -201 216 -201 q 437 -87 437 -201 q 403 -28 437 -50 q 272 14 370 -5 q 34 283 34 61 q 149 593 34 439 q 537 939 263 747 l 196 939 l 208 1023 l 665 1023 l 654 939 q 261 597 392 743 q 129 290 130 451 q 171 165 129 210 q 328 96 213 120 q 490 32 446 71 q 534 -69 534 -7 q 466 -228 534 -167 q 249 -289 397 -289 q 139 -275 190 -289 z "},"η":{"ha":847,"x_min":28,"x_max":721,"o":"m 130 738 l 221 738 l 207 625 q 467 757 319 757 q 652 686 583 757 q 721 498 721 616 q 706 338 721 449 l 624 -270 l 530 -270 l 612 338 q 627 498 627 450 q 581 623 627 576 q 457 671 534 671 q 282 607 368 671 q 165 319 196 543 l 121 0 l 28 0 l 130 738 z "},"θ":{"ha":909,"x_min":43,"x_max":827,"o":"m 365 -19 q 126 90 210 -19 q 43 389 43 199 q 166 845 43 649 q 507 1042 290 1042 q 749 925 671 1042 q 827 631 827 808 q 705 175 827 369 q 365 -19 582 -19 m 730 553 q 734 625 734 591 q 673 869 734 783 q 495 955 612 955 q 276 846 366 955 q 152 553 186 737 l 730 553 m 720 470 l 140 470 q 136 387 136 427 q 376 68 136 68 q 598 174 509 68 q 720 470 687 281 z "},"ι":{"ha":278,"x_min":9,"x_max":201,"o":"m 111 738 l 201 738 l 103 0 l 9 0 l 111 738 z "},"κ":{"ha":697,"x_min":26,"x_max":688,"o":"m 132 739 l 224 739 l 185 465 l 541 738 l 688 738 l 260 408 l 637 0 l 511 0 l 171 366 l 121 0 l 26 0 l 132 739 z "},"λ":{"ha":745,"x_min":-59,"x_max":638,"o":"m 638 0 l 541 0 l 371 568 l 41 0 l -59 0 l 335 682 l 231 1023 l 328 1023 l 638 0 z "},"μ":{"ha":847,"x_min":-26,"x_max":746,"o":"m 746 738 l 644 0 l 553 0 l 567 113 q 317 -19 480 -19 q 116 79 171 -19 l 66 -270 l -26 -270 l 114 738 l 208 738 l 162 399 q 146 241 146 286 q 194 114 146 161 q 317 67 241 67 q 465 111 401 67 q 559 216 529 154 q 609 419 589 277 l 653 738 l 746 738 z "},"ν":{"ha":770,"x_min":38,"x_max":735,"o":"m 38 738 l 135 738 l 321 198 l 632 738 l 735 738 l 310 0 l 292 0 l 38 738 z "},"ξ":{"ha":646,"x_min":32,"x_max":668,"o":"m 139 -275 l 175 -190 q 254 -201 216 -201 q 437 -86 437 -201 q 407 -33 437 -53 q 285 8 377 -12 q 88 107 144 39 q 32 272 32 175 q 288 601 32 527 q 154 783 154 667 q 245 968 154 894 q 482 1042 336 1042 q 668 1017 587 1042 l 633 926 q 457 953 559 953 q 308 902 366 953 q 250 779 250 851 q 319 671 250 711 q 486 631 388 631 l 566 631 l 555 548 l 418 548 q 214 479 297 548 q 130 278 130 410 q 166 164 130 206 q 313 98 203 122 q 491 28 447 67 q 534 -70 534 -11 q 467 -228 535 -166 q 249 -289 398 -289 q 139 -275 190 -289 z "},"ο":{"ha":909,"x_min":38,"x_max":801,"o":"m 461 757 q 634 712 555 757 q 757 586 713 667 q 801 404 801 506 q 745 189 801 288 q 593 35 688 90 q 378 -19 498 -19 q 134 78 230 -19 q 38 326 38 176 q 94 544 38 444 q 249 700 151 644 q 461 757 347 757 m 459 667 q 293 623 371 667 q 174 502 216 578 q 132 332 132 425 q 204 142 132 215 q 390 69 276 69 q 551 112 479 69 q 666 234 623 154 q 709 406 709 314 q 677 542 709 482 q 587 634 645 601 q 459 667 528 667 z "},"π":{"ha":931,"x_min":34,"x_max":908,"o":"m 897 654 l 745 654 l 657 0 l 564 0 l 652 654 l 279 654 l 192 0 l 99 0 l 186 654 l 34 654 l 45 738 l 908 738 l 897 654 z "},"ρ":{"ha":930,"x_min":-26,"x_max":823,"o":"m 123 143 l 68 -270 l -26 -270 l 60 349 q 216 664 92 571 q 483 757 340 757 q 725 658 627 757 q 823 404 823 559 q 705 106 823 231 q 400 -19 587 -19 q 123 143 220 -19 m 154 332 q 225 142 154 216 q 412 69 296 69 q 644 169 557 69 q 730 406 730 269 q 656 599 730 532 q 481 667 581 667 q 249 572 345 667 q 154 332 154 478 z "},"ς":{"ha":804,"x_min":28,"x_max":772,"o":"m 772 614 l 696 567 q 454 667 615 667 q 219 566 315 667 q 124 318 124 465 q 177 179 124 230 q 374 100 230 127 q 568 34 518 73 q 618 -69 618 -5 q 550 -228 618 -167 q 333 -289 481 -289 q 223 -275 274 -289 l 259 -190 q 338 -201 300 -201 q 521 -87 521 -201 q 486 -28 521 -51 q 336 14 450 -6 q 28 311 28 68 q 155 625 28 493 q 463 757 281 757 q 645 723 574 757 q 772 614 715 690 z "},"σ":{"ha":996,"x_min":38,"x_max":979,"o":"m 576 738 l 979 738 l 968 654 l 707 654 q 801 404 801 554 q 683 106 801 231 q 378 -19 565 -19 q 134 78 229 -19 q 38 326 38 174 q 161 632 38 508 q 461 757 285 757 q 576 738 522 757 m 132 332 q 203 142 132 216 q 390 69 274 69 q 625 172 541 69 q 709 406 709 275 q 634 599 709 532 q 459 667 559 667 q 228 572 323 667 q 132 332 132 478 z "},"τ":{"ha":558,"x_min":34,"x_max":535,"o":"m 524 654 l 326 654 l 239 0 l 145 0 l 233 654 l 34 654 l 45 738 l 535 738 l 524 654 z "},"υ":{"ha":827,"x_min":47,"x_max":720,"o":"m 104 738 l 198 738 l 152 393 q 142 271 142 317 q 338 70 142 70 q 546 167 469 70 q 623 410 624 264 q 493 675 623 572 l 553 758 q 720 429 720 619 q 614 106 720 231 q 325 -19 508 -19 q 47 257 47 -19 q 57 382 47 309 l 104 738 z "},"φ":{"ha":1063,"x_min":30,"x_max":958,"o":"m 490 -18 l 457 -270 l 361 -270 l 395 -17 q 129 85 229 -5 q 30 321 30 175 q 120 573 30 464 q 368 739 210 683 l 387 648 q 125 326 125 553 q 408 77 125 101 l 498 755 q 545 757 525 757 q 849 661 741 757 q 958 409 958 564 q 834 99 958 210 q 490 -18 710 -12 m 581 664 l 503 75 q 863 404 863 92 q 788 591 863 523 q 581 664 714 660 z "},"χ":{"ha":667,"x_min":-132,"x_max":654,"o":"m 654 738 l 332 257 l 545 -270 l 444 -270 l 269 163 l -22 -270 l -132 -270 l 227 265 l 36 738 l 136 738 l 290 359 l 544 738 l 654 738 z "},"ψ":{"ha":1022,"x_min":46,"x_max":941,"o":"m 892 376 q 846 189 878 266 q 716 52 813 112 q 468 -18 620 -9 l 435 -270 l 341 -270 l 374 -18 q 46 273 46 10 q 55 382 46 318 l 102 738 l 197 738 l 154 414 q 143 286 143 332 q 219 122 143 163 q 387 75 294 81 l 475 738 l 569 738 l 480 75 q 667 129 596 84 q 763 234 739 174 q 803 414 787 293 l 846 738 l 941 738 l 892 376 z "},"ω":{"ha":1191,"x_min":23,"x_max":1080,"o":"m 526 135 q 434 23 497 65 q 295 -19 372 -19 q 97 58 170 -19 q 23 269 23 134 q 155 601 24 462 q 488 757 286 740 l 484 667 q 223 545 330 656 q 117 267 117 434 q 299 68 117 68 q 433 135 378 68 q 504 331 487 203 l 516 422 l 612 422 l 600 331 q 594 248 594 286 q 734 68 594 68 q 926 159 866 68 q 985 374 985 250 q 911 577 985 497 q 711 667 837 657 l 730 757 q 981 642 882 749 q 1080 381 1080 535 q 994 102 1080 222 q 715 -19 907 -19 q 589 25 642 -19 q 526 135 536 68 z "},"ϊ":{"ha":278,"x_min":-18,"x_max":417,"o":"m 111 738 l 201 738 l 103 0 l 9 0 l 111 738 m 72 1029 q 121 1010 101 1029 q 140 962 140 990 q 113 899 140 926 q 49 872 85 872 q 1 891 20 872 q -18 940 -18 911 q 9 1002 -18 975 q 72 1029 36 1029 m 349 1029 q 398 1010 378 1029 q 417 962 417 990 q 390 899 417 926 q 326 872 362 872 q 278 891 297 872 q 258 940 258 911 q 286 1002 258 975 q 349 1029 313 1029 z "},"ϋ":{"ha":827,"x_min":47,"x_max":720,"o":"m 104 738 l 198 738 l 152 393 q 142 271 142 317 q 338 70 142 70 q 546 167 469 70 q 623 410 624 264 q 493 675 623 572 l 553 758 q 720 429 720 619 q 614 106 720 231 q 325 -19 508 -19 q 47 257 47 -19 q 57 382 47 309 l 104 738 m 325 1029 q 374 1010 354 1029 q 393 962 393 990 q 366 899 393 926 q 302 872 338 872 q 254 891 273 872 q 235 940 235 911 q 262 1002 235 975 q 325 1029 289 1029 m 602 1029 q 651 1010 631 1029 q 670 962 670 990 q 643 899 670 926 q 579 872 615 872 q 531 891 550 872 q 511 940 511 911 q 538 1002 511 975 q 602 1029 566 1029 z "},"ό":{"ha":909,"x_min":38,"x_max":801,"o":"m 461 757 q 634 712 555 757 q 757 586 713 667 q 801 404 801 506 q 745 189 801 288 q 593 35 688 90 q 378 -19 498 -19 q 134 78 230 -19 q 38 326 38 176 q 94 544 38 444 q 249 700 151 644 q 461 757 347 757 m 459 667 q 293 623 371 667 q 174 502 216 578 q 132 332 132 425 q 204 142 132 215 q 390 69 276 69 q 551 112 479 69 q 666 234 623 154 q 709 406 709 314 q 677 542 709 482 q 587 634 645 601 q 459 667 528 667 m 570 1084 l 521 854 l 441 854 l 452 1084 l 570 1084 z "},"ύ":{"ha":827,"x_min":47,"x_max":720,"o":"m 104 738 l 198 738 l 152 393 q 142 271 142 317 q 338 70 142 70 q 546 167 469 70 q 623 410 624 264 q 493 675 623 572 l 553 758 q 720 429 720 619 q 614 106 720 231 q 325 -19 508 -19 q 47 257 47 -19 q 57 382 47 309 l 104 738 m 530 1084 l 480 854 l 400 854 l 411 1084 l 530 1084 z "},"ώ":{"ha":1191,"x_min":23,"x_max":1080,"o":"m 526 135 q 434 23 497 65 q 295 -19 372 -19 q 97 58 170 -19 q 23 269 23 134 q 155 601 24 462 q 488 757 286 740 l 484 667 q 223 545 330 656 q 117 267 117 434 q 299 68 117 68 q 433 135 378 68 q 504 331 487 203 l 516 422 l 612 422 l 600 331 q 594 248 594 286 q 734 68 594 68 q 926 159 866 68 q 985 374 985 250 q 911 577 985 497 q 711 667 837 657 l 730 757 q 981 642 882 749 q 1080 381 1080 535 q 994 102 1080 222 q 715 -19 907 -19 q 589 25 642 -19 q 526 135 536 68 m 711 1084 l 662 854 l 582 854 l 593 1084 l 711 1084 z "},"Ё":{"ha":745,"x_min":33,"x_max":716,"o":"m 716 998 l 702 901 l 253 901 l 209 574 l 658 574 l 645 478 l 196 478 l 145 96 l 594 96 l 583 0 l 33 0 l 166 998 l 716 998 m 329 1232 q 378 1212 358 1232 q 397 1164 397 1192 q 370 1101 397 1128 q 306 1074 342 1074 q 258 1094 277 1074 q 239 1142 239 1113 q 266 1204 239 1177 q 329 1232 293 1232 m 606 1232 q 655 1212 635 1232 q 674 1164 674 1192 q 647 1101 674 1128 q 583 1074 619 1074 q 535 1094 554 1074 q 515 1142 515 1113 q 543 1204 515 1177 q 606 1232 570 1232 z "},"Ђ":{"ha":879,"x_min":37,"x_max":789,"o":"m 307 482 l 240 0 l 138 0 l 260 901 l 37 901 l 50 998 l 598 998 l 585 901 l 362 901 l 319 581 l 404 581 q 710 510 630 581 q 789 304 789 439 q 723 76 789 176 q 536 -24 657 -24 q 372 37 451 -24 l 423 104 q 532 64 481 64 q 644 141 604 64 q 684 300 684 218 q 620 446 684 410 q 419 482 556 482 l 307 482 z "},"Ѓ":{"ha":624,"x_min":33,"x_max":669,"o":"m 132 0 l 33 0 l 168 998 l 667 998 l 654 899 l 253 899 l 132 0 m 524 1285 l 669 1285 l 439 1076 l 346 1076 l 524 1285 z "},"Є":{"ha":1090,"x_min":49,"x_max":1072,"o":"m 165 552 l 633 552 l 620 454 l 153 454 q 151 422 151 433 q 259 174 151 279 q 542 69 367 69 q 913 233 751 69 l 985 174 q 526 -25 800 -25 q 172 103 296 -25 q 49 425 49 231 q 230 847 49 672 q 663 1023 411 1023 q 908 967 802 1023 q 1072 812 1015 911 l 985 752 q 651 924 876 924 q 356 826 493 924 q 165 552 219 728 z "},"Ѕ":{"ha":692,"x_min":10,"x_max":629,"o":"m 629 813 l 534 789 q 472 889 515 852 q 378 926 429 926 q 288 888 323 926 q 253 787 253 850 q 290 671 253 732 q 401 553 313 633 q 529 399 493 471 q 566 259 566 328 q 526 119 566 186 q 419 14 486 52 q 277 -25 352 -25 q 111 36 181 -25 q 10 215 41 97 l 102 246 q 173 113 124 157 q 286 70 222 70 q 410 123 358 70 q 463 256 463 177 q 433 368 463 313 q 317 500 404 423 q 197 629 225 585 q 152 787 152 704 q 219 956 152 889 q 385 1023 286 1023 q 533 970 468 1023 q 629 813 598 917 z "},"І":{"ha":314,"x_min":26,"x_max":262,"o":"m 161 998 l 262 998 l 127 0 l 26 0 l 161 998 z "},"Ї":{"ha":314,"x_min":24,"x_max":460,"o":"m 162 998 l 262 998 l 127 0 l 27 0 l 162 998 m 115 1232 q 163 1212 144 1232 q 183 1164 183 1192 q 156 1101 183 1128 q 92 1074 128 1074 q 44 1094 63 1074 q 24 1142 24 1113 q 52 1204 24 1177 q 115 1232 79 1232 m 391 1232 q 440 1212 421 1232 q 460 1164 460 1192 q 432 1101 460 1128 q 369 1074 405 1074 q 320 1094 340 1074 q 301 1142 301 1113 q 328 1204 301 1177 q 391 1232 355 1232 z "},"Ј":{"ha":669,"x_min":-17,"x_max":559,"o":"m 461 998 l 559 998 l 469 310 q 422 97 449 155 q 343 7 395 39 q 223 -25 292 -25 q 102 2 160 -25 q -17 95 43 30 l 60 149 q 225 67 144 67 q 323 123 286 67 q 370 302 352 165 l 461 998 z "},"Љ":{"ha":1444,"x_min":-69,"x_max":1355,"o":"m 561 998 l 711 570 l 920 570 q 1273 486 1192 570 q 1355 283 1355 402 q 1283 85 1355 170 q 959 0 1211 0 l 785 0 l 521 786 l 41 0 l -69 0 l 537 998 l 561 998 m 860 96 l 891 96 q 1110 105 1053 96 q 1207 160 1166 113 q 1249 283 1249 206 q 1211 400 1249 353 q 1109 459 1173 446 q 920 472 1046 472 l 734 472 l 860 96 z "},"Њ":{"ha":1414,"x_min":33,"x_max":1323,"o":"m 212 580 l 718 580 l 774 998 l 875 998 l 819 580 l 890 580 q 1227 505 1132 580 q 1323 298 1323 431 q 1290 152 1323 216 q 1200 54 1256 88 q 1087 9 1145 19 q 839 0 1029 0 l 640 0 l 705 482 l 198 482 l 133 0 l 33 0 l 168 998 l 268 998 l 212 580 m 753 96 l 860 96 q 1040 100 996 96 q 1125 127 1083 104 q 1192 192 1168 149 q 1216 296 1216 235 q 1179 411 1216 368 q 1075 469 1143 455 q 890 482 1007 482 l 806 482 l 753 96 z "},"Ћ":{"ha":879,"x_min":37,"x_max":791,"o":"m 240 0 l 138 0 l 260 901 l 37 901 l 50 998 l 598 998 l 585 901 l 362 901 l 318 580 l 441 580 q 717 526 643 580 q 791 366 791 473 q 781 251 791 327 l 747 0 l 650 0 l 687 256 q 694 350 694 308 q 638 455 694 429 q 486 482 582 482 l 307 482 l 240 0 z "},"Ќ":{"ha":795,"x_min":22,"x_max":791,"o":"m 157 998 l 258 998 l 202 583 l 656 998 l 791 998 l 293 553 l 694 0 l 562 0 l 214 484 l 185 458 l 123 0 l 22 0 l 157 998 m 557 1285 l 703 1285 l 473 1076 l 379 1076 l 557 1285 z "},"Ў":{"ha":865,"x_min":-22,"x_max":890,"o":"m 90 995 l 203 995 l 412 317 l 781 998 l 890 998 l 391 101 q 185 -25 320 -25 q 87 -3 133 -25 q -22 101 41 19 l 58 161 q 148 77 124 87 q 197 66 172 66 q 268 87 237 66 q 346 193 300 109 l 90 995 m 260 1233 l 349 1233 q 491 1162 385 1162 q 583 1178 547 1162 q 654 1233 618 1193 l 741 1233 q 649 1131 717 1172 q 481 1090 582 1090 q 325 1131 382 1090 q 260 1233 268 1171 z "},"Џ":{"ha":904,"x_min":33,"x_max":829,"o":"m 318 0 l 33 0 l 168 998 l 268 998 l 146 94 l 606 94 l 728 998 l 829 998 l 694 0 l 411 0 l 391 -149 l 298 -149 l 318 0 z "},"А":{"ha":1027,"x_min":-20,"x_max":912,"o":"m 578 998 l 912 0 l 810 0 l 701 326 l 278 326 l 92 0 l -20 0 l 555 998 l 578 998 m 546 789 l 333 421 l 669 421 l 546 789 z "},"Б":{"ha":764,"x_min":33,"x_max":673,"o":"m 33 0 l 168 998 l 672 998 l 659 899 l 258 899 l 214 590 l 258 590 q 591 500 509 590 q 673 286 673 411 q 622 116 673 187 q 498 23 571 45 q 309 0 425 0 l 33 0 m 201 494 l 149 98 l 269 98 q 442 110 389 98 q 534 168 496 122 q 572 290 572 214 q 534 415 572 365 q 437 480 496 466 q 255 494 378 494 l 201 494 z "},"В":{"ha":798,"x_min":34,"x_max":727,"o":"m 167 998 l 295 998 q 550 975 484 998 q 657 896 616 952 q 699 763 699 840 q 655 620 699 683 q 538 529 612 557 q 677 436 627 502 q 727 281 727 371 q 684 124 727 190 q 568 29 641 58 q 318 0 496 0 l 34 0 l 167 998 m 253 903 l 208 572 q 276 569 237 569 q 472 591 412 569 q 565 659 532 612 q 598 762 598 705 q 546 870 598 835 q 326 905 494 905 q 253 903 296 905 m 196 474 l 146 94 l 281 94 q 475 106 422 94 q 588 167 549 123 q 626 281 626 212 q 595 386 626 344 q 492 451 564 427 q 279 474 421 474 l 196 474 z "},"Г":{"ha":622,"x_min":33,"x_max":667,"o":"m 132 0 l 33 0 l 168 998 l 667 998 l 654 899 l 253 899 l 132 0 z "},"Д":{"ha":996,"x_min":-106,"x_max":924,"o":"m -8 -149 l -106 -149 l -74 93 l 7 93 l 522 998 l 555 998 l 846 93 l 924 93 l 892 -149 l 793 -149 l 813 0 l 12 0 l -8 -149 m 112 93 l 746 93 l 515 810 l 112 93 z "},"Е":{"ha":745,"x_min":33,"x_max":716,"o":"m 716 998 l 702 901 l 253 901 l 209 574 l 658 574 l 645 478 l 196 478 l 145 96 l 594 96 l 583 0 l 33 0 l 166 998 l 716 998 z "},"Ж":{"ha":1221,"x_min":-90,"x_max":1220,"o":"m 633 450 l 574 0 l 472 0 l 535 455 l 503 492 l 33 0 l -90 0 l 450 555 l 87 998 l 194 998 l 546 555 l 607 998 l 709 998 l 650 555 l 1107 998 l 1220 998 l 740 541 l 1130 0 l 1013 0 l 675 487 l 633 450 z "},"З":{"ha":739,"x_min":-66,"x_max":628,"o":"m 104 901 q 376 1023 221 1023 q 559 956 491 1023 q 628 783 628 888 q 444 532 628 597 q 610 285 610 456 q 519 61 610 148 q 274 -26 427 -26 q -66 177 42 -26 l 12 218 q 145 87 85 112 q 271 62 205 62 q 449 130 391 62 q 508 279 508 197 q 452 426 508 362 q 246 489 395 489 l 229 489 l 240 569 l 273 569 q 473 632 416 569 q 530 780 530 695 q 483 894 530 854 q 366 933 436 933 q 164 840 265 933 l 104 901 z "},"И":{"ha":1008,"x_min":33,"x_max":932,"o":"m 798 0 l 694 0 l 798 764 l 69 0 l 33 0 l 168 998 l 267 998 l 161 220 l 901 998 l 932 998 l 798 0 z "},"Й":{"ha":1008,"x_min":33,"x_max":932,"o":"m 798 0 l 694 0 l 798 764 l 69 0 l 33 0 l 168 998 l 267 998 l 161 220 l 901 998 l 932 998 l 798 0 m 335 1233 l 425 1233 q 566 1162 460 1162 q 658 1178 622 1162 q 729 1233 694 1193 l 816 1233 q 725 1131 792 1172 q 557 1090 657 1090 q 400 1131 457 1090 q 335 1233 343 1171 z "},"К":{"ha":802,"x_min":31,"x_max":801,"o":"m 166 998 l 268 998 l 212 583 l 666 998 l 801 998 l 302 553 l 703 0 l 571 0 l 224 484 l 195 458 l 133 0 l 31 0 l 166 998 z "},"Л":{"ha":1002,"x_min":-70,"x_max":891,"o":"m 789 0 l 528 807 l 35 0 l -70 0 l 536 998 l 560 998 l 891 0 l 789 0 z "},"М":{"ha":1276,"x_min":-2,"x_max":1114,"o":"m 1114 998 l 1114 0 l 1020 0 l 1020 688 l 587 0 l 562 0 l 304 712 l 99 0 l -2 0 l 286 998 l 302 998 l 594 187 l 1098 998 l 1114 998 z "},"Н":{"ha":949,"x_min":33,"x_max":873,"o":"m 166 998 l 264 998 l 211 592 l 722 592 l 776 998 l 873 998 l 742 0 l 644 0 l 710 498 l 197 498 l 132 0 l 33 0 l 166 998 z "},"О":{"ha":1207,"x_min":50,"x_max":1118,"o":"m 648 1023 q 984 890 850 1023 q 1118 556 1118 758 q 948 142 1118 310 q 524 -25 778 -25 q 179 104 309 -25 q 50 441 50 233 q 127 736 50 602 q 342 946 205 870 q 648 1023 479 1023 m 646 928 q 391 866 503 928 q 213 689 279 804 q 148 445 148 574 q 195 248 148 335 q 327 115 243 161 q 524 68 410 68 q 772 133 658 68 q 952 313 887 198 q 1018 562 1018 428 q 894 842 1018 739 q 646 928 791 928 z "},"П":{"ha":950,"x_min":33,"x_max":875,"o":"m 168 998 l 875 998 l 741 0 l 640 0 l 762 903 l 255 903 l 133 0 l 33 0 l 168 998 z "},"Р":{"ha":822,"x_min":44,"x_max":772,"o":"m 178 998 l 450 998 q 643 972 585 998 q 737 892 702 947 q 772 762 772 837 q 717 590 772 663 q 576 491 661 517 q 359 471 515 471 l 208 471 l 144 0 l 44 0 l 178 998 m 266 901 l 220 570 l 359 570 q 553 589 499 570 q 640 655 607 608 q 673 760 673 703 q 650 841 673 808 q 589 888 628 874 q 444 901 549 901 l 266 901 z "},"С":{"ha":1129,"x_min":54,"x_max":1069,"o":"m 1069 860 l 1008 777 q 647 926 850 926 q 400 861 515 926 q 220 688 285 797 q 155 453 155 578 q 205 254 155 341 q 349 118 255 168 q 565 69 444 69 q 910 186 750 69 l 966 107 q 762 2 847 29 q 564 -25 676 -25 q 227 79 357 -25 q 54 450 54 218 q 227 856 54 689 q 657 1023 400 1023 q 871 986 774 1023 q 1069 860 967 949 z "},"Т":{"ha":591,"x_min":37,"x_max":646,"o":"m 50 998 l 646 998 l 633 903 l 378 903 l 258 0 l 159 0 l 279 903 l 37 903 l 50 998 z "},"У":{"ha":865,"x_min":-22,"x_max":890,"o":"m 90 995 l 203 995 l 412 317 l 781 998 l 890 998 l 391 101 q 185 -25 320 -25 q 87 -3 133 -25 q -22 101 41 19 l 58 161 q 148 77 124 87 q 197 66 172 66 q 268 87 237 66 q 346 193 300 109 l 90 995 z "},"Ф":{"ha":1139,"x_min":28,"x_max":1087,"o":"m 529 0 l 429 0 l 468 288 l 384 288 q 28 544 28 288 q 113 762 28 656 q 462 869 197 869 l 550 869 l 568 998 l 661 998 l 645 869 l 722 869 q 1009 797 932 869 q 1087 608 1087 724 q 1029 426 1087 507 q 890 317 972 346 q 652 288 808 288 l 568 288 l 529 0 m 481 384 l 534 772 l 442 772 q 251 746 309 772 q 162 664 193 720 q 131 547 131 607 q 195 421 131 459 q 390 384 260 384 l 481 384 m 633 772 l 580 384 l 672 384 q 857 407 801 384 q 949 485 913 431 q 985 604 985 538 q 922 734 985 696 q 724 772 859 772 l 633 772 z "},"Х":{"ha":846,"x_min":-31,"x_max":840,"o":"m 147 998 l 253 998 l 429 610 l 723 998 l 840 998 l 473 514 l 709 0 l 604 0 l 409 425 l 86 0 l -31 0 l 365 523 l 147 998 z "},"Ц":{"ha":926,"x_min":33,"x_max":878,"o":"m 772 0 l 33 0 l 168 998 l 268 998 l 146 94 l 606 94 l 728 998 l 829 998 l 706 94 l 878 94 l 844 -151 l 751 -151 l 772 0 z "},"Ч":{"ha":793,"x_min":75,"x_max":718,"o":"m 560 567 l 618 998 l 718 998 l 583 0 l 484 0 l 547 474 l 475 474 q 234 488 308 474 q 118 552 161 503 q 75 697 75 602 q 85 800 75 732 l 111 998 l 208 998 l 180 793 q 172 703 172 731 q 197 616 172 646 q 263 576 222 586 q 391 567 304 567 l 560 567 z "},"Ш":{"ha":1403,"x_min":33,"x_max":1326,"o":"m 146 94 l 572 94 l 694 998 l 794 998 l 672 94 l 1104 94 l 1226 998 l 1326 998 l 1192 0 l 33 0 l 168 998 l 268 998 l 146 94 z "},"Щ":{"ha":1443,"x_min":33,"x_max":1403,"o":"m 1205 94 l 1393 94 l 1360 -149 l 1267 -149 l 1287 0 l 33 0 l 168 998 l 268 998 l 146 94 l 574 94 l 697 998 l 798 998 l 675 94 l 1104 94 l 1227 998 l 1327 998 l 1205 94 m 1403 0 z "},"Ъ":{"ha":892,"x_min":14,"x_max":802,"o":"m 237 904 l 14 904 l 27 998 l 353 998 l 296 570 l 414 570 q 598 554 544 570 q 701 499 652 538 q 775 402 749 460 q 802 280 802 345 q 741 104 802 175 q 604 16 680 33 q 315 0 528 0 l 115 0 l 237 904 m 232 97 l 336 97 q 517 99 476 97 q 598 122 557 101 q 663 183 640 142 q 687 281 687 223 q 636 417 687 363 q 446 472 586 472 l 283 472 l 232 97 z "},"Ы":{"ha":1116,"x_min":33,"x_max":1040,"o":"m 941 998 l 1040 998 l 905 0 l 806 0 l 941 998 m 33 0 l 168 998 l 267 998 l 209 570 l 328 570 l 380 570 q 626 488 536 570 q 715 280 715 406 q 654 104 715 175 q 517 16 593 33 q 229 0 441 0 l 33 0 m 145 97 l 249 97 q 430 99 390 97 q 512 122 471 101 q 576 183 553 142 q 600 281 600 223 q 550 417 600 362 q 359 472 500 472 l 196 472 l 145 97 z "},"Ь":{"ha":804,"x_min":33,"x_max":715,"o":"m 33 0 l 168 998 l 267 998 l 209 570 l 328 570 l 380 570 q 625 488 536 570 q 715 280 715 406 q 654 103 715 174 q 517 16 593 33 q 229 0 441 0 l 33 0 m 145 97 l 249 97 q 430 99 389 97 q 512 122 471 101 q 576 183 553 142 q 600 281 600 223 q 549 417 600 362 q 359 472 498 472 l 196 472 l 145 97 z "},"Э":{"ha":1090,"x_min":-20,"x_max":1005,"o":"m 880 454 l 413 454 l 426 552 l 892 552 q 895 595 895 580 q 794 827 895 729 q 517 924 693 924 q 332 888 412 924 q 139 751 253 852 l 67 812 q 532 1023 269 1023 q 872 900 739 1023 q 1005 578 1005 778 q 846 154 1005 333 q 400 -25 687 -25 q -20 174 111 -25 l 67 233 q 395 69 185 69 q 707 169 573 69 q 880 454 842 269 z "},"Ю":{"ha":1512,"x_min":33,"x_max":1428,"o":"m 207 552 l 382 552 q 606 903 443 784 q 963 1023 769 1023 q 1300 893 1171 1023 q 1428 577 1428 764 q 1249 154 1428 333 q 828 -25 1069 -25 q 617 18 710 -25 q 465 139 525 60 q 387 292 404 217 q 370 459 370 366 l 195 459 l 132 0 l 33 0 l 168 998 l 267 998 l 207 552 m 1325 572 q 1224 820 1325 714 q 954 926 1122 926 q 611 776 751 926 q 471 430 471 627 q 577 175 471 278 q 838 72 682 72 q 1179 217 1033 72 q 1325 572 1325 361 z "},"Я":{"ha":822,"x_min":-26,"x_max":747,"o":"m 747 998 l 612 0 l 512 0 l 572 450 l 478 450 l 97 0 l -26 0 l 355 450 q 235 475 311 450 q 121 563 159 501 q 84 700 84 624 q 141 872 84 797 q 274 973 198 948 q 489 998 351 998 l 747 998 m 633 900 l 458 900 q 306 882 356 900 q 221 812 256 863 q 187 700 187 762 q 233 586 187 628 q 420 544 279 544 l 585 544 l 633 900 z "},"а":{"ha":949,"x_min":41,"x_max":859,"o":"m 760 0 l 665 0 l 679 111 q 385 -19 551 -19 q 138 78 235 -19 q 41 328 41 175 q 166 630 41 504 q 463 757 292 757 q 624 718 555 757 q 743 597 694 680 l 760 738 l 859 738 l 760 0 m 395 68 q 562 111 487 68 q 682 235 637 154 q 726 410 726 315 q 653 597 726 525 q 465 669 581 669 q 231 570 328 669 q 134 329 134 472 q 207 140 134 212 q 395 68 279 68 z "},"б":{"ha":937,"x_min":59,"x_max":884,"o":"m 884 1038 l 871 947 q 683 932 800 935 q 412 906 496 928 q 266 812 328 884 q 175 616 203 740 l 152 512 q 511 757 264 757 q 750 661 656 757 q 844 420 844 564 q 713 115 844 248 q 404 -19 583 -19 q 154 83 250 -19 q 59 363 59 185 q 99 655 59 513 q 213 879 139 798 q 398 991 288 960 q 757 1029 509 1023 q 884 1038 832 1031 m 745 405 q 673 590 745 517 q 496 664 601 664 q 265 559 366 664 q 165 324 165 455 q 235 142 165 213 q 416 71 305 71 q 648 173 551 71 q 745 405 745 274 m 157 365 z "},"в":{"ha":650,"x_min":28,"x_max":544,"o":"m 28 0 l 127 738 l 330 738 q 479 686 423 738 q 534 557 534 635 q 406 391 534 433 q 508 314 473 367 q 544 199 544 261 q 486 59 544 118 q 327 -1 428 -1 l 242 0 l 28 0 m 180 425 l 243 425 q 356 434 321 425 q 416 473 391 444 q 441 550 441 502 q 421 617 441 591 q 370 649 401 643 q 274 656 338 656 l 212 656 l 180 425 m 133 80 l 243 80 l 296 79 q 452 206 452 79 q 426 289 452 256 q 364 330 399 322 q 254 338 330 338 l 168 338 l 133 80 z "},"г":{"ha":488,"x_min":28,"x_max":500,"o":"m 211 654 l 122 0 l 28 0 l 127 738 l 500 738 l 490 654 l 211 654 z "},"д":{"ha":819,"x_min":-90,"x_max":730,"o":"m 24 81 l 397 738 l 447 738 l 641 81 l 730 81 l 706 -94 l 614 -94 l 627 0 l 16 0 l 3 -98 l -90 -98 l -66 81 l 24 81 m 400 581 l 123 81 l 538 81 l 400 581 z "},"е":{"ha":903,"x_min":39,"x_max":795,"o":"m 791 350 l 133 350 q 201 143 131 218 q 389 68 272 68 q 534 100 467 68 q 644 189 600 132 l 714 132 q 574 22 661 63 q 387 -19 488 -19 q 126 89 214 -19 q 39 330 39 196 q 98 542 39 440 q 255 700 157 644 q 468 757 353 757 q 703 661 610 757 q 795 416 795 565 q 791 350 795 389 m 704 432 q 633 601 700 536 q 464 666 566 666 q 269 604 353 666 q 149 432 184 541 l 704 432 z "},"ж":{"ha":1084,"x_min":-81,"x_max":1076,"o":"m 511 738 l 608 738 l 562 405 l 960 738 l 1076 738 l 675 405 l 994 0 l 881 0 l 608 357 l 549 311 l 507 0 l 412 0 l 454 311 l 406 357 l 40 0 l -81 0 l 346 409 l 47 738 l 153 738 l 465 397 l 511 738 z "},"з":{"ha":591,"x_min":-41,"x_max":486,"o":"m 197 427 l 246 427 q 349 466 306 427 q 392 563 392 504 q 357 643 392 614 q 267 671 323 671 q 115 609 194 671 l 71 675 q 283 758 163 758 q 429 706 372 758 q 486 574 486 654 q 366 392 486 458 q 469 217 469 333 q 401 47 469 113 q 208 -19 334 -19 q -41 79 61 -19 l 22 141 q 205 62 105 62 q 330 107 285 62 q 374 220 374 152 q 336 311 374 277 q 246 346 298 346 l 186 346 l 197 427 z "},"и":{"ha":847,"x_min":28,"x_max":749,"o":"m 220 738 l 149 208 l 742 738 l 749 738 l 649 0 l 554 0 l 625 526 l 39 0 l 28 0 l 125 738 l 220 738 z "},"й":{"ha":847,"x_min":28,"x_max":749,"o":"m 220 738 l 149 208 l 742 738 l 749 738 l 649 0 l 554 0 l 625 526 l 39 0 l 28 0 l 125 738 l 220 738 m 243 1034 l 332 1034 q 474 964 368 964 q 566 979 530 964 q 637 1034 602 994 l 724 1034 q 632 932 700 973 q 465 891 565 891 q 308 932 365 891 q 243 1034 251 972 z "},"к":{"ha":713,"x_min":28,"x_max":704,"o":"m 127 738 l 223 738 l 181 427 l 564 738 l 704 738 l 285 400 l 627 0 l 492 0 l 199 341 l 166 315 l 123 0 l 28 0 l 127 738 z "},"л":{"ha":720,"x_min":-66,"x_max":628,"o":"m 628 0 l 527 0 l 352 537 l 35 0 l -66 0 l 371 738 l 388 738 l 628 0 z "},"м":{"ha":1177,"x_min":-49,"x_max":1049,"o":"m 890 738 l 917 738 l 1049 0 l 956 0 l 863 548 l 513 0 l 485 0 l 279 545 l 46 0 l -49 0 l 271 738 l 297 738 l 520 157 l 890 738 z "},"н":{"ha":847,"x_min":28,"x_max":749,"o":"m 184 445 l 612 445 l 654 738 l 749 738 l 647 0 l 551 0 l 600 355 l 172 355 l 123 0 l 28 0 l 130 738 l 226 738 l 184 445 z "},"о":{"ha":909,"x_min":38,"x_max":801,"o":"m 461 757 q 634 712 555 757 q 757 586 713 667 q 801 404 801 506 q 745 189 801 288 q 593 35 688 90 q 378 -19 498 -19 q 134 78 230 -19 q 38 326 38 176 q 94 544 38 444 q 249 700 151 644 q 461 757 347 757 m 459 667 q 293 623 371 667 q 174 502 216 578 q 132 332 132 425 q 204 142 132 215 q 390 69 276 69 q 551 112 479 69 q 666 234 623 154 q 709 406 709 314 q 677 542 709 482 q 587 634 645 601 q 459 667 528 667 z "},"п":{"ha":847,"x_min":28,"x_max":749,"o":"m 127 738 l 749 738 l 650 0 l 554 0 l 642 648 l 210 648 l 123 0 l 28 0 l 127 738 z "},"р":{"ha":947,"x_min":4,"x_max":858,"o":"m 138 738 l 235 738 l 220 627 q 513 757 349 757 q 761 660 665 757 q 858 410 858 563 q 732 107 858 234 q 437 -19 607 -19 q 275 20 345 -19 q 156 141 205 59 l 102 -270 l 4 -270 l 138 738 m 503 670 q 337 627 412 670 q 217 503 261 584 q 173 328 173 422 q 246 141 173 213 q 434 69 319 69 q 667 168 570 69 q 764 409 764 266 q 692 598 764 526 q 503 670 620 670 z "},"с":{"ha":899,"x_min":41,"x_max":812,"o":"m 812 578 l 734 533 q 484 666 652 666 q 305 623 386 666 q 179 502 224 579 q 134 336 134 425 q 168 197 134 258 q 263 102 201 135 q 408 68 324 68 q 571 102 493 68 q 692 190 648 136 l 770 135 q 611 18 696 55 q 412 -19 525 -19 q 139 76 237 -19 q 41 330 41 172 q 169 632 41 507 q 484 757 298 757 q 682 710 596 757 q 812 578 767 663 z "},"т":{"ha":574,"x_min":45,"x_max":543,"o":"m 56 738 l 543 738 l 531 656 l 336 656 l 247 0 l 151 0 l 240 656 l 45 656 l 56 738 z "},"у":{"ha":745,"x_min":32,"x_max":742,"o":"m 32 738 l 130 738 l 321 193 l 637 738 l 742 738 l 157 -270 l 51 -270 l 260 90 l 32 738 z "},"ф":{"ha":1493,"x_min":28,"x_max":1398,"o":"m 755 1023 l 849 1023 l 789 588 q 1076 753 880 753 q 1307 662 1216 753 q 1398 427 1398 570 q 1275 101 1398 226 q 979 -23 1153 -23 q 728 132 780 -23 l 675 -270 l 581 -270 l 633 132 q 361 -22 558 -22 q 123 72 218 -22 q 28 309 28 167 q 155 627 28 502 q 451 753 281 753 q 696 588 648 753 l 755 1023 m 755 306 q 826 117 755 171 q 963 64 897 64 q 1207 168 1112 64 q 1302 414 1302 272 q 1234 597 1302 528 q 1057 667 1166 667 q 839 562 924 667 q 755 306 755 458 m 127 320 q 194 138 127 211 q 378 66 260 66 q 526 114 446 66 q 637 249 605 162 q 669 430 669 336 q 634 573 669 524 q 554 645 600 623 q 457 667 509 667 q 225 563 323 667 q 127 320 127 460 z "},"х":{"ha":667,"x_min":-19,"x_max":636,"o":"m 24 738 l 132 738 l 311 450 l 522 738 l 636 738 l 363 366 l 586 0 l 478 0 l 303 283 l 95 0 l -19 0 l 252 366 l 24 738 z "},"ц":{"ha":878,"x_min":27,"x_max":804,"o":"m 702 0 l 27 0 l 127 738 l 222 738 l 134 90 l 549 90 l 636 738 l 732 738 l 645 90 l 804 90 l 777 -117 l 687 -117 l 702 0 z "},"ч":{"ha":643,"x_min":33,"x_max":545,"o":"m 396 333 l 254 333 q 139 346 182 333 q 64 399 96 358 q 33 499 33 439 q 37 555 33 517 l 61 738 l 155 738 l 137 604 q 127 514 127 529 q 152 435 127 457 q 261 414 177 414 l 406 414 l 450 738 l 545 738 l 446 0 l 351 0 l 396 333 z "},"ш":{"ha":1326,"x_min":27,"x_max":1228,"o":"m 1131 0 l 27 0 l 127 738 l 224 738 l 136 90 l 542 90 l 629 738 l 726 738 l 640 90 l 1046 90 l 1132 738 l 1228 738 l 1131 0 z "},"щ":{"ha":1368,"x_min":28,"x_max":1326,"o":"m 28 0 l 127 738 l 224 738 l 137 90 l 543 90 l 630 738 l 727 738 l 640 90 l 1046 90 l 1133 738 l 1229 738 l 1143 90 l 1295 90 l 1267 -117 l 1185 -117 l 1200 0 l 28 0 m 1326 0 z "},"ъ":{"ha":701,"x_min":-22,"x_max":591,"o":"m 56 0 l 144 651 l -22 651 l -10 738 l 249 738 l 210 446 l 334 446 q 523 382 455 446 q 591 217 591 319 q 563 104 591 153 q 480 29 536 56 q 302 0 425 2 l 56 0 m 202 355 l 165 80 l 274 80 q 403 90 365 80 q 468 133 441 100 q 495 215 495 166 q 443 319 495 283 q 301 355 391 355 l 202 355 z "},"ы":{"ha":971,"x_min":28,"x_max":873,"o":"m 777 738 l 873 738 l 773 0 l 677 0 l 777 738 m 182 445 l 305 445 q 499 378 435 445 q 564 220 564 312 q 500 61 564 123 q 273 0 437 0 l 28 0 l 127 738 l 222 738 l 182 445 m 174 355 l 136 80 l 245 80 q 375 90 337 80 q 440 133 413 100 q 467 215 467 166 q 415 319 467 283 q 273 355 363 355 l 174 355 z "},"ь":{"ha":675,"x_min":27,"x_max":564,"o":"m 181 445 l 304 445 q 500 376 436 445 q 564 218 564 308 q 534 100 564 149 q 445 26 504 52 q 273 0 387 0 l 27 0 l 127 738 l 221 738 l 181 445 m 173 355 l 136 80 l 245 80 q 374 90 336 80 q 439 133 412 100 q 466 215 466 166 q 414 319 466 283 q 273 355 362 355 l 173 355 z "},"э":{"ha":889,"x_min":0,"x_max":783,"o":"m 678 341 l 345 341 l 356 422 l 684 422 q 603 602 680 537 q 412 667 526 667 q 128 538 235 667 l 56 586 q 420 757 196 757 q 680 665 576 757 q 783 410 783 572 q 662 107 783 234 q 342 -19 542 -19 q 0 148 88 -19 l 82 197 q 331 68 168 68 q 548 135 454 68 q 678 341 642 202 z "},"ю":{"ha":1171,"x_min":28,"x_max":1064,"o":"m 123 0 l 28 0 l 127 738 l 223 738 l 181 428 l 305 428 q 458 669 340 582 q 724 757 576 757 q 970 662 876 757 q 1064 418 1064 567 q 939 106 1064 232 q 632 -19 814 -19 q 387 71 484 -19 q 291 334 291 160 l 168 334 l 123 0 m 967 404 q 895 591 967 518 q 718 664 822 664 q 482 565 576 664 q 387 328 387 465 q 461 137 387 202 q 640 71 536 71 q 871 169 775 71 q 967 404 967 267 z "},"я":{"ha":652,"x_min":-33,"x_max":553,"o":"m 454 0 l 359 0 l 404 330 l 338 330 l 85 0 l -33 0 l 237 341 q 128 406 169 359 q 87 514 87 454 q 147 675 87 612 q 328 738 208 738 l 553 738 l 454 0 m 447 656 l 385 656 q 264 647 298 656 q 205 603 231 638 q 180 519 180 568 q 222 436 180 460 q 351 411 264 411 l 414 411 l 447 656 z "},"ё":{"ha":903,"x_min":39,"x_max":795,"o":"m 791 350 l 133 350 q 201 143 131 218 q 389 68 272 68 q 534 100 467 68 q 644 189 600 132 l 714 132 q 574 22 661 63 q 387 -19 488 -19 q 126 89 214 -19 q 39 330 39 196 q 98 542 39 440 q 255 700 157 644 q 468 757 353 757 q 703 661 610 757 q 795 416 795 565 q 791 350 795 389 m 704 432 q 633 601 700 536 q 464 666 566 666 q 269 604 353 666 q 149 432 184 541 l 704 432 m 384 1029 q 433 1010 413 1029 q 452 962 452 990 q 425 899 452 926 q 361 872 397 872 q 313 891 332 872 q 294 940 294 911 q 321 1002 294 975 q 384 1029 348 1029 m 661 1029 q 710 1010 690 1029 q 729 962 729 990 q 702 899 729 926 q 638 872 674 872 q 590 891 609 872 q 570 940 570 911 q 597 1002 570 975 q 661 1029 625 1029 z "},"ђ":{"ha":847,"x_min":28,"x_max":721,"o":"m 144 849 l 39 849 l 50 930 l 155 930 l 166 1023 l 260 1023 l 250 930 l 534 930 l 523 849 l 239 849 l 208 626 q 469 757 322 757 q 648 689 576 757 q 721 509 721 621 q 707 339 721 440 l 661 0 l 652 -47 q 592 -244 627 -199 q 499 -289 557 -289 q 418 -270 462 -289 l 429 -189 q 477 -204 452 -204 q 528 -172 512 -204 q 555 -75 544 -140 l 568 0 l 613 339 q 626 498 626 434 q 577 628 626 585 q 456 671 528 671 q 304 623 372 671 q 210 505 237 574 q 166 319 182 437 l 123 0 l 28 0 l 144 849 z "},"ѓ":{"ha":488,"x_min":28,"x_max":595,"o":"m 211 654 l 122 0 l 28 0 l 127 738 l 500 738 l 490 654 l 211 654 m 450 1082 l 595 1082 l 366 873 l 272 873 l 450 1082 z "},"є":{"ha":885,"x_min":38,"x_max":821,"o":"m 134 341 q 216 136 134 203 q 410 68 297 68 q 693 197 573 68 l 762 148 q 602 24 701 68 q 400 -19 504 -19 q 139 77 240 -19 q 38 314 38 172 q 172 638 38 519 q 488 757 307 757 q 682 713 590 757 q 821 585 774 669 l 739 538 q 474 669 650 669 q 254 595 346 669 q 146 422 162 522 l 473 422 l 463 341 l 134 341 z "},"ѕ":{"ha":539,"x_min":-24,"x_max":471,"o":"m 471 655 l 419 578 q 271 667 357 667 q 188 635 222 667 q 153 565 153 604 q 174 508 153 535 q 267 434 195 481 q 407 315 373 366 q 440 196 440 263 q 375 42 440 103 q 207 -19 311 -19 q -24 102 70 -19 l 34 170 q 212 70 116 70 q 308 109 267 70 q 349 198 349 147 q 318 277 349 239 q 212 360 298 302 q 90 466 119 424 q 61 559 61 507 q 123 699 61 642 q 279 757 184 757 q 379 734 334 757 q 471 655 425 712 z "},"і":{"ha":278,"x_min":9,"x_max":262,"o":"m 186 1042 q 239 1019 217 1042 q 262 966 262 997 q 239 912 262 934 q 186 890 217 890 q 132 912 154 890 q 110 966 110 934 q 132 1019 110 997 q 186 1042 154 1042 m 111 738 l 201 738 l 103 0 l 9 0 l 111 738 z "},"ї":{"ha":278,"x_min":-18,"x_max":417,"o":"m 112 738 l 202 738 l 104 0 l 10 0 l 112 738 m 72 1029 q 121 1010 101 1029 q 140 962 140 990 q 113 899 140 926 q 49 872 85 872 q 1 891 20 872 q -18 940 -18 911 q 9 1002 -18 975 q 72 1029 36 1029 m 349 1029 q 398 1010 378 1029 q 417 962 417 990 q 390 899 417 926 q 326 872 362 872 q 278 891 297 872 q 258 940 258 911 q 286 1002 258 975 q 349 1029 313 1029 z "},"ј":{"ha":282,"x_min":-134,"x_max":267,"o":"m 191 1042 q 244 1019 222 1042 q 267 966 267 997 q 244 912 267 934 q 191 890 222 890 q 136 912 159 890 q 114 966 114 934 q 136 1019 114 997 q 191 1042 159 1042 m 115 738 l 208 738 l 100 -47 q 43 -241 80 -193 q -52 -289 6 -289 q -134 -270 -87 -289 l -122 -189 q -74 -204 -97 -204 q -31 -182 -46 -204 q 2 -77 -8 -150 l 115 738 z "},"љ":{"ha":1084,"x_min":-82,"x_max":970,"o":"m 372 738 l 469 445 l 679 445 q 896 381 821 445 q 970 216 970 317 q 904 62 970 123 q 725 0 838 0 l 511 0 l 337 562 l 13 0 l -82 0 l 355 738 l 372 738 m 495 355 l 583 80 l 648 80 q 778 90 740 80 q 843 134 815 100 q 870 215 870 167 q 819 318 870 280 q 676 355 768 355 l 495 355 z "},"њ":{"ha":1192,"x_min":27,"x_max":1083,"o":"m 706 445 l 793 445 q 1010 382 937 445 q 1083 220 1083 319 q 1020 61 1083 121 q 793 0 957 0 l 551 0 l 600 355 l 172 355 l 123 0 l 27 0 l 127 738 l 222 738 l 184 445 l 611 445 l 650 738 l 746 738 l 706 445 m 694 355 l 657 80 l 766 80 q 895 90 857 80 q 960 133 933 100 q 987 215 987 166 q 935 319 987 283 q 793 355 883 355 l 694 355 z "},"ћ":{"ha":847,"x_min":28,"x_max":721,"o":"m 144 849 l 39 849 l 50 930 l 155 930 l 166 1023 l 260 1023 l 250 930 l 534 930 l 523 849 l 239 849 l 207 625 q 470 757 323 757 q 645 693 568 757 q 721 505 721 629 q 709 339 721 431 l 662 0 l 568 0 l 614 339 q 629 501 629 441 q 582 624 629 577 q 457 671 534 671 q 321 633 384 671 q 222 528 259 595 q 166 315 186 462 l 123 0 l 28 0 l 144 849 z "},"ќ":{"ha":713,"x_min":28,"x_max":704,"o":"m 127 738 l 223 738 l 181 427 l 564 738 l 704 738 l 285 400 l 627 0 l 492 0 l 199 341 l 166 315 l 123 0 l 28 0 l 127 738 m 510 1084 l 656 1084 l 426 875 l 332 875 l 510 1084 z "},"ў":{"ha":745,"x_min":32,"x_max":742,"o":"m 32 738 l 130 738 l 321 193 l 637 738 l 742 738 l 157 -270 l 51 -270 l 260 90 l 32 738 m 178 1034 l 267 1034 q 409 964 303 964 q 500 979 465 964 q 572 1034 536 994 l 659 1034 q 567 932 635 973 q 399 891 500 891 q 243 932 300 891 q 178 1034 186 972 z "},"џ":{"ha":847,"x_min":28,"x_max":749,"o":"m 298 0 l 28 0 l 127 738 l 223 738 l 135 90 l 567 90 l 654 738 l 749 738 l 650 0 l 388 0 l 372 -117 l 283 -117 l 298 0 z "},"Ґ":{"ha":575,"x_min":32,"x_max":635,"o":"m 131 0 l 32 0 l 167 998 l 517 998 l 540 1140 l 635 1140 l 603 899 l 252 899 l 131 0 z "},"ґ":{"ha":529,"x_min":52,"x_max":555,"o":"m 235 654 l 146 0 l 52 0 l 151 738 l 449 738 l 464 829 l 555 829 l 531 654 l 235 654 z "},"Ẁ":{"ha":1333,"x_min":85,"x_max":1358,"o":"m 85 998 l 182 998 l 321 256 l 707 998 l 726 998 l 900 256 l 1253 998 l 1358 998 l 882 0 l 863 0 l 688 751 l 290 0 l 272 0 l 85 998 m 700 1285 l 819 1076 l 725 1076 l 554 1285 l 700 1285 z "},"ẁ":{"ha":1154,"x_min":47,"x_max":1128,"o":"m 47 738 l 142 738 l 294 217 l 571 738 l 587 738 l 755 212 l 1027 738 l 1128 738 l 747 0 l 728 0 l 557 521 l 280 0 l 262 0 l 47 738 m 566 1084 l 685 875 l 591 875 l 420 1084 l 566 1084 z "},"Ẃ":{"ha":1333,"x_min":85,"x_max":1358,"o":"m 85 998 l 182 998 l 321 256 l 707 998 l 726 998 l 900 256 l 1253 998 l 1358 998 l 882 0 l 863 0 l 688 751 l 290 0 l 272 0 l 85 998 m 855 1285 l 1001 1285 l 771 1076 l 677 1076 l 855 1285 z "},"ẃ":{"ha":1154,"x_min":47,"x_max":1128,"o":"m 47 738 l 142 738 l 294 217 l 571 738 l 587 738 l 755 212 l 1027 738 l 1128 738 l 747 0 l 728 0 l 557 521 l 280 0 l 262 0 l 47 738 m 722 1084 l 867 1084 l 637 875 l 544 875 l 722 1084 z "},"Ẅ":{"ha":1333,"x_min":85,"x_max":1358,"o":"m 85 998 l 182 998 l 321 256 l 707 998 l 726 998 l 900 256 l 1253 998 l 1358 998 l 882 0 l 863 0 l 688 751 l 290 0 l 272 0 l 85 998 m 620 1232 q 669 1212 649 1232 q 688 1164 688 1192 q 661 1101 688 1128 q 597 1074 633 1074 q 549 1094 568 1074 q 530 1142 530 1113 q 557 1204 530 1177 q 620 1232 584 1232 m 897 1232 q 946 1212 926 1232 q 965 1164 965 1192 q 938 1101 965 1128 q 874 1074 910 1074 q 826 1094 845 1074 q 806 1142 806 1113 q 833 1204 806 1177 q 897 1232 861 1232 z "},"ẅ":{"ha":1154,"x_min":47,"x_max":1128,"o":"m 47 738 l 142 738 l 294 217 l 571 738 l 587 738 l 755 212 l 1027 738 l 1128 738 l 747 0 l 728 0 l 557 521 l 280 0 l 262 0 l 47 738 m 478 1029 q 527 1010 507 1029 q 547 962 547 990 q 519 899 547 926 q 455 872 492 872 q 407 891 427 872 q 388 940 388 911 q 415 1002 388 975 q 478 1029 442 1029 m 755 1029 q 804 1010 785 1029 q 823 962 823 990 q 796 899 823 926 q 732 872 768 872 q 684 891 703 872 q 665 940 665 911 q 692 1002 665 975 q 755 1029 719 1029 z "},"Ỳ":{"ha":822,"x_min":56,"x_max":855,"o":"m 56 998 l 161 998 l 374 545 l 734 998 l 855 998 l 413 442 l 353 0 l 255 0 l 315 448 l 56 998 m 417 1285 l 536 1076 l 442 1076 l 271 1285 l 417 1285 z "},"ỳ":{"ha":745,"x_min":32,"x_max":742,"o":"m 32 738 l 130 738 l 321 193 l 637 738 l 742 738 l 157 -270 l 51 -270 l 260 90 l 32 738 m 366 1084 l 484 875 l 391 875 l 220 1084 l 366 1084 z "},"―":{"ha":1042,"x_min":-45,"x_max":1013,"o":"m -45 432 l 1013 432 l 1013 345 l -45 345 l -45 432 z "},"‛":{"ha":488,"x_min":205,"x_max":356,"o":"m 236 649 q 205 798 205 720 q 224 954 205 856 l 237 1023 l 356 1023 l 328 835 l 270 835 q 267 798 267 810 q 290 678 267 750 l 236 649 z "},"‾":{"ha":770,"x_min":-28,"x_max":798,"o":"m -28 1267 l 798 1267 l 798 1217 l -28 1217 l -28 1267 m 259 724 z "}}}
